<?xml version="1.0" encoding="utf-8"?>
<!-- Generator: Adobe Illustrator 27.5.0, SVG Export Plug-In . SVG Version: 6.00 Build 0)  -->
<svg version="1.1" id="_x31_" xmlns="http://www.w3.org/2000/svg" xmlns:xlink="http://www.w3.org/1999/xlink" x="0px" y="0px"
	 viewBox="0 0 900 550" style="enable-background:new 0 0 900 550;" xml:space="preserve">
<g>
	<g style="opacity:0.48;">
		<rect x="0.13" y="325.92" style="fill:#0071BC;" width="899.87" height="224.08"/>
	</g>
	<polygon style="opacity:0.23;fill:#FFFFFF;" points="267.02,550 0.13,550 0.13,486.1 61.93,483.77 130.56,326.31 234.37,326.31 	
		"/>
	<g style="opacity:0.06;">
		<rect x="0.13" style="fill:#FFFFFF;" width="899.87" height="325.92"/>
	</g>
	<g style="opacity:0.18;">
		<path style="fill:#29ABE2;" d="M56.548,145.815c0,0,10.602,0.173,9.425-3.115c-1.176-3.288-9.425,1.209-9.425,1.209
			s11.149-8.407,4.758-13.427c-6.391-5.02-11.419,6.568-10.317,8.986c1.102,2.419-0.753-14.025-7.472-13.566
			c-6.719,0.459,0,14.634,0,14.634s-2.965-5.548-9.665-3.786c-6.701,1.761,0,5.95,0,5.95s-13.994-2.619-13.994,1.209
			c0,3.828,4.603,3.005,4.603,3.005L56.548,145.815z"/>
	</g>
	<g style="opacity:0.12;">
		<path style="fill:#29ABE2;" d="M48.033,48.947c0,0-18.961,0.328-16.857-5.898c2.104-6.226,16.857,2.289,16.857,2.289
			s-19.94-15.918-8.51-25.423S59.945,32.351,57.974,36.93c-1.971,4.579,1.347-26.553,13.364-25.684c12.017,0.869,0,27.707,0,27.707
			s5.302-10.504,17.286-7.169c11.984,3.335,0,11.265,0,11.265s25.028-4.958,25.028,2.289s-8.233,5.689-8.233,5.689L48.033,48.947z"
			/>
	</g>
	<g style="opacity:0.47;">
		<rect x="0.13" y="325.92" style="fill:#0071BC;" width="899.87" height="5.457"/>
	</g>
	<g style="opacity:0.15;">
		<ellipse style="fill:#0071BC;" cx="252.076" cy="517.316" rx="152.626" ry="10.032"/>
	</g>
	<g style="opacity:0.15;">
		<ellipse style="fill:#0071BC;" cx="630.135" cy="510.406" rx="211.335" ry="19.64"/>
	</g>
	<g>
		<g>
			<g>
				<rect x="139.966" y="31.198" style="fill:#FFFFFF;" width="221.557" height="19.658"/>
			</g>
		</g>
		<g>
			<g>
				<rect x="407.614" y="171.657" style="fill:#FFFFFF;" width="102.096" height="154.648"/>
			</g>
		</g>
		<g>
			<g>
				<rect x="630.583" y="129.79" style="fill:#C6E8F7;" width="40.286" height="98.256"/>
			</g>
		</g>
		<g style="opacity:0.55;">
			<g>
				<g>
					<polygon style="fill:#FFFFFF;" points="670.868,142.676 670.868,151.87 630.583,213.837 630.583,204.643 					"/>
				</g>
			</g>
			<g>
				<g>
					<polygon style="fill:#FFFFFF;" points="670.868,162.944 670.868,182.99 641.572,228.047 630.583,228.047 630.583,224.911 					
						"/>
				</g>
			</g>
			<g>
				<g>
					<polygon style="fill:#FFFFFF;" points="670.868,187.553 670.868,192.381 647.687,228.047 644.54,228.047 					"/>
				</g>
			</g>
		</g>
		<g>
			<g>
				<rect x="588.34" y="112.498" style="fill:#4074A8;" width="5.982" height="19.047"/>
			</g>
		</g>
		<g>
			<g>
				<rect x="555.169" y="90.275" style="fill:#C6E8F7;" width="73.033" height="25.201"/>
			</g>
		</g>
		<g>
			<g>
				<rect x="407.614" y="171.657" style="fill:#2E6999;" width="102.096" height="154.648"/>
			</g>
		</g>
		<g style="opacity:0.15;">
			<g>
				<polygon style="fill:#4074A8;" points="509.71,171.657 407.614,171.657 484.199,189.328 509.71,326.305 				"/>
			</g>
		</g>
		<g>
			<g>
				<rect x="407.614" y="170.114" style="fill:#4074A8;" width="102.096" height="8.805"/>
			</g>
		</g>
		<g style="opacity:0.46;">
			<g>
				<rect x="407.614" y="170.114" style="fill:#4074A8;" width="102.096" height="8.805"/>
			</g>
		</g>
		<g>
			<g>
				<g>
					<rect x="426.591" y="203.185" style="fill:#FFFFFF;" width="29.366" height="37.538"/>
				</g>
			</g>
			<g>
				<g>
					<rect x="428.124" y="205.042" style="fill:#C6E8F7;" width="26.301" height="33.691"/>
				</g>
			</g>
			<g style="opacity:0.51;">
				<g>
					<g>
						<polygon style="fill:#FFFFFF;" points="439.653,205.042 428.124,228.637 428.124,225.993 438.362,205.042 						"/>
					</g>
				</g>
				<g>
					<g>
						<polygon style="fill:#FFFFFF;" points="444.005,205.042 428.124,237.546 428.124,231.808 441.205,205.042 						"/>
					</g>
				</g>
				<g>
					<g>
						<polygon style="fill:#FFFFFF;" points="445.323,205.042 428.861,238.733 428.183,238.733 444.648,205.042 						"/>
					</g>
				</g>
			</g>
			<g style="opacity:0.51;">
				<g>
					<g>
						<polygon style="fill:#FFFFFF;" points="454.426,205.647 454.426,208.284 439.549,238.733 438.261,238.733 						"/>
					</g>
				</g>
				<g>
					<g>
						<polygon style="fill:#FFFFFF;" points="454.426,211.458 454.426,217.2 443.904,238.733 441.098,238.733 						"/>
					</g>
				</g>
				<g>
					<g>
						<polygon style="fill:#FFFFFF;" points="454.426,218.505 454.426,219.892 445.219,238.733 444.542,238.733 						"/>
					</g>
				</g>
			</g>
			<g>
				<g>
					<rect x="440.275" y="203.185" style="fill:#FFFFFF;" width="1.677" height="35.549"/>
				</g>
			</g>
		</g>
		<g>
			<g>
				<g>
					<rect x="470.488" y="203.185" style="fill:#FFFFFF;" width="29.366" height="37.538"/>
				</g>
			</g>
			<g>
				<g>
					<rect x="472.021" y="205.042" style="fill:#C6E8F7;" width="26.301" height="33.691"/>
				</g>
			</g>
			<g style="opacity:0.51;">
				<g>
					<g>
						<polygon style="fill:#FFFFFF;" points="483.55,205.042 472.021,228.637 472.021,225.993 482.259,205.042 						"/>
					</g>
				</g>
				<g>
					<g>
						<polygon style="fill:#FFFFFF;" points="487.902,205.042 472.021,237.546 472.021,231.808 485.102,205.042 						"/>
					</g>
				</g>
				<g>
					<g>
						<polygon style="fill:#FFFFFF;" points="489.22,205.042 472.757,238.733 472.08,238.733 488.545,205.042 						"/>
					</g>
				</g>
			</g>
			<g style="opacity:0.51;">
				<g>
					<g>
						<polygon style="fill:#FFFFFF;" points="498.323,205.647 498.323,208.284 483.446,238.733 482.158,238.733 						"/>
					</g>
				</g>
				<g>
					<g>
						<polygon style="fill:#FFFFFF;" points="498.323,211.458 498.323,217.2 487.801,238.733 484.995,238.733 						"/>
					</g>
				</g>
				<g>
					<g>
						<polygon style="fill:#FFFFFF;" points="498.323,218.505 498.323,219.892 489.116,238.733 488.439,238.733 						"/>
					</g>
				</g>
			</g>
			<g>
				<g>
					<rect x="484.172" y="203.185" style="fill:#FFFFFF;" width="1.677" height="35.549"/>
				</g>
			</g>
		</g>
		<g>
			<g>
				<g>
					<rect x="426.591" y="255.295" style="fill:#FFFFFF;" width="29.366" height="37.538"/>
				</g>
			</g>
			<g>
				<g>
					<rect x="428.124" y="257.151" style="fill:#C6E8F7;" width="26.301" height="33.691"/>
				</g>
			</g>
			<g style="opacity:0.51;">
				<g>
					<g>
						<polygon style="fill:#FFFFFF;" points="439.653,257.151 428.124,280.746 428.124,278.103 438.362,257.151 						"/>
					</g>
				</g>
				<g>
					<g>
						<polygon style="fill:#FFFFFF;" points="444.005,257.151 428.124,289.656 428.124,283.918 441.205,257.151 						"/>
					</g>
				</g>
				<g>
					<g>
						<polygon style="fill:#FFFFFF;" points="445.323,257.151 428.861,290.843 428.183,290.843 444.648,257.151 						"/>
					</g>
				</g>
			</g>
			<g style="opacity:0.51;">
				<g>
					<g>
						<polygon style="fill:#FFFFFF;" points="454.426,257.756 454.426,260.393 439.549,290.843 438.261,290.843 						"/>
					</g>
				</g>
				<g>
					<g>
						<polygon style="fill:#FFFFFF;" points="454.426,263.568 454.426,269.309 443.904,290.843 441.098,290.843 						"/>
					</g>
				</g>
				<g>
					<g>
						<polygon style="fill:#FFFFFF;" points="454.426,270.615 454.426,272.001 445.219,290.843 444.542,290.843 						"/>
					</g>
				</g>
			</g>
			<g>
				<g>
					<rect x="440.275" y="255.295" style="fill:#FFFFFF;" width="1.677" height="35.549"/>
				</g>
			</g>
		</g>
		<g>
			<g>
				<g>
					<rect x="470.488" y="255.295" style="fill:#FFFFFF;" width="29.366" height="37.538"/>
				</g>
			</g>
			<g>
				<g>
					<rect x="472.021" y="257.151" style="fill:#C6E8F7;" width="26.301" height="33.691"/>
				</g>
			</g>
			<g style="opacity:0.51;">
				<g>
					<g>
						<polygon style="fill:#FFFFFF;" points="483.55,257.151 472.021,280.746 472.021,278.103 482.259,257.151 						"/>
					</g>
				</g>
				<g>
					<g>
						<polygon style="fill:#FFFFFF;" points="487.902,257.151 472.021,289.656 472.021,283.918 485.102,257.151 						"/>
					</g>
				</g>
				<g>
					<g>
						<polygon style="fill:#FFFFFF;" points="489.22,257.151 472.757,290.843 472.08,290.843 488.545,257.151 						"/>
					</g>
				</g>
			</g>
			<g style="opacity:0.51;">
				<g>
					<g>
						<polygon style="fill:#FFFFFF;" points="498.323,257.756 498.323,260.393 483.446,290.843 482.158,290.843 						"/>
					</g>
				</g>
				<g>
					<g>
						<polygon style="fill:#FFFFFF;" points="498.323,263.568 498.323,269.309 487.801,290.843 484.995,290.843 						"/>
					</g>
				</g>
				<g>
					<g>
						<polygon style="fill:#FFFFFF;" points="498.323,270.615 498.323,272.001 489.116,290.843 488.439,290.843 						"/>
					</g>
				</g>
			</g>
			<g>
				<g>
					<rect x="484.172" y="255.295" style="fill:#FFFFFF;" width="1.677" height="35.549"/>
				</g>
			</g>
		</g>
		<g>
			<g>
				<rect x="153.599" y="50.856" style="fill:#46578A;" width="6.814" height="7.805"/>
			</g>
		</g>
		<g>
			<g>
				<rect x="248.935" y="50.856" style="fill:#46578A;" width="5.763" height="7.805"/>
			</g>
		</g>
		<g>
			<g>
				<rect x="345.033" y="50.856" style="fill:#46578A;" width="5.682" height="7.805"/>
			</g>
		</g>
		<g>
			<g>
				<rect x="72.33" y="75.275" style="fill:#C6E8F7;" width="72.231" height="131.342"/>
			</g>
		</g>
		<g>
			<g>
				<rect x="144.842" y="75.275" style="fill:#C6E8F7;" width="72.231" height="131.342"/>
			</g>
		</g>
		<g>
			<g>
				<rect x="217.073" y="75.275" style="fill:#C6E8F7;" width="72.221" height="131.342"/>
			</g>
		</g>
		<g>
			<g>
				<rect x="289.295" y="75.275" style="fill:#C6E8F7;" width="72.231" height="131.342"/>
			</g>
		</g>
		<g>
			<g>
				<rect x="361.525" y="75.275" style="fill:#C6E8F7;" width="72.221" height="131.342"/>
			</g>
		</g>
		<g style="opacity:0.33;">
			<g>
				<rect x="139.966" y="31.198" style="fill:#FC4B48;" width="221.557" height="19.658"/>
			</g>
		</g>
		<g>
			<g>
				<rect x="107.906" y="206.62" style="fill:#4074A8;" width="299.708" height="119.686"/>
			</g>
		</g>
		<g style="opacity:0.39;">
			<g>
				<polygon style="fill:#4074A8;" points="407.614,206.62 107.906,206.62 379.678,231.864 407.614,326.305 				"/>
			</g>
		</g>
		<g>
			<g>
				<rect x="130.556" y="231.864" style="fill:#FFFFFF;" width="103.814" height="94.441"/>
			</g>
		</g>
		<g>
			<g>
				<rect x="135.976" y="236.796" style="fill:#C6E8F7;" width="92.979" height="89.506"/>
			</g>
		</g>
		<g>
			<g>
				<rect x="550.002" y="129.79" style="fill:#C6E8F7;" width="40.286" height="98.256"/>
			</g>
		</g>
		<g>
			<g>
				<rect x="509.706" y="129.79" style="fill:#C6E8F7;" width="40.295" height="98.256"/>
			</g>
		</g>
		<g>
			<g>
				<rect x="590.287" y="129.79" style="fill:#C6E8F7;" width="40.295" height="98.256"/>
			</g>
		</g>
		<g>
			<g>
				<path style="fill:#5C85B7;" d="M591.231,228.902h-42.169v-99.967h42.169V228.902z M550.94,227.193h38.412v-96.549H550.94
					V227.193z"/>
			</g>
		</g>
		<g>
			<g>
				<path style="fill:#5C85B7;" d="M671.812,228.902h-42.169v-99.967h42.169V228.902z M631.521,227.193h38.412v-96.549h-38.412
					V227.193z"/>
			</g>
		</g>
		<g>
			<g>
				<rect x="94.755" y="206.62" style="fill:#75ABD8;" width="25.856" height="124.758"/>
			</g>
		</g>
		<g>
			<g>
				<rect x="244.832" y="206.62" style="fill:#75ABD8;" width="25.856" height="124.758"/>
			</g>
		</g>
		<g>
			<g>
				<rect x="394.908" y="206.62" style="fill:#75ABD8;" width="25.856" height="124.758"/>
			</g>
		</g>
		<g style="opacity:0.19;">
			<g>
				<path style="fill:#75ABD8;" d="M114.757,206.62c-3.109,34.334,7.506,68.652-2.62,102.149
					c-2.138,6.808-9.145,10.844-17.381,12.433v10.176h25.856V206.62H114.757z"/>
			</g>
		</g>
		<g style="opacity:0.19;">
			<g>
				<path style="fill:#75ABD8;" d="M263.063,206.62c-1.716,33.482,6.456,66.998-2.52,101.295
					c-2.213,7.382-7.912,12.639-15.711,14.564v8.899h25.856V206.62H263.063z"/>
			</g>
		</g>
		<g style="opacity:0.19;">
			<g>
				<path style="fill:#75ABD8;" d="M414.943,206.62c-2.635,29.016,1.409,58.697-0.358,87.623
					c-0.621,12.987-8.627,22.241-19.677,28.751v8.383h25.856V206.62H414.943z"/>
			</g>
		</g>
		<g style="opacity:0.55;">
			<g>
				<g>
					<polygon style="fill:#FFFFFF;" points="137.77,75.275 72.33,175.915 72.33,165.422 130.941,75.275 					"/>
				</g>
			</g>
			<g>
				<g>
					<polygon style="fill:#FFFFFF;" points="144.561,77.462 144.561,100.302 75.439,206.616 72.33,206.616 72.33,188.553 					"/>
				</g>
			</g>
			<g>
				<g>
					<polygon style="fill:#FFFFFF;" points="144.561,105.506 144.561,111.026 82.408,206.616 78.83,206.616 					"/>
				</g>
			</g>
		</g>
		<g style="opacity:0.55;">
			<g>
				<g>
					<polygon style="fill:#FFFFFF;" points="209.24,75.275 144.842,174.326 144.842,163.816 202.411,75.275 					"/>
				</g>
			</g>
			<g>
				<g>
					<polygon style="fill:#FFFFFF;" points="217.073,75.873 217.073,98.704 146.918,206.616 144.842,206.616 144.842,186.963 					
						"/>
				</g>
			</g>
			<g>
				<g>
					<polygon style="fill:#FFFFFF;" points="217.073,103.917 217.073,109.428 153.888,206.616 150.3,206.616 					"/>
				</g>
			</g>
		</g>
		<g style="opacity:0.55;">
			<g>
				<g>
					<polygon style="fill:#FFFFFF;" points="280.719,75.275 217.073,173.155 217.073,162.662 273.89,75.275 					"/>
				</g>
			</g>
			<g>
				<g>
					<polygon style="fill:#FFFFFF;" points="289.295,75.275 289.295,97.568 218.388,206.616 217.073,206.616 217.073,185.801 
						288.928,75.275 					"/>
				</g>
			</g>
			<g>
				<g>
					<polygon style="fill:#FFFFFF;" points="289.295,102.772 289.295,108.292 225.367,206.616 221.779,206.616 					"/>
				</g>
			</g>
		</g>
		<g style="opacity:0.55;">
			<g>
				<g>
					<polygon style="fill:#FFFFFF;" points="352.189,75.275 289.295,172.01 289.295,161.517 345.37,75.275 					"/>
				</g>
			</g>
			<g>
				<g>
					<polygon style="fill:#FFFFFF;" points="361.525,75.275 361.525,96.406 289.867,206.616 289.295,206.616 289.295,184.648 
						360.408,75.275 					"/>
				</g>
			</g>
			<g>
				<g>
					<polygon style="fill:#FFFFFF;" points="361.525,101.618 361.525,107.13 296.846,206.616 293.258,206.616 					"/>
				</g>
			</g>
		</g>
		<g style="opacity:0.55;">
			<g>
				<g>
					<polygon style="fill:#FFFFFF;" points="423.668,75.275 361.525,170.857 361.525,160.364 416.849,75.275 					"/>
				</g>
			</g>
			<g>
				<g>
					<polygon style="fill:#FFFFFF;" points="433.747,75.275 433.747,95.27 361.525,206.352 361.525,183.494 431.887,75.275 					"/>
				</g>
			</g>
			<g>
				<g>
					<polygon style="fill:#FFFFFF;" points="433.747,100.473 433.747,105.976 368.326,206.616 364.738,206.616 					"/>
				</g>
			</g>
		</g>
		<g>
			<g>
				<path style="fill:#5C85B7;" d="M434.69,207.474h-74.106V74.423h74.106V207.474z M362.463,205.765h70.349V76.132h-70.349V205.765
					z"/>
			</g>
		</g>
		<g>
			<g>
				<path style="fill:#5C85B7;" d="M145.5,207.471H71.391V74.421H145.5V207.471z M73.269,205.762h70.352V76.13H73.269V205.762z"/>
			</g>
		</g>
		<g>
			<g>
				<path style="fill:#5C85B7;" d="M218.008,207.474h-74.106V74.423h74.106V207.474z M145.781,205.765h70.349V76.132h-70.349
					V205.765z"/>
			</g>
		</g>
		<g>
			<g>
				<path style="fill:#5C85B7;" d="M290.235,207.474H216.13V74.423h74.106V207.474z M218.008,205.765h70.349V76.132h-70.349V205.765
					z"/>
			</g>
		</g>
		<g>
			<g>
				<path style="fill:#5C85B7;" d="M362.463,207.474h-74.106V74.423h74.106V207.474z M290.235,205.765h70.349V76.132h-70.349
					V205.765z"/>
			</g>
		</g>
		<g>
			<g>
				<rect x="72.333" y="156.514" style="fill:#5C85B7;" width="361.418" height="5.674"/>
			</g>
		</g>
		<g>
			<g>
				<rect x="56.942" y="58.66" style="fill:#5C85B7;" width="389.746" height="27.323"/>
			</g>
		</g>
		<g style="opacity:0.42;">
			<g>
				<rect x="56.942" y="77.462" style="fill:#5C85B7;" width="389.746" height="8.521"/>
			</g>
		</g>
		<g style="opacity:0.32;">
			<g>
				<polygon style="fill:#5C85B7;" points="432.811,85.983 73.269,85.983 73.269,90.65 432.811,112.854 				"/>
			</g>
		</g>
		<g>
			<g>
				<rect x="66.064" y="194.893" style="fill:#5C85B7;" width="377.659" height="13.829"/>
			</g>
		</g>
		<g style="opacity:0.42;">
			<g>
				<rect x="66.064" y="201.807" style="fill:#5C85B7;" width="377.659" height="6.915"/>
			</g>
		</g>
		<g style="opacity:0.51;">
			<g>
				<g>
					<polygon style="fill:#FFFFFF;" points="176.731,236.796 135.976,299.481 135.976,292.457 172.166,236.796 					"/>
				</g>
			</g>
			<g>
				<g>
					<polygon style="fill:#FFFFFF;" points="192.117,236.796 135.976,323.15 135.976,307.906 182.216,236.796 					"/>
				</g>
			</g>
			<g>
				<g>
					<polygon style="fill:#FFFFFF;" points="196.775,236.796 138.577,326.303 136.182,326.303 194.39,236.796 					"/>
				</g>
			</g>
		</g>
		<g style="opacity:0.51;">
			<g>
				<g>
					<polygon style="fill:#FFFFFF;" points="228.955,238.403 228.955,245.41 176.365,326.303 171.809,326.303 					"/>
				</g>
			</g>
			<g>
				<g>
					<polygon style="fill:#FFFFFF;" points="228.955,253.843 228.955,269.096 191.76,326.303 181.841,326.303 					"/>
				</g>
			</g>
			<g>
				<g>
					<polygon style="fill:#FFFFFF;" points="228.955,272.565 228.955,276.248 196.409,326.303 194.014,326.303 					"/>
				</g>
			</g>
		</g>
		<g>
			<g>
				<rect x="178.929" y="231.864" style="fill:#FFFFFF;" width="5.93" height="94.441"/>
			</g>
		</g>
		<g>
			<g>
				<rect x="425.048" y="240.723" style="fill:#FFFFFF;" width="33.139" height="3.105"/>
			</g>
		</g>
		<g>
			<g>
				<rect x="468.602" y="240.723" style="fill:#FFFFFF;" width="33.139" height="3.105"/>
			</g>
		</g>
		<g>
			<g>
				<rect x="425.048" y="292.833" style="fill:#FFFFFF;" width="33.139" height="3.105"/>
			</g>
		</g>
		<g>
			<g>
				<rect x="468.602" y="292.833" style="fill:#FFFFFF;" width="33.139" height="3.105"/>
			</g>
		</g>
		<g style="opacity:0.55;">
			<g>
				<g>
					<polygon style="fill:#FFFFFF;" points="550.002,129.79 550.002,133.892 509.706,195.876 509.706,186.673 546.695,129.79 					
						"/>
				</g>
			</g>
			<g>
				<g>
					<polygon style="fill:#FFFFFF;" points="550.002,144.974 550.002,165.012 509.706,226.987 509.706,206.95 					"/>
				</g>
			</g>
			<g>
				<g>
					<polygon style="fill:#FFFFFF;" points="550.002,169.575 550.002,174.403 515.126,228.047 511.989,228.047 					"/>
				</g>
			</g>
		</g>
		<g style="opacity:0.55;">
			<g>
				<g>
					<polygon style="fill:#FFFFFF;" points="590.287,133.251 590.287,142.437 550.002,204.403 550.002,195.209 					"/>
				</g>
			</g>
			<g>
				<g>
					<polygon style="fill:#FFFFFF;" points="590.287,153.519 590.287,173.557 554.858,228.047 550.002,228.047 550.002,215.477 
											"/>
				</g>
			</g>
			<g>
				<g>
					<polygon style="fill:#FFFFFF;" points="590.287,178.12 590.287,182.947 560.972,228.047 557.826,228.047 					"/>
				</g>
			</g>
		</g>
		<g style="opacity:0.55;">
			<g>
				<g>
					<polygon style="fill:#FFFFFF;" points="630.583,141.018 630.583,150.221 590.287,212.196 590.287,203.002 					"/>
				</g>
			</g>
			<g>
				<g>
					<polygon style="fill:#FFFFFF;" points="630.583,161.295 630.583,181.324 600.206,228.047 590.287,228.047 590.287,223.27 					
						"/>
				</g>
			</g>
			<g>
				<g>
					<polygon style="fill:#FFFFFF;" points="630.583,185.887 630.583,190.714 606.312,228.047 603.174,228.047 					"/>
				</g>
			</g>
		</g>
		<g>
			<g>
				<path style="fill:#5C85B7;" d="M550.94,228.902H508.77v-99.967h42.169V228.902z M510.649,227.193h38.412v-96.549h-38.412
					V227.193z"/>
			</g>
		</g>
		<g>
			<g>
				<path style="fill:#5C85B7;" d="M631.521,228.902h-42.169v-99.967h42.169V228.902z M591.231,227.193h38.411v-96.549h-38.411
					V227.193z"/>
			</g>
		</g>
		<g>
			<g>
				<rect x="509.71" y="225.096" style="fill:#4074A8;" width="161.163" height="101.209"/>
			</g>
		</g>
		<g style="opacity:0.39;">
			<g>
				<polygon style="fill:#4074A8;" points="649.175,245.269 647.717,326.303 535.653,326.303 535.653,251.379 509.71,225.096 
					670.873,225.096 				"/>
			</g>
		</g>
		<g>
			<g>
				<rect x="542.903" y="234.14" style="fill:#518CBC;" width="97.564" height="92.165"/>
			</g>
		</g>
		<g>
			<g>
				<rect x="540.469" y="234.14" style="fill:#FFFFFF;" width="102.433" height="6.583"/>
			</g>
		</g>
		<g style="opacity:0.2;">
			<g>
				<polygon style="fill:#518CBC;" points="642.901,234.14 540.469,234.14 540.469,236.276 642.901,238.412 				"/>
			</g>
		</g>
		<g>
			<g>
				<g>
					<rect x="565.985" y="261.389" style="fill:#FFFFFF;" width="53.57" height="64.914"/>
				</g>
			</g>
			<g>
				<g>
					<rect x="568.782" y="264.78" style="fill:#C6E8F7;" width="47.979" height="61.524"/>
				</g>
			</g>
			<g style="opacity:0.51;">
				<g>
					<g>
						<polygon style="fill:#FFFFFF;" points="589.813,264.78 568.782,307.867 568.782,303.039 587.457,264.78 						"/>
					</g>
				</g>
				<g>
					<g>
						<polygon style="fill:#FFFFFF;" points="597.752,264.78 568.782,324.136 568.782,313.658 592.643,264.78 						"/>
					</g>
				</g>
				<g>
					<g>
						<polygon style="fill:#FFFFFF;" points="600.156,264.78 570.124,326.304 568.888,326.304 598.925,264.78 						"/>
					</g>
				</g>
			</g>
			<g style="opacity:0.51;">
				<g>
					<g>
						<polygon style="fill:#FFFFFF;" points="616.761,265.884 616.761,270.7 589.623,326.304 587.273,326.304 						"/>
					</g>
				</g>
				<g>
					<g>
						<polygon style="fill:#FFFFFF;" points="616.761,276.497 616.761,286.981 597.568,326.304 592.449,326.304 						"/>
					</g>
				</g>
				<g>
					<g>
						<polygon style="fill:#FFFFFF;" points="616.761,289.366 616.761,291.897 599.967,326.304 598.731,326.304 						"/>
					</g>
				</g>
			</g>
			<g>
				<g>
					<rect x="590.947" y="261.389" style="fill:#FFFFFF;" width="3.06" height="64.916"/>
				</g>
			</g>
		</g>
		<g>
			<g>
				<rect x="503.904" y="127.212" style="fill:#5C85B7;" width="174.937" height="18.338"/>
			</g>
		</g>
		<g style="opacity:0.46;">
			<g>
				<rect x="503.904" y="140.813" style="fill:#4074A8;" width="174.937" height="4.736"/>
			</g>
		</g>
		<g style="opacity:0.3;">
			<g>
				<path style="fill:#4074A8;" d="M669.988,145.549H509.706c59.075,7.97,103.025,13.797,160.251,18.72L669.988,145.549z"/>
			</g>
		</g>
		<g>
			<g>
				<rect x="507.728" y="223.863" style="fill:#4074A8;" width="165.286" height="5.039"/>
			</g>
		</g>
		<g>
			<g>
				<rect x="535.653" y="221.954" style="fill:#FFFFFF;" width="112.065" height="13.454"/>
			</g>
		</g>
	</g>
	<g>
		<g>
			<g>
				<g>
					<path style="fill:#FDA888;" d="M309.568,353.195c0,0-5.377,3.962-6.226,6.226c-0.849,2.264,4.811,7.264,8.774,4.623
						c3.962-2.642,7.547-5.849,7.547-5.849L309.568,353.195z"/>
				</g>
			</g>
			<g>
				<g>
					<path style="fill:#FFFFFF;" d="M328.14,355.992l-4.117,3.01l-2.886,2.115l-13.982-6.991l2.102-2.264l19.567-21.035
						C349.56,332.694,328.14,355.992,328.14,355.992z"/>
				</g>
			</g>
			<g>
				<g>
					<path style="fill:#C6E8F7;" d="M324.023,359.003l-2.886,2.115l-13.982-6.991l2.102-2.264c0.224,0.249,0.46,0.473,0.721,0.672
						c0.585,0.485,1.207,0.883,1.853,1.269c3.247,1.94,6.754,3.446,10.387,4.466C322.841,358.455,323.5,358.617,324.023,359.003z"/>
				</g>
			</g>
			<g>
				<g>
					<path style="fill:#A6414C;" d="M360.451,299.372c0.517,1.697-0.088,3.596-1.536,4.778c0.114,0.797,0.572,4.612-1.99,8.004
						c-3.53,4.674-9.503,4.183-9.858,4.148c-1.884,1.854-4.561,2.344-6.567,1.293c-1.819-0.953-2.412-2.82-2.539-3.259
						c-1.705,1.919-4.683,2.011-6.459,0.289c-1.811-1.757-1.764-4.815,0.193-6.555c-1.009,0.239-2.046-0.073-2.692-0.81
						c-0.583-0.666-0.946-1.791-0.465-2.608c0.565-0.96,2.211-1.347,3.639-0.438c-2.122-1.187-2.748-3.923-1.511-5.794
						c1.266-1.916,4.124-2.381,6.039-0.788c-0.607-2.831,0.899-5.508,3.175-6.259c1.636-0.54,3.523-0.035,4.916,1.229
						c0.445-0.697,1.307-1.82,2.762-2.584c2.508-1.317,6.413-1.373,8.577,1.138c1.766,2.049,1.443,4.73,1.361,5.303
						C357.684,296.518,359.796,297.223,360.451,299.372z"/>
				</g>
			</g>
			<g>
				<g>
					<path style="fill:#FDA888;" d="M371.031,351.417l7.299,6.667c0,0,32.463,18.569,32.943,19.152s6.301,4.833,6.596,5.934
						c0.295,1.101-4.542,6.061-6.992,5.756c-2.45-0.305-4.527-8.615-4.527-8.615s-30.566-12.595-31.53-13.267
						c-0.964-0.672-8.062-5.583-8.062-5.583L371.031,351.417z"/>
				</g>
			</g>
			<g>
				<g>
					<path style="fill:#FFFFFF;" d="M389.403,360.881l-11.854,5.361c-0.286-0.485-0.56-0.97-0.821-1.443
						c-0.386-0.697-0.746-1.393-1.082-2.077c-2.662-5.336-4.018-10.038-4.764-13.484c-1.244-5.747-3.309-15.201,1.169-18.646
						c0.099-0.075,2.127-1.592,4.54-1.157c1.294,0.224,6.22,0.697,7.687,11.12c0.348,2.475,3.035,12.589,4.366,17.539
						c0.099,0.386,0.199,0.746,0.286,1.07C389.229,360.234,389.403,360.881,389.403,360.881z"/>
				</g>
			</g>
			<g style="opacity:0.77;">
				<g>
					<path d="M372.05,330.592c-4.478,3.446-2.413,12.899-1.169,18.646c0.746,3.446,2.102,8.148,4.764,13.484
						c0.336,0.684,0.697,1.381,1.082,2.077c0.261,0.473,0.535,0.958,0.821,1.443l7.818-3.536
						c-6.578-9.187-6.77-22.233-10.482-33.286C373.288,329.666,372.125,330.536,372.05,330.592z"/>
				</g>
			</g>
			<g>
				<g>
					<path style="fill:#546494;" d="M389.403,360.881l-11.854,5.361c-0.286-0.485-0.56-0.97-0.821-1.443
						c-0.386-0.697-0.746-1.393-1.082-2.077c0.51-0.373,1.231-0.572,1.878-0.746c3.632-1.007,6.842-3.01,10.523-3.844
						c0.199-0.037,0.41-0.075,0.597-0.037c0.099,0.386,0.199,0.746,0.286,1.07C389.229,360.234,389.403,360.881,389.403,360.881z"/>
				</g>
			</g>
			<g>
				<g>
					<path style="fill:#FDA888;" d="M359.978,492.944l1.09-4.614l6.902,2.543l-1.938,5.57c0,0,0.207,0.382,0.544,1.015
						c-2.456-1.212-4.981-2.546-6.93-4.394C359.759,493.025,359.862,492.98,359.978,492.944z"/>
				</g>
			</g>
			<g>
				<g>
					<path style="fill:#FDA888;" d="M330.675,496.322h6.781v6.176c0,0,0.41,0.158,1.083,0.422c-2.605,0.44-5.578,0.624-8.11-0.052
						c0.001-0.002,0.002-0.005,0.004-0.007L330.675,496.322z"/>
				</g>
			</g>
			<g>
				<g>
					<path style="fill:#FDA888;" d="M345.504,312.146l1.552,16.882c0,0,4.388,5.653,8.404,5.349
						c4.015-0.304,6.732-5.737,6.732-5.737l-6.732-18.822L345.504,312.146z"/>
				</g>
			</g>
			<g>
				<g>
					<path style="fill:#F77B54;" d="M357.313,315l-1.854-5.183l-9.956,2.329l0.858,9.328
						C350.65,321.147,354.568,318.469,357.313,315z"/>
				</g>
			</g>
			<g>
				<g>
					<circle style="fill:#FDA888;" cx="348.712" cy="306.553" r="11.061"/>
				</g>
			</g>
			<g>
				<g>
					<path style="fill:#546494;" d="M371.776,393.373c0,0,15.489,46.053,15.489,48.092s-18.07,51.456-18.07,51.456
						s-7.939,0.19-10.52-2.023l11.532-50.215l-27.777-47.31H371.776z"/>
				</g>
			</g>
			<g>
				<g>
					<path style="fill:#546494;" d="M353.794,391.133l-7.771,57.943l-7.913,48.867c0,0-5.468,1.951-8.346,0v-51.161v-55.649H353.794
						z"/>
				</g>
			</g>
			<g>
				<g>
					<path style="fill:#FC4B48;" d="M353.789,498.808l15.76,15.922c0,0,3.383-1.455,3.508-3.272
						c0.037-0.609-0.746-2.513-1.791-4.764c-1.368-2.923-3.197-6.431-4.292-8.496c-0.149-0.274-0.286-0.522-0.398-0.746
						c-2.451-1.206-4.976-2.537-6.929-4.391C354.859,494.728,353.789,498.808,353.789,498.808z"/>
				</g>
			</g>
			<g>
				<g>
					<path style="fill:#FC4B48;" d="M329.769,512.429l21.98,0.485c0,0,1.082-2.662,0-3.993c-0.298-0.373-1.555-1.033-3.197-1.804
						c-2.737-1.281-6.555-2.824-8.919-3.757c-0.411-0.174-0.784-0.311-1.095-0.435c-2.6,0.435-5.573,0.622-8.11-0.062
						C326.435,510.364,329.769,512.429,329.769,512.429z"/>
				</g>
			</g>
			<g>
				<g>
					<g>
						<path style="fill:#C6E8F7;" d="M365.059,501.478c0.153,0,0.306-0.056,0.425-0.168c0.855-0.802,2.385-0.601,2.399-0.6
							c0.353,0.041,0.655-0.19,0.702-0.529c0.049-0.34-0.186-0.654-0.526-0.702c-0.086-0.013-2.13-0.293-3.426,0.923
							c-0.251,0.235-0.264,0.629-0.028,0.879C364.727,501.412,364.893,501.478,365.059,501.478z"/>
					</g>
				</g>
			</g>
			<g>
				<g>
					<g>
						<path style="fill:#C6E8F7;" d="M366.187,504.518c0.23,0,0.451-0.128,0.559-0.349c0.543-1.108,2.493-0.703,2.513-0.698
							c0.33,0.075,0.666-0.139,0.74-0.475c0.073-0.335-0.138-0.666-0.473-0.74c-0.121-0.024-2.928-0.618-3.898,1.367
							c-0.151,0.309-0.023,0.681,0.285,0.832C366.001,504.498,366.095,504.518,366.187,504.518z"/>
					</g>
				</g>
			</g>
			<g>
				<g>
					<g>
						<path style="fill:#C6E8F7;" d="M339.205,507.284c0.301,0,0.566-0.22,0.613-0.528c0.09-0.583,1.218-1.65,1.952-2.188
							c0.278-0.203,0.338-0.592,0.135-0.869c-0.204-0.277-0.594-0.337-0.868-0.134c-0.374,0.273-2.249,1.704-2.448,3.004
							c-0.052,0.34,0.181,0.657,0.52,0.709C339.142,507.282,339.173,507.284,339.205,507.284z"/>
					</g>
				</g>
			</g>
			<g>
				<g>
					<g>
						<path style="fill:#C6E8F7;" d="M341.404,508.907c0.103,0,0.206-0.026,0.302-0.078c0.3-0.168,0.408-0.546,0.241-0.846
							c-0.164-0.295,0.723-1.533,1.99-2.559c0.267-0.216,0.309-0.608,0.092-0.875c-0.216-0.268-0.609-0.306-0.875-0.092
							c-0.743,0.602-3.104,2.677-2.293,4.131C340.974,508.793,341.186,508.907,341.404,508.907z"/>
					</g>
				</g>
			</g>
			<g>
				<g>
					<path style="fill:#FFFFFF;" d="M376.591,401.681c-16.32,7.712-48.873,0-48.873,0s0.398-69.684,1.107-70.853
						c0.448-0.746,7.551-3.135,12.651-4.764c1.231-0.398,2.338-0.746,3.209-1.02c1.207-0.373,1.953-0.597,1.953-0.597
						c2.637,3.247,5.038,4.416,7.053,4.503c0.286,0.012,0.572,0.012,0.833-0.025c3.831-0.373,6.17-4.478,6.17-4.478
						s0.821,0.211,2.077,0.547c0.809,0.211,1.804,0.485,2.898,0.771l0.05,0.013c4.068,1.119,9.354,2.699,10.872,3.657
						C379.153,331.064,376.591,401.681,376.591,401.681z"/>
				</g>
			</g>
			<g>
				<g>
					<g>
						<path style="fill:#FDA888;" d="M340.224,335.125c-1.232,7.768-3.87,14.051-5.894,14.034
							c-2.024-0.017-2.666-6.328-1.435-14.096c1.231-7.768,3.87-14.051,5.894-14.034
							C340.813,321.046,341.455,327.358,340.224,335.125z"/>
					</g>
				</g>
				<g>
					<g>
						<path style="fill:#FC4B48;" d="M338.949,326.801c0.129-0.121,0.267-0.233,0.425-0.317c0.863-0.458,0.589,0.232,0.262,0.711
							c-0.662,0.968-1.558,1.809-2.441,2.636c-0.611,0.574-1.159,1.497-2.084,1.613c-0.1,0.012-0.203,0.013-0.28-0.029
							c-0.129-0.072-0.135-0.25-0.061-0.396c0.318-0.628,1.257-1.306,1.778-1.826c0.739-0.737,1.476-1.476,2.217-2.213
							C338.826,326.92,338.887,326.86,338.949,326.801z"/>
					</g>
				</g>
				<g>
					<g>
						<path style="fill:#C6E8F7;" d="M337.512,338.993c0.13-0.121,0.267-0.233,0.425-0.317c0.863-0.458,0.589,0.232,0.262,0.71
							c-0.662,0.968-1.558,1.809-2.441,2.636c-0.611,0.574-1.159,1.497-2.084,1.613c-0.1,0.012-0.203,0.013-0.28-0.029
							c-0.129-0.072-0.135-0.25-0.061-0.396c0.318-0.628,1.257-1.306,1.778-1.826c0.739-0.737,1.476-1.476,2.217-2.212
							C337.389,339.112,337.45,339.052,337.512,338.993z"/>
					</g>
				</g>
				<g>
					<g>
						<path style="fill:#FC4B48;" d="M338.575,330.718c0.143-0.141,0.298-0.273,0.48-0.372c1.001-0.543,0.759,0.256,0.421,0.813
							c-0.683,1.126-1.672,2.111-2.646,3.079c-0.675,0.671-1.223,1.745-2.348,1.894c-0.121,0.016-0.249,0.019-0.349-0.029
							c-0.169-0.081-0.202-0.285-0.13-0.455c0.305-0.728,1.37-1.527,1.941-2.134c0.81-0.862,1.617-1.726,2.428-2.587
							C338.439,330.857,338.505,330.786,338.575,330.718z"/>
					</g>
				</g>
				<g>
					<g>
						<path style="fill:#FC4B48;" d="M338.189,334.573c0.143-0.141,0.298-0.273,0.48-0.373c1.001-0.543,0.759,0.256,0.421,0.814
							c-0.683,1.126-1.672,2.111-2.646,3.079c-0.675,0.671-1.223,1.745-2.348,1.894c-0.121,0.016-0.249,0.019-0.349-0.029
							c-0.169-0.08-0.202-0.285-0.13-0.455c0.305-0.728,1.37-1.527,1.941-2.134c0.81-0.862,1.617-1.726,2.428-2.587
							C338.053,334.712,338.12,334.641,338.189,334.573z"/>
					</g>
				</g>
			</g>
			<g>
				<g>
					<g>
						
							<rect x="324.54" y="333.29" transform="matrix(0.9968 -0.0793 0.0793 0.9968 -26.1204 27.1345)" style="fill:#C6E8F7;" width="7.673" height="17.905"/>
					</g>
				</g>
				<g>
					<g>
						
							<rect x="332.195" y="332.847" transform="matrix(-0.9968 0.0793 -0.0793 -0.9968 693.9551 656.0239)" style="fill:#546494;" width="3.497" height="17.905"/>
					</g>
				</g>
				<g>
					<g>
						<polygon style="fill:#546494;" points="323.841,333.623 326.567,330.77 333.025,330.256 334.976,332.737 						"/>
					</g>
				</g>
				<g>
					<g>
						
							<rect x="326.46" y="328.099" transform="matrix(0.9968 -0.0793 0.0793 0.9968 -25.0882 27.1967)" style="fill:#C6E8F7;" width="6.478" height="2.417"/>
					</g>
				</g>
			</g>
			<g>
				<g>
					<path style="fill:#FC4B48;" d="M338.123,350.703c0,0,1.4-5.443,1.089-7.309c-0.311-1.866-2.333,0.778-3.577,0
						c-1.244-0.778-2.333-5.678,0-5.872c2.333-0.194,3.577-0.771,4.354-1.96s2.955-2.232,4.043,0
						c1.089,2.232,3.11-0.091,4.977,1.304c1.866,1.395,3.732,4.227,2.644,5.611c-1.089,1.383-2.644,1.817-2.955,2.067
						c-0.311,0.25,0.933,2.893-0.933,2.504c-1.866-0.389-4.646-3.343-4.646-3.343s-2.042,1.899-1.886,4.449
						c0.155,2.549,1.089,3.949,1.089,3.949S340.145,353.346,338.123,350.703z"/>
				</g>
			</g>
			<g>
				<g>
					<g>
						<path style="fill:#6F94CB;" d="M349.443,360.158l-7.44-3.76l9.397-18.595c0.522-1.033,1.782-1.447,2.815-0.925l3.7,1.87
							c1.033,0.522,1.447,1.782,0.925,2.815L349.443,360.158z"/>
					</g>
				</g>
				<g>
					<g>
						
							<rect x="354.496" y="333.59" transform="matrix(0.8925 0.451 -0.451 0.8925 190.2799 -124.5872)" style="fill:#6F94CB;" width="4.05" height="6.638"/>
					</g>
				</g>
				<g>
					<g>
						<path style="fill:#FC4B48;" d="M359.691,337.019l-5.139-2.597l1.103-2.182c0.212-0.419,0.723-0.587,1.142-0.375l3.622,1.83
							c0.419,0.212,0.587,0.723,0.375,1.142L359.691,337.019z"/>
					</g>
				</g>
			</g>
			<g>
				<g>
					<path style="fill:#546494;" d="M362.771,324.994c-0.572,1.02-1.207,1.99-1.965,2.873c-1.169,1.368-2.712,2.5-4.478,2.849
						c-0.983,0.187-1.99,0.137-2.973,0c-1.269-0.187-2.513-0.547-3.669-1.07c-2.015-0.92-3.844-2.376-4.876-4.366
						c-0.037-0.075-0.087-0.149-0.124-0.236c1.207-0.373,1.953-0.597,1.953-0.597c2.637,3.247,5.038,4.416,7.053,4.503
						c0.286,0.012,0.572,0.012,0.833-0.025c3.831-0.373,6.17-4.478,6.17-4.478S361.514,324.658,362.771,324.994z"/>
				</g>
			</g>
			<g>
				<g>
					<g>
						<path style="fill:#FDA888;" d="M341.638,310.125c1.005,1.615,0.511,3.739-1.104,4.744c-1.615,1.005-3.739,0.511-4.744-1.103
							c-1.005-1.615-0.511-3.739,1.103-4.744C338.508,308.017,340.632,308.511,341.638,310.125z"/>
					</g>
				</g>
				<g>
					<g>
						<g>
							<g>
								<path style="fill:#333333;" d="M354.209,305.189c0.139,0.259,0.365,0.506,0.625,0.483c0.185-0.017,0.341-0.174,0.419-0.365
									c0.078-0.191,0.089-0.413,0.075-0.626c-0.017-0.267-0.074-0.539-0.204-0.764c-0.13-0.225-0.344-0.399-0.576-0.416
									C353.664,303.435,353.927,304.664,354.209,305.189z"/>
							</g>
						</g>
					</g>
					<g>
						<g>
							<path style="fill:#A6414C;" d="M350.737,306.715c-0.023-0.096,1.635-0.99,2.236-0.381c0.649,0.658-0.542,2.453-0.618,2.426
								c-0.066-0.023,0.661-1.387,0.143-1.951C352.013,306.283,350.756,306.797,350.737,306.715z"/>
						</g>
					</g>
					<g>
						<g>
							<g>
								<path style="fill:#A6414C;" d="M345.295,303.026c0.197-0.11,0.448-0.196,0.639-0.077c0.22,0.138,0.221,0.459,0.153,0.71
									c-0.158,0.587-0.556,1.107-1.082,1.412c-0.165,0.096-0.346,0.173-0.537,0.179c-0.19,0.007-0.391-0.067-0.502-0.222
									C343.511,304.39,344.839,303.281,345.295,303.026z"/>
							</g>
						</g>
					</g>
					<g>
						<g>
							<g>
								<path style="fill:#A6414C;" d="M353.71,300.93c-0.225-0.015-0.489,0.015-0.61,0.205c-0.14,0.219-0.003,0.509,0.166,0.707
									c0.395,0.463,0.977,0.761,1.583,0.811c0.19,0.016,0.387,0.007,0.562-0.069c0.175-0.076,0.325-0.228,0.358-0.416
									C355.907,301.396,354.232,300.965,353.71,300.93z"/>
							</g>
						</g>
					</g>
					<g>
						<g>
							<g>
								<path style="fill:#FFFFFF;" d="M354.031,313.313c-1.49,1.008-3.285,0.719-3.362,0.706c-1.384-0.243-2.58-1.2-2.303-1.747
									c0.232-0.459,1.31-0.257,3.686-0.868c2.189-0.563,2.919-1.157,3.322-0.893C355.914,310.864,355.348,312.422,354.031,313.313
									z"/>
							</g>
						</g>
					</g>
					<g>
						<g>
							<path style="fill:#FFFFFF;" d="M354.661,303.784c-0.16,0.015-0.272,0.178-0.247,0.335c0.023,0.146,0.163,0.268,0.318,0.245
								c0.158-0.024,0.255-0.188,0.23-0.336C354.938,303.887,354.807,303.77,354.661,303.784z"/>
						</g>
					</g>
					<g>
						<g>
							<g>
								<path style="fill:#333333;" d="M346.247,307.253c0.148,0.254,0.382,0.493,0.641,0.461c0.184-0.023,0.335-0.185,0.406-0.379
									c0.072-0.194,0.075-0.415,0.053-0.628c-0.027-0.267-0.092-0.536-0.23-0.757c-0.138-0.221-0.357-0.387-0.59-0.396
									C345.642,305.519,345.948,306.739,346.247,307.253z"/>
							</g>
						</g>
					</g>
					<g>
						<g>
							<path style="fill:#FFFFFF;" d="M346.65,305.833c-0.159,0.02-0.265,0.188-0.235,0.343c0.028,0.146,0.172,0.263,0.326,0.234
								c0.157-0.029,0.249-0.197,0.218-0.344C346.93,305.927,346.796,305.815,346.65,305.833z"/>
						</g>
					</g>
					<g style="opacity:0.29;">
						<g>
							<path style="fill:#A6414C;" d="M345.433,309.156c-0.054-0.396,1.235-0.874,1.915-1.059c0.355-0.096,1.55-0.421,1.714-0.101
								c0.164,0.32-0.687,1.318-1.764,1.563C346.463,309.748,345.479,309.487,345.433,309.156z"/>
						</g>
					</g>
					<g style="opacity:0.29;">
						<g>
							<path style="fill:#A6414C;" d="M354.204,306.585c0.022-0.274,0.749-0.421,1.411-0.555c0.662-0.134,1.445-0.292,1.563-0.05
								c0.137,0.282-0.604,1.17-1.512,1.26C354.946,307.312,354.181,306.875,354.204,306.585z"/>
						</g>
					</g>
				</g>
				<g style="opacity:0.29;">
					<g>
						<path style="fill:#A6414C;" d="M337.29,313.187c-0.11,0-0.216-0.058-0.273-0.161c-0.083-0.149-0.029-0.339,0.122-0.422
							c0.067-0.036,1.648-0.893,2.697-0.651c0.167,0.039,0.271,0.205,0.233,0.373c-0.039,0.166-0.205,0.278-0.374,0.232
							c-0.68-0.153-1.86,0.373-2.256,0.59C337.392,313.175,337.341,313.187,337.29,313.187z"/>
					</g>
				</g>
			</g>
			<g>
				<g>
					<path style="fill:#A6414C;" d="M340.094,309.884c0.685-0.905,0.263-2.211-0.182-3.263c-0.283-0.666-0.565-1.331-0.847-1.997
						c2.378,0.065,4.436-2.581,3.854-4.956c0.91,0.809,2.293,1.002,3.379,0.472c1.086-0.531,1.816-1.755,1.783-2.992
						c0.369,0.487,1.089,1.297,2.241,1.832c0.534,0.248,2.698,1.252,4.218,0.121c1.6-1.19,1.698-4.157,0.469-5.549
						c-1.023-1.158-2.731-0.959-5.033-0.655c0,0-6.932,0.539-13.134,7.101c-0.647,0.685-1.25,1.448-1.557,2.35
						c-0.31,0.913-0.288,1.895-0.094,2.831c0.178,0.86,0.562,1.654,0.72,2.517c0.089,0.484,0.096,1.003,0.333,1.443
						c0.324,0.6,1.011,1.086,1.632,1.293C338.628,310.682,339.582,310.559,340.094,309.884z"/>
				</g>
			</g>
			<g>
				<g>
					<g>
						<polygon style="fill:#5C85B7;" points="347.687,395.077 310.226,388 321.983,339.476 354.444,345.609 						"/>
					</g>
				</g>
				<g>
					<g>
						<polygon style="fill:#546494;" points="354.444,345.609 358.108,346.301 357.69,390.224 347.687,395.077 						"/>
					</g>
				</g>
				<g>
					<g>
						<polygon style="fill:#5C85B7;" points="347.687,395.077 352.877,384.803 357.69,390.224 						"/>
					</g>
				</g>
				<g>
					<g>
						
							<rect x="334.494" y="365.469" transform="matrix(0.0885 -0.9961 0.9961 0.0885 -41.3462 686.6872)" style="fill:#5C85B7;" width="40.104" height="0.933"/>
					</g>
				</g>
			</g>
			<g>
				<g>
					<path style="fill:#FDA888;" d="M303.342,359.422c0,0-2.83,3.208,0,5.755c2.83,2.547,35.849,8.679,35.849,8.679
						s7.83,2.924,9.623,2.924c1.792,0,4.811,2.83,5.377,2.453c0.566-0.377,0.485-0.866,0.325-1.106
						c-0.16-0.24-4.95-3.114-4.791-3.433c0.16-0.319,7.625,2.076,7.785,1.797c0.16-0.28,0.838-1.158,0.359-1.437
						c-0.479-0.28-7.266-1.916-7.266-2.276c0-0.359,8.783-0.279,8.783-0.519c0-0.24,0.519-1.198,0-1.277
						c-0.519-0.08-8.823-0.559-9.022-0.838c-0.2-0.28,8.024-2.395,8.024-2.675c0-0.279,0.12-0.878-0.399-0.958
						c-0.519-0.08-9.821,1.517-10.06,1.238c-0.24-0.28,3.633-2.835,3.513-3.353c-0.12-0.519-0.918-1.158-1.717-0.799
						c-0.799,0.359-6.188,3.513-6.547,3.553c-0.359,0.04-3.553,2.196-3.553,2.196l-27.067-10.58
						C312.559,358.765,306.062,355.807,303.342,359.422z"/>
				</g>
			</g>
			<g>
				<g>
					<g>
						<path style="fill:#FC4B48;" d="M408.986,398.572l-1.237,0.133c-0.062-0.587-1.464-14.389,5.027-17.263
							c0.009-0.004,0.017-0.007,0.027-0.012c6.588-2.879,13.902,8.368,14.21,8.849l-1.047,0.671
							c-0.069-0.109-7.044-10.836-12.665-8.38c-0.008,0.004-0.014,0.006-0.021,0.009
							C407.614,385.088,408.972,398.438,408.986,398.572z"/>
					</g>
				</g>
				<g>
					<g>
						<path style="fill:#FC4B48;" d="M411.956,397.664l-1.222,0.235c-0.274-1.425-2.538-13.968,2.207-16.069
							c0.007-0.003,0.013-0.006,0.021-0.009c4.82-2.094,11.254,8.638,11.971,9.868l-1.075,0.627
							c-1.796-3.078-7.167-10.76-10.402-9.354c-0.004,0.002-0.009,0.004-0.012,0.005
							C410.185,384.411,411.263,394.062,411.956,397.664z"/>
					</g>
				</g>
				<g>
					<g>
						<polygon style="fill:#FC4B48;" points="446.675,419.656 444.565,421.896 415.937,434.572 404.702,399.429 428.803,388.757 
													"/>
					</g>
				</g>
				<g>
					<g>
						<polygon style="fill:#546494;" points="449.945,416.195 446.675,419.656 444.565,421.896 428.803,388.757 						"/>
					</g>
				</g>
				<g>
					<g>
						<polygon style="fill:#FC4B48;" points="444.629,421.491 444.033,421.314 445.471,416.51 449.901,415.887 449.987,416.503 
							445.953,417.069 						"/>
					</g>
				</g>
				<g>
					<g>
						
							<rect x="436.947" y="386.405" transform="matrix(0.8563 -0.5165 0.5165 0.8563 -145.1908 283.7173)" style="fill:#FC4B48;" width="0.622" height="32.737"/>
					</g>
				</g>
			</g>
			<g>
				<g>
					<g>
						<path style="fill:#FDA888;" d="M411.42,389.975c-0.848-1.124-1.965-2.446-2.474-3.767c-0.085-0.22-0.085-0.488,0.059-0.674
							c0.745-0.962,2.63,1.701,2.947,2.15c0.393,0.557,0.987,1.303,1.121,1.991C413.29,390.785,411.971,390.706,411.42,389.975z"/>
					</g>
				</g>
				<g>
					<g>
						<path style="fill:#FDA888;" d="M413.117,389.024c-0.848-1.124-1.965-2.446-2.474-3.767c-0.085-0.22-0.085-0.487,0.059-0.674
							c0.745-0.962,2.63,1.701,2.947,2.15c0.393,0.557,0.987,1.303,1.121,1.991C414.987,389.834,413.668,389.755,413.117,389.024z"
							/>
					</g>
				</g>
				<g>
					<g>
						<path style="fill:#FDA888;" d="M414.856,387.991c-0.951-1.277-2.218-2.771-2.736-4.311c-0.086-0.257-0.066-0.577,0.127-0.812
							c0.993-1.212,3.095,1.825,3.449,2.337c0.439,0.635,1.107,1.481,1.217,2.294C417.089,388.811,415.474,388.822,414.856,387.991z
							"/>
					</g>
				</g>
				<g>
					<g>
						<path style="fill:#FDA888;" d="M416.73,386.366c-0.951-1.277-2.218-2.771-2.737-4.311c-0.086-0.257-0.065-0.577,0.127-0.812
							c0.993-1.212,3.095,1.825,3.449,2.337c0.439,0.636,1.107,1.481,1.217,2.294C418.963,387.185,417.348,387.196,416.73,386.366z"
							/>
					</g>
				</g>
			</g>
		</g>
		<g>
			<g>
				<g>
					<g>
						<path style="fill:#A6414C;" d="M230.782,318.535c1.775,6.553,7.891,9.586,8.859,10.047c3.476,1.657,6.587,1.678,8.482,1.671
							c2.588-0.011,6.225-0.026,9.72-2.481c0.804-0.565,3.752-2.701,5.026-6.753c0.356-1.134,1.854-5.897-0.774-9.332
							c-2.187-2.86-6.147-3.383-8.13-3.641c-1.983-0.258-2.159,0.102-4.056-0.263c-3.371-0.649-3.883-1.927-6.504-2.602
							c-0.441-0.113-4.873-1.179-8.734,1.47c-2.832,1.943-3.773,4.798-4.006,5.591C229.857,315.001,230.448,317.301,230.782,318.535
							z"/>
					</g>
				</g>
				<g>
					<g>
						<path style="fill:#FDA888;" d="M242.054,324.106l-1.519,19.752c1.46,2.771,4.454,4.379,7.517,4.048
							c2.883-0.311,5.352-2.287,6.326-5.061c-0.788-6.246-1.576-12.492-2.363-18.739H242.054z"/>
					</g>
				</g>
				<g>
					<g>
						<path style="fill:#F77B54;" d="M241.413,332.434l0.641-8.328h9.96c0.201,1.595,0.402,3.19,0.604,4.785
							C250.189,332.018,245.531,333.205,241.413,332.434z"/>
					</g>
				</g>
				<g>
					<g>
						<path style="fill:#FDA888;" d="M279.9,485.648l2.799,17.285l7.816,5.5c0,0-15.537,1.641-15.247,0.772
							c0.289-0.868,0.965-4.439,0.965-4.439l-4.632-17.177L279.9,485.648z"/>
					</g>
				</g>
				<g>
					<g>
						<path style="fill:#FC4B48;" d="M284.8,504.411c0,0,15.366,4.408,15.462,5.759c0.096,1.351-0.868,2.799-0.868,2.799
							l-24.994,0.483c0,0-2.413-5.694,1.833-8.685C276.233,504.766,283.91,509.074,284.8,504.411z"/>
					</g>
				</g>
				<g>
					<g>
						<polygon style="fill:#546494;" points="299.394,512.969 299.394,514.802 274.4,515.478 274.4,513.451 						"/>
					</g>
				</g>
				<g>
					<g>
						<path style="fill:#5C85B7;" d="M268.423,416.472c0,0,6.769,33.019,7.099,34.588c0.33,1.568,5.448,34.588,5.448,34.588
							s-0.991,4.953-9.741,3.137c0,0-9.245-33.68-9.741-34.67c-0.495-0.991-16.388-36.156-16.388-36.156L268.423,416.472z"/>
					</g>
				</g>
				<g>
					<g>
						<path style="fill:#546494;" d="M251.864,417.824c0.429,2.569,1.469,8.808,1.896,11.378c0.501,3.011,1.573,9.467,2.073,12.479
							c-4.74-10.465-10.732-23.722-10.732-23.722C247.355,417.913,249.61,417.869,251.864,417.824z"/>
					</g>
				</g>
				<g>
					<g>
						<path style="fill:#FDA888;" d="M210.611,397.162l-11.301,13.075c0,0-1.566,5.511-2.451,5.852
							c-0.885,0.34-7.353-2.519-7.012-3.54c0.34-1.021,3.881-5.923,4.561-6.195c0.681-0.272,2.383-0.554,2.383-0.554l8.442-12.585
							L210.611,397.162z"/>
					</g>
				</g>
				<g>
					<g>
						<path style="fill:#FDA888;" d="M289.696,387.943l8.304,11.9c0,0,6.421,2.055,7.106,3.082c0.685,1.027,2.14,5.308,1.798,5.822
							c-0.342,0.514-5.051,4.366-5.993,3.853c-0.942-0.514-5.137-4.281-5.565-5.736c-0.428-1.456-1.284-4.195-1.284-4.195
							l-10.274-10.787L289.696,387.943z"/>
					</g>
				</g>
				<g>
					<g>
						<path style="fill:#FDA888;" d="M220.36,479.097l-10.132,14.186c0,0-5.308,3.474-5.501,4.15
							c-0.193,0.675,13.896,11.966,13.896,11.966l-2.219-12.738l10.422-12.545L220.36,479.097z"/>
					</g>
				</g>
				<g>
					<g>
						<path style="fill:#FC4B48;" d="M216.719,498.472c0,0,7.887,12.952,7.018,14.496c-0.868,1.544-1.93,2.027-1.93,2.027
							l-19.011-16.523c0,0,2.114-5.445,6.895-4.835C209.692,493.637,210.955,500.671,216.719,498.472z"/>
					</g>
				</g>
				<g>
					<g>
						<polygon style="fill:#546494;" points="221.807,514.995 220.263,516.636 201.349,500.134 202.796,498.472 						"/>
					</g>
				</g>
				<g>
					<g>
						<path style="fill:#5C85B7;" d="M229.625,416.472c0,0,6.604,34.01,6.274,35.001c-0.33,0.991-16.675,27.571-16.675,27.571
							c0.185,0.766,0.749,2.652,2.476,4.292c1.891,1.795,4.024,2.202,4.788,2.311c0,0,23.939-26.085,24.765-29.552
							c0.826-3.467,0-39.623,0-39.623H229.625z"/>
					</g>
				</g>
				<g>
					<g>
						<circle style="fill:#FDA888;" cx="244.416" cy="319.751" r="11.147"/>
					</g>
				</g>
				<g>
					<g>
						<path style="fill:#546494;" d="M290.701,386.651c0.286,1.405,0.457,2.411,0.457,2.411l-5.52,4.724c0,0-2.079-0.001-3.383-0.16
							C283.923,390.198,287.377,388.298,290.701,386.651z"/>
					</g>
				</g>
				<g>
					<g>
						<path style="fill:#FFFFFF;" d="M205.711,386.081c1.452-2.362,7.743-7.477,8.538-8.665c0.783-1.175,3.271-10.496,5.633-17.456
							c2.362-6.947,8.829-12.391,10.18-13.906c0.821-0.922,4.623-2.968,7.49-4.421c1.844-0.947,3.284-1.642,3.284-1.642
							c8.071,6.227,12.984-1.528,12.984-1.528s0.909,0.177,2.273,0.493c3.006,0.695,8.197,2.059,10.66,3.739
							c3.587,2.45,13.502,27.333,13.995,28.634c0.493,1.301,5.696,4.56,7.326,6.833c1.075,1.509,2.071,5.763,2.625,8.49
							c-3.324,1.648-6.778,3.547-8.446,6.975c-0.012-0.002-0.027-0.003-0.04-0.004c-1.301-0.164-4.396-3.903-4.876-5.368
							c-0.493-1.465-6.517-4.56-8.791-6.833c-2.274-2.273-3.41-9.599-3.41-9.599s-2.286,9.928,0.48,15.296
							c4.973,9.647,3.265,20.469,4.277,29.605c-13.825,3.759-29.569,6.288-42.095-0.409c-0.62-2.817-1.301-6.701-1.388-10.515
							c-0.164-7.174,4.395-18.681,5.204-20.639c0.821-1.945-1.225-10.105-1.49-11.456c-0.265-1.352-6.303,11.848-7.705,14.601
							c-0.914,1.803-5.828,5.654-9.145,8.122c-2.118-3.177-5.533-4.212-8.952-5.369
							C204.571,389.296,204.996,387.253,205.711,386.081z"/>
					</g>
				</g>
				<g>
					<g>
						<path style="fill:#546494;" d="M269.895,416.721c0.142,1.282,0.336,2.532,0.611,3.74c-5.078,1.806-13.325,3.991-23.581,3.536
							c-7.528-0.328-13.704-1.983-18.074-3.536c0,0-0.501-1.658-1.05-4.149C240.327,423.009,256.07,420.48,269.895,416.721z"/>
					</g>
				</g>
				<g>
					<g>
						<path style="fill:#546494;" d="M213.276,396.426c-1.771,1.318-3.094,2.248-3.094,2.248l-6.176-4.332
							c0,0,0.068-1.497,0.319-3.284C207.743,392.214,211.159,393.248,213.276,396.426z"/>
					</g>
				</g>
				<g>
					<g>
						<path style="fill:#FDA888;" d="M197.63,415.188c0.068-0.359,0.115-0.823,0.013-1.174c-0.05-0.171-0.148-0.383-0.324-0.455
							c-0.463-0.19-1.339,0.712-1.813,1.526c-0.812,1.396-0.542,2.707-0.322,3.207c0.099,0.225,0.211,0.329,0.335,0.369
							c0.291,0.094,0.641-0.169,0.834-0.473C196.924,417.285,197.429,416.245,197.63,415.188z"/>
					</g>
				</g>
				<g>
					<g>
						<path style="fill:#FDA888;" d="M195.621,414.594c0.068-0.359,0.115-0.823,0.013-1.174c-0.05-0.173-0.148-0.392-0.324-0.455
							c-0.448-0.159-1.216,0.825-1.604,1.473c-0.778,1.301-0.825,2.591-0.531,3.259c0.126,0.287,0.268,0.347,0.335,0.369
							c0.291,0.094,0.641-0.169,0.834-0.473C194.915,416.691,195.42,415.651,195.621,414.594z"/>
					</g>
				</g>
				<g>
					<g>
						<path style="fill:#FDA888;" d="M193.799,413.476c0.068-0.359,0.115-0.823,0.013-1.174c-0.051-0.176-0.15-0.396-0.324-0.455
							c-0.454-0.154-1.226,0.905-1.606,1.566c-0.731,1.274-0.824,2.497-0.529,3.167c0.129,0.293,0.277,0.35,0.335,0.369
							c0.291,0.094,0.641-0.169,0.834-0.473C193.093,415.573,193.598,414.533,193.799,413.476z"/>
					</g>
				</g>
				<g>
					<g>
						<path style="fill:#FDA888;" d="M192.142,412.031c0.076-0.27,0.194-0.711,0.013-1.174c-0.07-0.18-0.154-0.393-0.324-0.455
							c-0.495-0.18-1.492,0.995-1.983,2.146c-0.556,1.304-0.311,2.225-0.152,2.586c0.091,0.207,0.198,0.33,0.335,0.369
							c0.099,0.028,0.345,0.049,0.834-0.473C191.472,414.38,191.703,413.588,192.142,412.031z"/>
					</g>
				</g>
				<g>
					<g>
						<path style="fill:#546494;" d="M237.553,341.633c0.518,0.733,1.187,1.364,1.933,1.857c1.591,1.061,3.486,1.566,5.368,1.882
							c1.238,0.202,2.514,0.328,3.751,0.126c1.958-0.316,3.726-1.44,5.065-2.892c0.733-0.783,1.351-1.68,1.882-2.615
							c0.189-0.341,0.379-0.682,0.543-1.036c-1.364-0.316-2.273-0.493-2.273-0.493s-4.913,7.755-12.984,1.528
							C240.837,339.991,239.397,340.686,237.553,341.633z"/>
					</g>
				</g>
				<g>
					<g>
						<g>
							<path style="fill:#FDA888;" d="M253.604,321.083c0.673,1.81,2.687,2.731,4.497,2.058c1.81-0.673,2.731-2.687,2.058-4.497
								c-0.673-1.81-2.687-2.731-4.497-2.058C253.851,317.26,252.93,319.273,253.604,321.083z"/>
						</g>
					</g>
					<g>
						<g>
							<g>
								<g>
									<path style="fill:#333333;" d="M238.979,320.946c-0.041,0.296-0.168,0.611-0.423,0.681
										c-0.182,0.05-0.386-0.044-0.528-0.199c-0.142-0.155-0.231-0.361-0.293-0.569c-0.078-0.261-0.121-0.539-0.077-0.8
										c0.044-0.261,0.186-0.502,0.401-0.6C238.876,319.084,239.061,320.347,238.979,320.946z"/>
								</g>
							</g>
						</g>
						<g>
							<g>
								<path style="fill:#A6414C;" d="M243.063,320.476c-0.013-0.1-1.907-0.363-2.263,0.43c-0.385,0.856,1.384,2.143,1.448,2.09
									c0.054-0.045-1.12-1.086-0.827-1.806C241.696,320.517,243.074,320.561,243.063,320.476z"/>
							</g>
						</g>
						<g>
							<g>
								<g>
									<path style="fill:#A6414C;" d="M246.695,315.731c-0.226-0.035-0.496-0.028-0.635,0.153
										c-0.161,0.209-0.048,0.515,0.105,0.73c0.359,0.503,0.921,0.856,1.53,0.961c0.191,0.033,0.391,0.042,0.574-0.02
										c0.184-0.061,0.349-0.202,0.399-0.389C248.876,316.397,247.22,315.812,246.695,315.731z"/>
								</g>
							</g>
						</g>
						<g>
							<g>
								<g>
									<path style="fill:#A6414C;" d="M237.945,316.717c0.209-0.094,0.47-0.159,0.653-0.021c0.21,0.159,0.183,0.484,0.092,0.732
										c-0.212,0.58-0.66,1.07-1.219,1.333c-0.175,0.082-0.366,0.144-0.559,0.134c-0.193-0.01-0.39-0.102-0.488-0.269
										C236.019,317.938,237.461,316.934,237.945,316.717z"/>
								</g>
							</g>
						</g>
						<g>
							<g>
								<g>
									<path style="fill:#FFFFFF;" d="M241.802,327.977c1.796,0.576,3.382-0.477,3.449-0.523c1.215-0.835,1.977-2.424,1.505-2.949
										c-0.396-0.44-1.336,0.225-3.818,0.464c-2.285,0.22-3.203-0.178-3.483,0.289
										C239.081,325.885,240.215,327.468,241.802,327.977z"/>
								</g>
							</g>
						</g>
						<g>
							<g>
								<path style="fill:#FFFFFF;" d="M238.051,319.769c0.157-0.043,0.322,0.074,0.354,0.231c0.03,0.147-0.06,0.313-0.215,0.346
									c-0.159,0.034-0.309-0.089-0.338-0.239C237.824,319.965,237.906,319.808,238.051,319.769z"/>
							</g>
						</g>
						<g>
							<g>
								<g>
									<path style="fill:#333333;" d="M247.286,320.091c-0.051,0.294-0.189,0.605-0.447,0.666
										c-0.183,0.043-0.384-0.058-0.521-0.217c-0.137-0.159-0.218-0.369-0.273-0.579c-0.069-0.263-0.102-0.543-0.049-0.802
										c0.053-0.259,0.203-0.495,0.421-0.586C247.248,318.227,247.389,319.495,247.286,320.091z"/>
								</g>
							</g>
						</g>
						<g>
							<g>
								<path style="fill:#FFFFFF;" d="M246.4,318.883c0.159-0.037,0.319,0.085,0.345,0.243c0.025,0.148-0.071,0.311-0.227,0.338
									c-0.16,0.028-0.306-0.099-0.33-0.25C246.167,319.071,246.254,318.917,246.4,318.883z"/>
							</g>
						</g>
						<g style="opacity:0.29;">
							<g>
								<path style="fill:#A6414C;" d="M248.734,321.614c-0.089-0.396-1.485-0.394-2.198-0.329
									c-0.372,0.034-1.624,0.149-1.667,0.511c-0.043,0.363,1.12,1.012,2.232,0.862
									C247.965,322.542,248.809,321.945,248.734,321.614z"/>
							</g>
						</g>
						<g style="opacity:0.29;">
							<g>
								<path style="fill:#A6414C;" d="M239.477,322.273c-0.118-0.253-0.862-0.135-1.539-0.028
									c-0.677,0.107-1.479,0.234-1.505,0.505c-0.03,0.316,0.989,0.9,1.885,0.664C239.029,323.227,239.602,322.541,239.477,322.273
									z"/>
							</g>
						</g>
					</g>
					<g style="opacity:0.29;">
						<g>
							<path style="fill:#A6414C;" d="M256.476,321.218c0.12,0,0.234-0.069,0.287-0.184c0.296-0.647,1.454-1.264,1.875-1.447
								c0.16-0.07,0.233-0.255,0.164-0.416c-0.07-0.16-0.255-0.233-0.416-0.164c-0.071,0.031-1.741,0.764-2.199,1.764
								c-0.072,0.159-0.003,0.346,0.156,0.419C256.387,321.209,256.431,321.218,256.476,321.218z"/>
						</g>
					</g>
				</g>
				<g>
					<g>
						<path style="fill:#A6414C;" d="M256.673,300.472c-0.577-0.776-3.236-4.083-7.284-3.642c-2.827,0.308-6.072,2.414-6.244,5.203
							c-0.205,3.334,4.111,5.595,6.764,6.244c2.726,0.666,7.157,0.476,8.325-2.081C259.259,303.949,257.184,301.159,256.673,300.472
							z"/>
					</g>
				</g>
				<g>
					<g>
						<path style="fill:#A6414C;" d="M242.141,313.887c5.649,2.244,9.358,0.487,11.553,3.216c0.702,0.872,1.073,1.983,1.778,1.939
							c0.818-0.052,1.42-1.621,1.617-2.594c0.035-0.176,0.549-1.449-0.101-2.597c-1.918-3.385-5.359-5.868-9.175-6.622
							c-1.969-0.389-4.023-0.314-5.967,0.178c-0.795,0.202-4.39,1.208-4.493,2.829C237.244,311.941,241.056,313.455,242.141,313.887
							z"/>
					</g>
				</g>
			</g>
			<g>
				<g>
					<g>
						<path style="fill:#A6414C;" d="M167.995,414.149c-4.772,1.393-9.543,2.786-14.315,4.18c-0.839-0.444-3.895-2.192-4.886-5.72
							c-0.225-0.799-1.126-3.724,0.357-5.124c0.419-0.395,0.913-0.562,1.271-0.64c0.651-1.169,2.345-3.812,5.641-5.318
							c1.038-0.475,2.974-1.333,5.469-1c0.326,0.043,4.655,0.687,6.346,4.159c0.496,1.019,0.576,1.892,0.693,3.174
							C168.816,410.536,168.387,412.737,167.995,414.149z"/>
					</g>
				</g>
				<g>
					<g>
						<path style="fill:#FDA888;" d="M155.923,415.366l-1.535,12.763c0,0,2.547,1.535,4.407,1.407
							c1.861-0.128,3.907-1.535,3.907-1.535V415.96L155.923,415.366z"/>
					</g>
				</g>
				<g>
					<g>
						<path style="fill:#F77B54;" d="M162.702,415.96v3.575c-2.294,1.396-4.907,1.179-7.289,0.068l0.51-4.237L162.702,415.96z"/>
					</g>
				</g>
				<g>
					<g>
						<path style="fill:#FDA888;" d="M142.307,441.245l-10.997,12.223c0,0-3.255,0.424-4.311,1.139s-2.287,2.65-1.936,3.97
							c0.352,1.32,3.343,3.255,4.575,2.991c1.232-0.264,3.255-4.135,3.519-4.663c0.264-0.528,14.428-10.469,14.428-10.469
							L142.307,441.245z"/>
					</g>
				</g>
				<g>
					<g>
						<path style="fill:#FDA888;" d="M173.603,425.86l4.305-2.091l9.595-8.619c0,0,1.476-5.404,1.968-5.527
							c0.492-0.123,5.29-0.163,5.905,2.133c0.615,2.296-4.675,5.958-4.675,5.958s-8.611,12.329-9.472,12.821
							c-0.861,0.492-5.905,2.706-5.905,2.706L173.603,425.86z"/>
					</g>
				</g>
				<g>
					<g>
						<path style="fill:#FDA888;" d="M137.417,502.189l-5.018,1.797c0,0-1.842,0.179-2.35-0.736
							c-0.508-0.915,0.635-3.075,0.635-3.075l4.006-3.521L137.417,502.189z"/>
					</g>
				</g>
				<g>
					<g>
						<path style="fill:#FC4B48;" d="M130.958,499.934c0,0-3.005-0.172-4.931,1.084c-1.927,1.255-1.927,1.255-1.927,1.255
							l8.429,15.329c0,0,2.428-0.3,3.09-1.626c0.662-1.326-1.952-12.444-1.952-12.444S130.389,503.623,130.958,499.934z"/>
					</g>
				</g>
				<g>
					<g>
						<path style="fill:#FDA888;" d="M182.145,508.916l1.166,3.519c0,0-0.478,4.319-1.812,4.129
							c-1.334-0.191-3.176-2.287-3.176-2.287l-1.842-3.938L182.145,508.916z"/>
					</g>
				</g>
				<g>
					<g>
						<path style="fill:#FC4B48;" d="M178.169,513.947c0,0-0.79,2.617,0,4.777c0.79,2.16,0.79,2.16,0.79,2.16l16.833-4.764
							c0,0,0.254-2.433-0.889-3.376c-1.143-0.943-11.591-0.937-11.591-0.937S181.635,515.331,178.169,513.947z"/>
					</g>
				</g>
				<g>
					<g>
						<circle style="fill:#FDA888;" cx="160.512" cy="411.792" r="8.339"/>
					</g>
				</g>
				<g>
					<g>
						<path style="fill:#546494;" d="M170.889,454.606c0,0.384,6.907,29.42,7.291,30.699c0.384,1.279,3.965,22.513,3.965,22.513
							l-5.628,2.144c0,0-9.721-22.226-9.849-22.61c-0.128-0.384-14.198-31.85-14.198-31.85L170.889,454.606z"/>
					</g>
				</g>
				<g>
					<g>
						<path style="fill:#445787;" d="M166.496,454.82c-0.525,9.668,0.913,19.87-1.039,29.78
							c-3.43-7.725-12.987-29.099-12.987-29.099L166.496,454.82z"/>
					</g>
				</g>
				<g>
					<g>
						<path style="fill:#546494;" d="M167.307,453.467c0,0-5.756,34.78-6.907,36.698c-1.151,1.919-21.873,12.024-21.873,12.024
							l-3.837-5.534l15.094-11.478l-1.279-30.571L167.307,453.467z"/>
					</g>
				</g>
				<g>
					<g>
						<polygon style="fill:#6F94CB;" points="183.311,506.026 183.311,509.072 176.134,511.806 174.431,509.175 						"/>
					</g>
				</g>
				<g>
					<g>
						<polygon style="fill:#6F94CB;" points="140.114,502.815 137.099,503.25 133.369,496.538 135.729,494.476 						"/>
					</g>
				</g>
				<g>
					<g>
						<path style="fill:#FFFFFF;" d="M162.702,424.402c0,0,6.415,1.477,7.892,0.95c1.477-0.527,4.537-1.583,4.537-1.583l3.904,9.285
							l-8.167,5.107l2.76,22.379c-2.875,1.429-7.395,3.249-13.203,3.925c-6.749,0.785-12.254-0.321-15.54-1.249
							c0.522-5.294,1.044-10.589,1.566-15.883l-6.337-5.369c0,0,5.443-10.525,7.68-12.421c2.237-1.896,6.594-4.133,6.594-4.133
							S157.701,428.987,162.702,424.402z"/>
					</g>
				</g>
				<g>
					<g>
						<g>
							<path style="fill:#FDA888;" d="M155.729,415.421c1.099,1.168,1.043,3.006-0.126,4.105c-1.168,1.099-3.006,1.043-4.105-0.125
								c-1.099-1.168-1.043-3.006,0.126-4.105C152.792,414.197,154.63,414.253,155.729,415.421z"/>
						</g>
					</g>
					<g>
						<g>
							<g>
								<g>
									<path style="fill:#333333;" d="M165.327,409.914c0.134,0.209,0.34,0.402,0.557,0.365c0.154-0.026,0.275-0.168,0.329-0.334
										c0.053-0.166,0.048-0.353,0.022-0.531c-0.032-0.224-0.097-0.448-0.221-0.629c-0.124-0.181-0.315-0.313-0.511-0.312
										C164.754,408.475,165.056,409.491,165.327,409.914z"/>
								</g>
							</g>
						</g>
						<g>
							<g>
								<path style="fill:#A6414C;" d="M162.084,410.985c-0.025-0.079,1.31-0.939,1.855-0.466c0.589,0.511-0.296,2.098-0.362,2.08
									c-0.057-0.015,0.466-1.209-0.007-1.649C163.129,410.539,162.106,411.053,162.084,410.985z"/>
							</g>
						</g>
						<g>
							<g>
								<g>
									<path style="fill:#A6414C;" d="M157.692,408.676c0.158-0.105,0.364-0.194,0.532-0.106c0.194,0.102,0.216,0.371,0.175,0.587
										c-0.095,0.504-0.395,0.967-0.818,1.258c-0.132,0.091-0.28,0.168-0.44,0.186s-0.333-0.031-0.436-0.154
										C156.281,409.939,157.325,408.92,157.692,408.676z"/>
								</g>
							</g>
						</g>
						<g>
							<g>
								<g>
									<path style="fill:#A6414C;" d="M164.63,406.366c-0.19,0.002-0.41,0.044-0.499,0.212c-0.103,0.193,0.031,0.428,0.186,0.584
										c0.362,0.363,0.871,0.576,1.384,0.579c0.161,0.001,0.326-0.019,0.468-0.094c0.142-0.075,0.258-0.213,0.274-0.373
										C166.508,406.615,165.071,406.361,164.63,406.366z"/>
								</g>
							</g>
						</g>
						<g>
							<g>
								<g>
									<path style="fill:#FFFFFF;" d="M165.3,416.05c-0.915,0.842-2.154,0.651-2.207,0.642c-0.958-0.163-1.853-0.902-1.716-1.347
										c0.115-0.373,0.861-0.236,2.411-0.779c1.428-0.501,1.866-0.993,2.163-0.791C166.348,414.046,166.108,415.306,165.3,416.05z
										"/>
								</g>
							</g>
						</g>
						<g>
							<g>
								<path style="fill:#FFFFFF;" d="M165.615,408.703c-0.133,0.023-0.217,0.168-0.186,0.297c0.029,0.122,0.154,0.215,0.283,0.185
									c0.132-0.03,0.202-0.175,0.172-0.298C165.855,408.772,165.738,408.682,165.615,408.703z"/>
							</g>
						</g>
						<g>
							<g>
								<g>
									<path style="fill:#333333;" d="M158.767,412.167c0.141,0.204,0.353,0.39,0.569,0.346c0.153-0.031,0.27-0.178,0.317-0.345
										c0.048-0.168,0.036-0.354,0.004-0.532c-0.04-0.222-0.112-0.445-0.243-0.621c-0.13-0.177-0.326-0.302-0.522-0.295
										C158.146,410.75,158.482,411.755,158.767,412.167z"/>
								</g>
							</g>
						</g>
						<g>
							<g>
								<path style="fill:#FFFFFF;" d="M159.014,410.948c-0.133,0.027-0.211,0.175-0.176,0.304c0.033,0.121,0.162,0.21,0.289,0.176
									c0.13-0.035,0.196-0.182,0.161-0.304C159.256,411.009,159.136,410.923,159.014,410.948z"/>
							</g>
						</g>
						<g style="opacity:0.29;">
							<g>
								<path style="fill:#A6414C;" d="M158.207,413.82c-0.071-0.329,0.982-0.815,1.541-1.015c0.292-0.104,1.276-0.454,1.434-0.196
									c0.159,0.258-0.491,1.153-1.382,1.429C159.111,414.252,158.267,414.096,158.207,413.82z"/>
							</g>
						</g>
						<g style="opacity:0.29;">
							<g>
								<path style="fill:#A6414C;" d="M165.414,411.088c0.001-0.232,0.602-0.403,1.15-0.558c0.548-0.155,1.196-0.339,1.311-0.144
									c0.133,0.228-0.432,1.023-1.189,1.158C166.085,411.651,165.413,411.333,165.414,411.088z"/>
							</g>
						</g>
					</g>
					<g style="opacity:0.29;">
						<g>
							<path style="fill:#A6414C;" d="M152.59,418.775c-0.102,0-0.203-0.043-0.273-0.127c-0.129-0.151-0.109-0.377,0.042-0.505
								c0.124-0.107,1.245-1.021,2.187-1.009c0.197,0.006,0.352,0.171,0.347,0.369c-0.006,0.198-0.155,0.35-0.369,0.347
								c-0.007-0.001-0.015-0.001-0.022-0.001c-0.559,0-1.419,0.62-1.681,0.841C152.754,418.747,152.673,418.775,152.59,418.775z"/>
						</g>
					</g>
				</g>
				<g>
					<g>
						<path style="fill:#A6414C;" d="M150.709,407.257c0,0-2.126-0.03-2.391-0.891c-0.266-0.861-0.575-1.686-0.575-1.686
							s1.752,0.825,2.01,1.288c0,0-0.515-2.061,0.103-3.041c0.618-0.979,0.853-1.288,0.853-1.288S151.975,405.608,150.709,407.257z"
							/>
					</g>
				</g>
				<g>
					<g>
						<path style="fill:#A6414C;" d="M151.66,412.516c0,0,1.855-2.022,2.628-2.533c0,0-0.464-0.987,0-2.243l0.773,1.828
							c0,0,1.423-2.496,3.83-3.203c0,0-0.275-1.788-0.687-1.917c0,0,0.941,0.438,1.501,1.623c0,0,2.633-1.185,3.994-1.031
							c-0.083-0.166-0.206-0.368-0.386-0.573c-0.313-0.355-0.656-0.555-0.882-0.661c0.24,0.042,0.568,0.129,0.92,0.319
							c0.561,0.302,0.897,0.711,1.067,0.952c0.867,0.228,1.733,0.457,2.6,0.685l-5.81-4.123l-8.001,2.809L151.66,412.516z"/>
					</g>
				</g>
				<g>
					<g>
						<path style="fill:#A6414C;" d="M151.992,411.434c0,0,0.993,3.193,1.769,3.969c0,0-1.059-0.838-1.973-0.248l-1.349-3.011
							L151.992,411.434z"/>
					</g>
				</g>
				<g>
					<g>
						<g>
							<g>
								<polygon style="fill:#6F94CB;" points="126.503,463.976 130.796,465.116 127.529,490.451 118.504,488.054 								"/>
							</g>
						</g>
					</g>
					<g>
						<g>
							<g>
								<polygon style="fill:#546494;" points="118.504,488.054 123.853,486.103 127.529,490.451 								"/>
							</g>
						</g>
					</g>
					<g>
						<g>
							<g>
								
									<rect x="115.262" y="475.039" transform="matrix(0.2222 -0.975 0.975 0.2222 -365.2179 492.8451)" style="fill:#546494;" width="22.08" height="0.598"/>
							</g>
						</g>
					</g>
					<g>
						<g>
							<g>
								<path style="fill:#6F94CB;" d="M130.654,465.395l-0.894-0.075c0.21-2.492,0.244-5.382-0.009-6.213
									c-0.699,0.748-1.755,3.619-2.332,5.592l-0.861-0.252c0.268-0.916,1.667-5.522,2.904-6.254
									c0.235-0.138,0.496-0.141,0.713-0.006C131.028,458.723,130.906,462.403,130.654,465.395z"/>
							</g>
						</g>
					</g>
				</g>
				<g>
					<g>
						<g>
							<g>
								<polygon style="fill:#FC4B48;" points="120.282,459.803 124.633,464.954 110.22,483.773 101.075,472.945 								"/>
							</g>
						</g>
					</g>
					<g>
						<g>
							<g>
								<polygon style="fill:#A6414C;" points="101.075,472.945 107.923,476.437 110.22,483.773 								"/>
							</g>
						</g>
					</g>
					<g>
						<g>
							<g>
								<polygon style="fill:#A6414C;" points="107.62,477.138 107.207,476.707 122.354,462.283 122.767,462.715 								"/>
							</g>
						</g>
					</g>
					<g>
						<g>
							<g>
								<path style="fill:#FC4B48;" d="M124.295,464.964l-0.943-0.733c2.285-2.94,4.127-5.943,4.199-6.816
									c-1.244,0.005-4.736,2.165-6.914,3.769l-0.71-0.962c0.978-0.72,5.966-4.296,7.951-3.976
									c0.368,0.058,0.654,0.282,0.784,0.614C129.228,458.298,126.169,462.555,124.295,464.964z"/>
							</g>
						</g>
					</g>
				</g>
				<g>
					<path style="fill:#FDA888;" d="M125.917,456.118c0.444-0.275,0.849-0.344,0.937-0.361c1.009-0.19,1.988,0.408,2.799,1.038
						c0.623,0.484,1.23,1.018,1.618,1.705c0.154,0.273,0.683,1.471,0.195,2.269c-0.678,1.11-3.052,0.956-4.585,0.116
						c-0.949-0.52-2.44-1.777-2.188-3.125C124.815,457.114,125.331,456.481,125.917,456.118z"/>
				</g>
			</g>
			<g>
				<g>
					<g>
						<g>
							<path style="fill:#5C85B7;" d="M298.377,420.807c-0.05-2.292-0.178-13.806,2.215-15.384c0.906-0.599,2.108-0.684,3.385-0.239
								c2.03,0.705,5.916,3.337,9.127,13.043l-1.134,0.376c-3.164-9.563-6.918-11.78-8.385-12.29
								c-0.917-0.318-1.746-0.28-2.335,0.108c-1.354,0.893-1.797,8.935-1.678,14.36L298.377,420.807z"/>
						</g>
					</g>
				</g>
				<g>
					<g>
						<g>
							<g>
								<polygon style="fill:#5C85B7;" points="322.039,448.602 299.429,452.903 294.891,420.829 314.483,417.102 								"/>
							</g>
						</g>
					</g>
					<g>
						<g>
							<g>
								<polygon style="fill:#546494;" points="314.483,417.102 316.694,416.681 326.531,443.37 322.039,448.602 								"/>
							</g>
						</g>
					</g>
					<g>
						<g>
							<g>
								<polygon style="fill:#5C85B7;" points="322.039,448.602 322.591,441.191 326.531,443.37 								"/>
							</g>
						</g>
					</g>
					<g>
						<g>
							<g>
								
									<rect x="318.984" y="416.371" transform="matrix(0.9613 -0.2754 0.2754 0.9613 -105.9843 104.5348)" style="fill:#5C85B7;" width="0.597" height="26.666"/>
							</g>
						</g>
					</g>
				</g>
			</g>
			<g>
				<g>
					<g>
						<g>
							<path style="fill:#C6E8F7;" d="M308.325,425.204l-1.192-0.089c0.871-11.708-1.706-15.796-3.32-17.191
								c-0.895-0.774-1.915-1.079-2.872-0.868c-2.037,0.455-6.08,9.566-8.149,15.203l-1.122-0.412
								c0.931-2.537,5.742-15.227,9.01-15.956c1.335-0.303,2.726,0.103,3.914,1.13C306.378,408.562,309.234,412.974,308.325,425.204
								z"/>
						</g>
					</g>
				</g>
				<g>
					<g>
						<g>
							<g>
								<polygon style="fill:#C6E8F7;" points="304.704,463.614 278.107,458.281 287.546,420.412 310.593,425.033 								"/>
							</g>
						</g>
					</g>
					<g>
						<g>
							<g>
								<polygon style="fill:#546494;" points="310.593,425.033 313.195,425.555 311.952,459.784 304.704,463.614 								"/>
							</g>
						</g>
					</g>
					<g>
						<g>
							<g>
								<polygon style="fill:#C6E8F7;" points="304.704,463.614 308.631,455.583 311.952,459.784 								"/>
							</g>
						</g>
					</g>
					<g>
						<g>
							<g>
								
									<rect x="294.339" y="440.852" transform="matrix(0.1036 -0.9946 0.9946 0.1036 -160.6582 704.0311)" style="fill:#C6E8F7;" width="31.874" height="0.597"/>
							</g>
						</g>
					</g>
				</g>
			</g>
		</g>
		<g>
			<g>
				<g>
					<g>
						<g>
							<polygon style="fill:#FFFFFF;" points="416.554,375.554 453.612,364.717 448.386,347.278 411.328,358.115 							"/>
						</g>
					</g>
				</g>
				<g>
					<g>
						<g>
							<polygon style="fill:#6F94CB;" points="411.512,363.71 451.315,352.07 449.759,346.877 409.956,358.516 							"/>
						</g>
					</g>
				</g>
				<g>
					<g>
						<path style="fill:#FC4B48;" d="M431.58,371.16l-3.661-17.897c0,0-9.151,2.727-9.411,0.126
							c-0.26-2.601,1.115-4.513,0.507-6.154c-0.608-1.642,0.716-4.086,2.231-3.513c1.515,0.573,6.343,6.243,6.995,6.109
							c0.652-0.133,1.657-6.181,2.75-6.812c1.094-0.631,3.798-0.03,4,1.288c0.202,1.317,3.262,2.662,2.89,4.164
							c-0.372,1.503-8.073,4.368-8.073,4.368l6.069,17.064L431.58,371.16z"/>
					</g>
				</g>
			</g>
			<g>
				<g>
					<g>
						<g>
							<polygon style="fill:#5C85B7;" points="407.174,391.946 452.578,382.833 448.964,366.177 403.56,375.291 							"/>
						</g>
					</g>
				</g>
				<g>
					<g>
						<g>
							<polygon style="fill:#FC4B48;" points="402.955,380.588 451.721,370.8 450.645,365.84 401.879,375.628 							"/>
						</g>
					</g>
				</g>
			</g>
			<g>
				<g>
					<g>
						<g>
							
								<rect x="406.335" y="385.531" transform="matrix(-0.9729 0.2313 -0.2313 -0.9729 954.876 694.1677)" style="fill:#546494;" width="60.81" height="35.071"/>
						</g>
					</g>
				</g>
				<g>
					<g>
						<g>
							
								<rect x="401.967" y="385.861" transform="matrix(-0.9729 0.2313 -0.2313 -0.9729 946.5838 671.4643)" style="fill:#FFFFFF;" width="63.916" height="10.734"/>
						</g>
					</g>
				</g>
			</g>
		</g>
		<g>
			<g>
				<path style="fill:#FC4B48;" d="M476.372,349.59c0,0-25.875-48.644-44.647-53.874c-18.772-5.231-47.692-8.892-49.214-4.708
					c-1.522,4.184,0.507,8.892,5.074,9.938c4.566,1.046,39.574,3.661,45.662,10.984c6.088,7.323,34.5,35.568,34.5,35.568
					L476.372,349.59z"/>
			</g>
			<g>
				<path style="fill:#FC4B48;" d="M865.282,445.151c0.204,16.83-6.867,29.45-6.867,29.45h-36.025c0,0-7.614-48.65-45.153-47.08
					c-37.548,1.57-47.19,25.11-51.749,41.85l-186.713,1.04c0,0-8.623-37.66-46.171-39.23c-37.539-1.56-42.612,24.59-42.612,24.59
					l-43.126-0.52c0,0-4.064-21.97,0-27.2c4.055-5.23,11.785-10.71,23.842-16.74c16.723-8.37,37.044-63.81,37.044-63.81
					c28.295-4.19,124.925-17.6,182.688-7.55c10.631,1.84,20.176,4.46,20.176,4.46c36.772,10.08,63.883,28.22,81.256,42.32
					c0,0,0.194,0.03,0.572,0.07c7.973,1.1,96.747,13.77,108.551,37.6c0.175,0.34,0.33,0.68,0.466,1.03
					C864.176,432.291,865.214,439.011,865.282,445.151z"/>
			</g>
			<g>
				<path style="fill:#C6E8F7;" d="M859.613,472.145c0,0-27.355-2.931-28.323-5.196c-0.967-2.265-4.443-21.758,0-21.594
					c4.443,0.164,31.19,4.253,34.002,7.852S862.09,472.424,859.613,472.145z"/>
			</g>
			<g>
				<path style="fill:#546494;" d="M408.894,447.924c0,0-5.581,0.523-6.596,7.846c-1.015,7.323-0.507,20.399,3.298,21.968
					c3.805,1.569,44.394,2.092,44.394,2.092c1.269-4.412,5.725-17.731,18.879-26.421c3.226-2.131,10.655-6.9,21.253-7.084
					c1.458-0.025,8.713-0.064,16.682,3.656c16.109,7.521,21.709,24.136,22.84,27.757l200.913-0.523
					c0.754-1.622,4.625-9.703,11.209-17.485c4.379-5.176,13.986-15.139,27.487-15.695c4.933-0.203,8.841,0.941,11.388,1.708
					c9.166,2.763,14.864,8.069,17.859,10.921c7.676,7.312,11.368,15.419,13.13,20.348c1.868,0.193,4.248,0.44,6.178,0.642
					c2.579,0.269,4.659,0.491,5.015,0.525c20.124,1.921,35.379,3.377,38.779-3.15c0.642-1.233,2.69-3.09,1.288-7.038
					c-17.316,2.326-29.196-0.817-37.247-7.258c-6.9-5.52-6.247-9.672-14.823-18.099c-4.645-4.564-15.918-15.642-33.193-17.452
					c-20.207-2.118-35.053,9.866-38.327,12.661c-10.532,8.993-14.754,19.769-16.353,24.726l-181.126-2.092
					c0,0-9.133-35.568-49.721-37.137c-40.588-1.569-47.184,27.198-47.184,27.198L408.894,447.924z"/>
			</g>
			<g>
				<g>
					<path style="fill:#546494;" d="M507.62,490.168c-2.892,4.225-7.04,7.082-11.605,8.404c-2.898,0.852-5.971,1.075-8.989,0.634
						c-3.126-0.443-6.191-1.595-8.964-3.493c-3.4-2.327-5.916-5.467-7.454-8.992c-1.188-2.691-1.807-5.611-1.804-8.554
						c-0.008-4.15,1.2-8.34,3.719-12.02c1.248-1.824,2.732-3.389,4.381-4.684c2.655-2.109,5.759-3.511,9.007-4.148
						c4.215-0.847,8.67-0.416,12.759,1.401c1.175,0.514,2.316,1.149,3.414,1.9c1.783,1.22,3.327,2.665,4.599,4.275
						c3.041,3.79,4.637,8.469,4.649,13.215c0.017,3.356-0.759,6.739-2.397,9.859C508.55,488.721,508.111,489.451,507.62,490.168z"/>
				</g>
				<g>
					<path style="fill:#C6E8F7;" d="M502.678,470.742c-1.005,0.972-7.435,4.702-7.435,4.702l-3.02-2.067c0,0,0.08-6.598,1.849-9.447
						c0.778-1.261,2.59-3.377,4.598-5.214c0.859,0.07,2.729,0.341,4.602,1.66c2.255,1.589,3.13,3.722,3.411,4.514
						C504.71,468.074,503.691,469.775,502.678,470.742z"/>
				</g>
				<g>
					<path style="fill:#C6E8F7;" d="M508.934,487.966c-0.104-0.017-0.259-0.042-0.446-0.075c-0.245-0.043-4.358-0.574-6.856-1.845
						c-1.24-0.631-6.887-5.465-6.887-5.465l0.95-3.53c1.394-0.665,4.99-2.146,9.525-1.382c2.816,0.474,4.899,1.629,6.111,2.438
						c0.228,1.129,0.526,3.412-0.328,6.051C510.438,485.904,509.573,487.176,508.934,487.966z"/>
				</g>
				<g>
					<path style="fill:#C6E8F7;" d="M496.523,499.74c0.006-0.009,0.006-0.009,0.006-0.009c0.825-3.344,1.072-7.454,0.862-9.399
						c-0.39-3.537-4.633-9.149-4.633-9.149l-3.886,0.189c0,0-2.961,7.26-3.173,8.724c-0.203,1.47,0.042,3.554,0.483,7.509
						c0.104,0.965,0.376,1.892,0.779,2.743L496.523,499.74z"/>
				</g>
				<g>
					<path style="fill:#C6E8F7;" d="M469.133,487.595c3.682,0.204,8.46-0.606,10.522-1.34c3.418-1.214,7.978-6.739,7.978-6.739
						l-1.112-3.788c0,0-7.899-1.182-9.41-1.044c-1.502,0.143-3.516,0.884-7.333,2.245c-0.932,0.336-1.789,0.829-2.534,1.424
						L469.133,487.595z"/>
				</g>
				<g>
					<path style="fill:#C6E8F7;" d="M485.405,456.245c0.099,0.143,0.197,0.287,0.296,0.43c2.183,3.379,3.357,5.169,3.831,6.582
						c0.484,1.419,1.146,9.261,1.146,9.261l-3.371,1.842c0,0-6.345-3.254-8.298-6.299c-0.929-1.458-2.322-4.575-3.165-7.594
						L485.405,456.245z"/>
				</g>
				<g>
					<circle style="fill:#C6E8F7;" cx="490.887" cy="477.122" r="2.301"/>
				</g>
				<g>
					<path style="fill:#342C3B;" d="M490.074,441.587c-20.2,0-36.57,16.38-36.57,36.57c0,20.2,16.37,36.57,36.57,36.57
						c20.19,0,36.57-16.37,36.57-36.57C526.644,457.967,510.264,441.587,490.074,441.587z M508.934,487.965
						c-0.384,0.755-0.822,1.485-1.314,2.203c-2.892,4.225-7.04,7.082-11.605,8.404c-2.898,0.852-5.971,1.076-8.989,0.634
						c-3.126-0.443-6.191-1.595-8.964-3.493c-3.4-2.327-5.916-5.467-7.454-8.992c-1.188-2.691-1.807-5.611-1.804-8.554
						c-0.008-4.15,1.2-8.34,3.719-12.02c1.248-1.824,2.732-3.389,4.381-4.684c2.655-2.109,5.759-3.511,9.007-4.148
						c0.112-0.023,0.226-0.034,0.338-0.055l-0.066-0.004c0.222-0.042,0.451-0.06,0.675-0.095c0.296-0.046,0.59-0.092,0.888-0.125
						c0.285-0.031,0.573-0.053,0.861-0.073c0.344-0.024,0.688-0.04,1.033-0.047c0.145-0.003,0.287-0.02,0.433-0.02
						c0.117,0,0.232,0.011,0.349,0.013c0.249,0.004,0.497,0.015,0.746,0.028c0.29,0.015,0.578,0.032,0.865,0.059
						c0.238,0.022,0.474,0.05,0.712,0.08c0.301,0.038,0.6,0.08,0.897,0.131c0.225,0.038,0.45,0.082,0.674,0.128
						c0.292,0.06,0.582,0.124,0.87,0.196c0.252,0.063,0.502,0.131,0.752,0.203c0.115,0.033,0.233,0.058,0.346,0.093l-0.055-0.003
						c0.823,0.25,1.641,0.537,2.441,0.892c1.175,0.514,2.316,1.149,3.414,1.9c1.783,1.22,3.327,2.665,4.599,4.275
						c3.041,3.79,4.637,8.469,4.649,13.215C511.348,481.463,510.572,484.846,508.934,487.965z"/>
				</g>
			</g>
			<g>
				<g>
					<path style="fill:#546494;" d="M789.934,490.168c-2.892,4.225-7.04,7.082-11.605,8.404c-2.898,0.852-5.971,1.075-8.989,0.634
						c-3.126-0.443-6.191-1.595-8.964-3.493c-3.4-2.327-5.916-5.467-7.454-8.992c-1.188-2.691-1.807-5.611-1.804-8.554
						c-0.008-4.15,1.2-8.34,3.719-12.02c1.248-1.824,2.732-3.389,4.381-4.684c2.655-2.109,5.759-3.511,9.007-4.148
						c4.215-0.847,8.67-0.416,12.759,1.401c1.175,0.514,2.316,1.149,3.413,1.9c1.783,1.22,3.327,2.665,4.599,4.275
						c3.041,3.79,4.637,8.469,4.649,13.215c0.017,3.356-0.759,6.739-2.397,9.859C790.864,488.721,790.425,489.451,789.934,490.168z"
						/>
				</g>
				<g>
					<path style="fill:#C6E8F7;" d="M784.992,470.742c-1.005,0.972-7.435,4.702-7.435,4.702l-3.02-2.067c0,0,0.08-6.598,1.849-9.447
						c0.778-1.261,2.59-3.377,4.599-5.214c0.859,0.07,2.729,0.341,4.602,1.66c2.255,1.589,3.13,3.722,3.411,4.514
						C787.024,468.074,786.005,469.775,784.992,470.742z"/>
				</g>
				<g>
					<path style="fill:#C6E8F7;" d="M791.248,487.966c-0.104-0.017-0.259-0.042-0.446-0.075c-0.245-0.043-4.358-0.574-6.856-1.845
						c-1.241-0.631-6.887-5.465-6.887-5.465l0.95-3.53c1.394-0.665,4.99-2.146,9.525-1.382c2.816,0.474,4.899,1.629,6.111,2.438
						c0.228,1.129,0.526,3.412-0.328,6.051C792.752,485.904,791.887,487.176,791.248,487.966z"/>
				</g>
				<g>
					<path style="fill:#C6E8F7;" d="M778.837,499.74c0.006-0.009,0.006-0.009,0.006-0.009c0.825-3.344,1.072-7.454,0.862-9.399
						c-0.39-3.537-4.633-9.149-4.633-9.149l-3.886,0.189c0,0-2.961,7.26-3.172,8.724c-0.203,1.47,0.042,3.554,0.483,7.509
						c0.104,0.965,0.376,1.892,0.779,2.743L778.837,499.74z"/>
				</g>
				<g>
					<path style="fill:#C6E8F7;" d="M751.447,487.595c3.682,0.204,8.46-0.606,10.522-1.34c3.417-1.214,7.978-6.739,7.978-6.739
						l-1.112-3.788c0,0-7.899-1.182-9.41-1.044c-1.502,0.143-3.516,0.884-7.333,2.245c-0.932,0.336-1.789,0.829-2.534,1.424
						L751.447,487.595z"/>
				</g>
				<g>
					<path style="fill:#C6E8F7;" d="M767.719,456.245c0.098,0.143,0.197,0.287,0.295,0.43c2.183,3.379,3.357,5.169,3.831,6.582
						c0.484,1.419,1.146,9.261,1.146,9.261l-3.371,1.842c0,0-6.345-3.254-8.298-6.299c-0.929-1.458-2.322-4.575-3.165-7.594
						L767.719,456.245z"/>
				</g>
				<g>
					<path style="fill:#C6E8F7;" d="M775.503,477.122c0,1.271-1.03,2.301-2.302,2.301s-2.301-1.03-2.301-2.301
						c0-1.271,1.03-2.302,2.301-2.302S775.503,475.85,775.503,477.122z"/>
				</g>
				<g>
					<path style="fill:#342C3B;" d="M772.388,441.587c-20.2,0-36.57,16.38-36.57,36.57c0,20.2,16.37,36.57,36.57,36.57
						c20.19,0,36.57-16.37,36.57-36.57C808.958,457.967,792.578,441.587,772.388,441.587z M791.248,487.965
						c-0.384,0.755-0.823,1.485-1.314,2.203c-2.892,4.225-7.04,7.082-11.605,8.404c-2.898,0.852-5.971,1.076-8.989,0.634
						c-3.126-0.443-6.191-1.595-8.964-3.493c-3.4-2.327-5.916-5.467-7.454-8.992c-1.188-2.691-1.807-5.611-1.804-8.554
						c-0.008-4.15,1.2-8.34,3.719-12.02c1.248-1.824,2.732-3.389,4.381-4.684c2.655-2.109,5.759-3.511,9.007-4.148
						c0.112-0.023,0.226-0.034,0.338-0.055l-0.066-0.004c0.222-0.042,0.451-0.06,0.675-0.095c0.295-0.046,0.59-0.092,0.888-0.125
						c0.285-0.031,0.573-0.053,0.861-0.073c0.344-0.024,0.688-0.04,1.033-0.047c0.145-0.003,0.287-0.02,0.433-0.02
						c0.117,0,0.232,0.011,0.349,0.013c0.249,0.004,0.497,0.015,0.746,0.028c0.29,0.015,0.578,0.032,0.865,0.059
						c0.238,0.022,0.474,0.05,0.712,0.08c0.301,0.038,0.6,0.08,0.897,0.131c0.225,0.038,0.45,0.082,0.674,0.128
						c0.292,0.06,0.582,0.124,0.87,0.196c0.252,0.063,0.502,0.131,0.752,0.203c0.115,0.033,0.233,0.058,0.346,0.093l-0.055-0.003
						c0.823,0.25,1.641,0.537,2.441,0.892c1.175,0.514,2.316,1.149,3.413,1.9c1.783,1.22,3.327,2.665,4.599,4.275
						c3.041,3.79,4.637,8.469,4.649,13.215C793.662,481.463,792.886,484.846,791.248,487.965z"/>
				</g>
			</g>
			<g>
				<path style="fill:#546494;" d="M865.282,445.151c-0.795-0.65-1.503-1.75-1.843-3.56c-1.018-5.4-14.85-16.52-15.888-17.19
					c-1.028-0.67-0.948-2.663,0.003-4.623c0.951-1.96,13.441,4.623,13.441,4.623c0.175,0.34,0.33,0.68,0.466,1.03
					C864.176,432.291,865.214,439.011,865.282,445.151z"/>
			</g>
			<g>
				<path style="fill:#C6E8F7;" d="M847.141,416.562c0,0,3.35,6.053-1.569,10.143c-4.919,4.09-34.593-6.544-36.814-8.343
					c-2.221-1.799-10.632-12.76-9.838-14.232C799.713,402.657,842.204,408.056,847.141,416.562z"/>
			</g>
			<g>
				<path style="fill:#FFFFFF;" d="M838.748,415.09c0,0,4.919,0.052,5.395,4.688c0.476,4.637-2.698,5.782-4.126,5.454
					C838.59,424.905,845.195,421.038,838.748,415.09z"/>
			</g>
			<g>
				<path style="fill:#C6E8F7;" d="M509.399,387.511c0,0-7.64,0.42-16.95,0.75c-0.83,0.03-1.68,0.05-2.53,0.08
					c-2.26,0.07-4.59,0.14-6.9,0.19c-1.13,0.02-2.25,0.05-3.36,0.06c-1.03,0.02-2.04,0.03-3.04,0.04c-2.34,0.02-4.57,0.02-6.61-0.02
					c-5.45-0.1-9.53-0.41-10.47-1.1c-3.47-2.55,22.55-24.52,29.74-29.63c0.65-0.46,1.52-0.89,2.57-1.29
					c2.09-0.8,4.88-1.46,8.01-2.03c1.09-0.19,2.23-0.38,3.4-0.55c1.19-0.18,2.41-0.34,3.64-0.49c2.43-0.3,4.9-0.55,7.29-0.76
					c0.89-0.08,1.77-0.15,2.63-0.23c7.65-0.6,13.83-0.78,13.83-0.78C534.859,354.051,509.399,387.511,509.399,387.511z"/>
			</g>
			<g>
				<path style="fill:#C6E8F7;" d="M599.039,390.321c-0.65,0.78-15.77,0.59-32.65-0.04c-1.4-0.05-2.81-0.1-4.22-0.15
					c-3.84-0.16-7.72-0.33-11.49-0.51c-1.89-0.1-3.76-0.2-5.58-0.3c-1.75-0.09-3.45-0.19-5.09-0.29c-4.14-0.24-7.91-0.5-11.05-0.76
					c-5.57-0.45-9.2-0.89-9.46-1.27c-1.24-1.79,20.57-35.25,20.57-35.25c1.17-0.78,7.15-1.18,14.7-1.31
					c3.63-0.07,7.61-0.07,11.6-0.03c1.75,0.01,3.5,0.04,5.22,0.07c1.95,0.04,3.86,0.09,5.69,0.15c4.53,0.14,8.56,0.34,11.45,0.56
					c1.88,0.15,3.27,0.3,4.01,0.47c0.14,0.03,0.26,0.06,0.35,0.09C596.809,353.031,600.519,388.531,599.039,390.321z"/>
			</g>
			<g>
				<path style="fill:#C6E8F7;" d="M707.589,393.561c-1.98,1.1-22.16,1.03-43.37,0.54c-1.42-0.03-2.84-0.07-4.26-0.11
					c-3.91-0.09-7.81-0.2-11.61-0.32c-1.92-0.07-3.8-0.13-5.65-0.19c-1.76-0.06-3.48-0.13-5.15-0.19
					c-4.12-0.16-7.93-0.32-11.26-0.47c-7.64-0.37-12.76-0.71-13.21-0.95c-1.97-1.01-5.57-38.67-5.57-38.67
					c4.08-4.44,28.71-0.7,44.36,2.13c4.29,0.78,7.91,1.48,10.25,1.93c1.44,0.28,2.39,0.46,2.72,0.5c0.27,0.03,0.89,0.26,1.78,0.65
					c1.08,0.48,2.58,1.2,4.36,2.09c2.47,1.23,5.49,2.79,8.75,4.5c1.04,0.55,2.11,1.11,3.19,1.69h0.01
					c11.41,6.06,24.29,13.22,26.13,14.55C712.339,383.601,711.849,391.201,707.589,393.561z"/>
			</g>
			<g>
				<path style="fill:#C6E8F7;" d="M752.443,386.801c-5.315,0.25-10.631,0.49-15.947,0.74c-5.151-3.83-10.709-7.66-16.684-11.38
					c-19.817-12.37-38.994-20.43-55.726-25.78c0-0.52,0.058-2.37,1.406-3.97c1.94-2.29,4.831-2.03,5.122-2
					c36.772,10.08,63.883,28.22,81.256,42.32C751.871,386.731,752.065,386.761,752.443,386.801z"/>
			</g>
			<g>
				<g>
					<path style="fill:#546494;" d="M723.442,462.637l-0.99-0.135c3.816-28.235,2.736-48.963,1.159-61.38
						c-1.71-13.451-4.355-20.315-4.382-20.383l0.932-0.365C720.267,380.648,730.785,408.315,723.442,462.637z"/>
				</g>
			</g>
			<g>
				<g>
					<path style="fill:#546494;" d="M615.738,461.356c-1.557-42.046-15.585-107.983-16.775-113.511
						c-4.846-0.323-54.741-3.493-61.244,2.123c-6.881,5.941-25.748,44.308-25.937,44.695l-0.898-0.44
						c0.779-1.588,19.148-38.939,26.182-45.012c7.111-6.143,60.09-2.496,62.343-2.339l0.373,0.026l0.08,0.366
						c0.152,0.697,15.256,70.273,16.878,114.054L615.738,461.356z"/>
				</g>
			</g>
			<g>
				<g>
					
						<rect x="514.892" y="394" transform="matrix(0.9765 -0.2155 0.2155 0.9765 -76.868 120.7902)" style="fill:#546494;" width="1" height="37.674"/>
				</g>
			</g>
			<g>
				<path style="fill:#546494;" d="M617.943,409.371c0,0,23.155-1.627,23.927,1.078
					C642.642,413.155,615.165,414.658,617.943,409.371z"/>
			</g>
			<g>
				<path style="fill:#546494;" d="M520.972,401.91c0,0,23.155-1.627,23.927,1.078C545.671,405.693,518.193,407.197,520.972,401.91z
					"/>
			</g>
			<g>
				<path style="fill:#546494;" d="M715.954,383.297c0,0-13.055-3.918-18.177-2.385c-5.123,1.533-5.949,14.31-3.14,16.184
					c2.809,1.874,19.169,2.726,21.317,0C718.102,394.371,719.719,384.303,715.954,383.297z"/>
			</g>
			<g>
				<g>
					<path style="fill:#546494;" d="M719.419,380.973c-19.253-12.801-39.075-21.738-58.919-26.565
						c-8.999-2.188-20.239-4.035-31.65-5.201c-9.768-0.996-19.691-1.447-29.472-1.336l-0.012-1
						c9.821-0.11,19.779,0.342,29.585,1.342c11.455,1.17,22.743,3.024,31.785,5.223c19.957,4.855,39.887,13.839,59.235,26.705
						L719.419,380.973z"/>
				</g>
			</g>
			<g style="opacity:0.6;">
				<g>
					<path style="fill:#FFFFFF;" d="M566.369,350.411l-26.36,38.62c-4.14-0.24-7.91-0.5-11.05-0.76l25.81-37.83
						C558.399,350.371,562.379,350.371,566.369,350.411z"/>
				</g>
				<g>
					<path style="fill:#FFFFFF;" d="M577.279,350.631l-26.6,38.99c-1.89-0.1-3.76-0.2-5.58-0.3l26.49-38.84
						C573.539,350.521,575.449,350.571,577.279,350.631z"/>
				</g>
				<g>
					<path style="fill:#FFFFFF;" d="M592.739,351.661l-26.35,38.62c-1.4-0.05-2.81-0.1-4.22-0.15l26.56-38.94
						C590.609,351.341,591.999,351.491,592.739,351.661z"/>
				</g>
			</g>
			<g style="opacity:0.6;">
				<g>
					<path style="fill:#FFFFFF;" d="M662.119,357.261l-24.57,36.03c-4.12-0.16-7.93-0.32-11.26-0.47l25.58-37.49
						C656.159,356.111,659.779,356.811,662.119,357.261z"/>
				</g>
				<g>
					<path style="fill:#FFFFFF;" d="M670.979,360.501l-22.63,33.17c-1.92-0.07-3.8-0.13-5.65-0.19l23.92-35.07
						C667.699,358.891,669.199,359.611,670.979,360.501z"/>
				</g>
				<g>
					<path style="fill:#FFFFFF;" d="M682.919,366.691l-18.7,27.41c-1.42-0.03-2.84-0.07-4.26-0.11l19.77-28.99
						C680.769,365.551,681.839,366.111,682.919,366.691z"/>
				</g>
			</g>
			<g>
				<g style="opacity:0.6;">
					<path style="fill:#FFFFFF;" d="M499.859,354.561l-23.24,34.07c-2.34,0.02-4.57,0.02-6.61-0.02l21.84-32.02
						C493.939,355.791,496.729,355.131,499.859,354.561z"/>
				</g>
				<g style="opacity:0.6;">
					<path style="fill:#FFFFFF;" d="M506.899,353.521l-23.88,35.01c-1.13,0.02-2.25,0.05-3.36,0.06l23.6-34.58
						C504.449,353.831,505.669,353.671,506.899,353.521z"/>
				</g>
				<g style="opacity:0.6;">
					<path style="fill:#FFFFFF;" d="M516.819,352.531l-24.37,35.73c-0.83,0.03-1.68,0.05-2.53,0.08l24.27-35.58
						C515.079,352.681,515.959,352.611,516.819,352.531z"/>
				</g>
			</g>
			<g>
				<path style="fill:#FFFFFF;" d="M836.413,453.993c0.419-1.073,6.319,2.343,16.419,1.866c5.078-0.24,8.062-1.314,9.329,0.373
					c1.265,1.684,0.25,5.356-1.97,6.874c-0.939,0.642-2.918,1.462-10.718-1.65C843.865,459.219,835.933,455.222,836.413,453.993z"/>
			</g>
		</g>
		<g>
			<g>
				<g>
					<g>
						<g>
							<path style="fill:#C6E8F7;" d="M657.194,511.421l4.295,9.281c0.628,1.358,2.56,1.453,3.324,0.164l5.601-9.445H657.194z"/>
						</g>
					</g>
				</g>
			</g>
			<g>
				<g>
					<g>
						<g>
							<path style="fill:#C6E8F7;" d="M596.955,511.421l4.295,9.281c0.628,1.358,2.56,1.453,3.324,0.164l5.601-9.445H596.955z"/>
						</g>
					</g>
				</g>
			</g>
			<g>
				<g>
					<g>
						<g>
							<circle style="fill:#342C3B;" cx="602.947" cy="523.991" r="6.121"/>
						</g>
					</g>
				</g>
			</g>
			<g>
				<g>
					<g>
						<g>
							<circle style="fill:#C6E8F7;" cx="602.947" cy="523.991" r="3.424"/>
						</g>
					</g>
				</g>
			</g>
			<g>
				<g>
					<g>
						<g>
							<circle style="fill:#342C3B;" cx="663.148" cy="523.991" r="6.121"/>
						</g>
					</g>
				</g>
			</g>
			<g>
				<g>
					<g>
						<g>
							<circle style="fill:#C6E8F7;" cx="663.148" cy="523.991" r="3.424"/>
						</g>
					</g>
				</g>
			</g>
			<g>
				<g>
					<g>
						<g>
							<path style="fill:#C6E8F7;" d="M599.047,489.076l-27.424-60.446c-0.157-0.347-0.125-0.751,0.085-1.069
								c0.211-0.318,0.563-0.522,0.951-0.496l113.506,2.772c0.612,0.015,1.095,0.522,1.08,1.134
								c-0.252,10.355-1.465,44.327-6.522,46.697c-4.846,2.271-72.795,11.055-80.527,12.048c-0.048,0.007-0.095,0.009-0.142,0.009
								C599.626,489.727,599.229,489.476,599.047,489.076z M574.371,429.323l26.356,58.092c30.235-3.895,75.66-10.161,79.057-11.753
								c2.284-1.094,4.601-20.558,5.219-43.638L574.371,429.323z"/>
						</g>
					</g>
				</g>
			</g>
			<g>
				<g>
					<g>
						<g>
							<path style="fill:#C6E8F7;" d="M583.131,452.423c0.01,0,0.019,0,0.029-0.001l102.178-2.579
								c0.611-0.015,1.095-0.524,1.079-1.135c-0.015-0.612-0.515-1.12-1.135-1.079l-102.178,2.579
								c-0.611,0.015-1.095,0.524-1.079,1.135C582.04,451.945,582.532,452.423,583.131,452.423z"/>
						</g>
					</g>
				</g>
			</g>
			<g>
				<g>
					<g>
						<g>
							<path style="fill:#C6E8F7;" d="M593.11,474.418c0.031,0,0.064-0.001,0.096-0.004l90.58-7.777
								c0.61-0.052,1.061-0.589,1.009-1.198c-0.052-0.609-0.589-1.077-1.199-1.009l-90.579,7.776
								c-0.61,0.052-1.061,0.589-1.009,1.199C592.057,473.982,592.541,474.418,593.11,474.418z"/>
						</g>
					</g>
				</g>
			</g>
			<g>
				<g>
					<g>
						<g>
							<path style="fill:#C6E8F7;" d="M675.834,478.857c0.584,0,1.072-0.457,1.105-1.046l2.615-46.993
								c0.034-0.611-0.434-1.134-1.044-1.168c-0.622-0.033-1.134,0.434-1.168,1.045l-2.615,46.993
								c-0.034,0.611,0.434,1.134,1.044,1.168C675.792,478.857,675.813,478.857,675.834,478.857z"/>
						</g>
					</g>
				</g>
			</g>
			<g>
				<g>
					<g>
						<g>
							<path style="fill:#C6E8F7;" d="M669.268,480.017c0.028,0,0.056-0.001,0.085-0.003c0.61-0.046,1.067-0.578,1.021-1.188
								l-3.672-48.467c-0.046-0.61-0.567-1.065-1.188-1.021c-0.61,0.046-1.067,0.578-1.021,1.188l3.672,48.467
								C668.208,479.574,668.694,480.017,669.268,480.017z"/>
						</g>
					</g>
				</g>
			</g>
			<g>
				<g>
					<g>
						<g>
							<path style="fill:#C6E8F7;" d="M661.389,481.264c0.042,0,0.084-0.002,0.126-0.007c0.608-0.069,1.045-0.617,0.976-1.225
								l-5.648-49.954c-0.069-0.608-0.623-1.045-1.225-0.976c-0.608,0.069-1.045,0.617-0.976,1.225l5.648,49.954
								C660.353,480.846,660.832,481.264,661.389,481.264z"/>
						</g>
					</g>
				</g>
			</g>
			<g>
				<g>
					<g>
						<g>
							<path style="fill:#C6E8F7;" d="M654.763,482.256c0.065,0,0.131-0.005,0.198-0.018c0.602-0.109,1.002-0.685,0.893-1.287
								l-9.258-51.196c-0.109-0.602-0.684-1.004-1.287-0.893c-0.602,0.109-1.002,0.685-0.893,1.287l9.258,51.196
								C653.771,481.881,654.238,482.256,654.763,482.256z"/>
						</g>
					</g>
				</g>
			</g>
			<g>
				<g>
					<g>
						<g>
							<path style="fill:#C6E8F7;" d="M647.342,483.331c0.082,0,0.164-0.009,0.247-0.028c0.597-0.136,0.97-0.73,0.835-1.326
								l-11.952-52.518c-0.136-0.597-0.732-0.967-1.326-0.835c-0.597,0.136-0.97,0.73-0.835,1.326l11.952,52.518
								C646.38,482.983,646.836,483.331,647.342,483.331z"/>
						</g>
					</g>
				</g>
			</g>
			<g>
				<g>
					<g>
						<g>
							<path style="fill:#C6E8F7;" d="M639.476,484.441c0.088,0,0.177-0.01,0.267-0.033c0.594-0.147,0.956-0.747,0.81-1.341
								l-13.244-53.628c-0.146-0.594-0.749-0.959-1.341-0.81c-0.594,0.147-0.956,0.747-0.81,1.341l13.244,53.628
								C638.526,484.104,638.979,484.441,639.476,484.441z"/>
						</g>
					</g>
				</g>
			</g>
			<g>
				<g>
					<g>
						<g>
							<path style="fill:#C6E8F7;" d="M632.354,485.427c0.109,0,0.219-0.016,0.328-0.05c0.585-0.181,0.912-0.801,0.731-1.385
								l-17.051-55.104c-0.18-0.585-0.804-0.914-1.385-0.731c-0.585,0.181-0.912,0.801-0.731,1.385l17.051,55.104
								C631.443,485.121,631.881,485.427,632.354,485.427z"/>
						</g>
					</g>
				</g>
			</g>
			<g>
				<g>
					<g>
						<g>
							<path style="fill:#C6E8F7;" d="M624.658,486.474c0.114,0,0.231-0.018,0.345-0.056c0.581-0.19,0.898-0.816,0.708-1.397
								l-18.381-56.152c-0.19-0.581-0.814-0.898-1.397-0.708c-0.581,0.19-0.898,0.816-0.708,1.397l18.381,56.151
								C623.758,486.177,624.192,486.474,624.658,486.474z"/>
						</g>
					</g>
				</g>
			</g>
			<g>
				<g>
					<g>
						<g>
							<path style="fill:#C6E8F7;" d="M617.336,487.457c0.123,0,0.249-0.021,0.372-0.065c0.577-0.205,0.877-0.839,0.672-1.415
								l-20.51-57.585c-0.204-0.577-0.838-0.879-1.415-0.672c-0.577,0.205-0.877,0.839-0.672,1.415l20.51,57.585
								C616.454,487.174,616.88,487.457,617.336,487.457z"/>
						</g>
					</g>
				</g>
			</g>
			<g>
				<g>
					<g>
						<g>
							
								<rect x="597.18" y="426.046" transform="matrix(0.933 -0.3598 0.3598 0.933 -124.6419 245.9382)" style="fill:#C6E8F7;" width="2.216" height="63.441"/>
						</g>
					</g>
				</g>
			</g>
			<g>
				<g>
					<g>
						<g>
							<path style="fill:#C6E8F7;" d="M586.593,513.082h87.789c0.918,0,1.662-0.744,1.662-1.662c0-0.918-0.744-1.662-1.662-1.662
								h-84.698l12.41-18.766c0.314-0.474,0.363-1.075,0.131-1.595c-9.561-21.408-31.987-71.389-33.736-73.139
								c-1.859-1.858-11.094-5.786-12.927-6.554c-0.846-0.355-1.82,0.043-2.175,0.89c-0.355,0.846,0.043,1.82,0.89,2.175
								c4.999,2.097,10.702,4.8,11.802,5.783c1.9,2.844,20.425,43.802,32.74,71.368l-13.612,20.583
								c-0.338,0.511-0.367,1.165-0.078,1.704C585.419,512.747,585.981,513.082,586.593,513.082z"/>
						</g>
					</g>
				</g>
			</g>
			<g>
				<g>
					<g>
						<g>
							<path style="fill:#546494;" d="M560.404,416.759c1.683,0,3.126-1.273,3.302-2.983c0.188-1.826-1.14-3.458-2.966-3.646
								l-14.728-1.516c-1.821-0.183-3.459,1.14-3.646,2.966c-0.188,1.826,1.14,3.458,2.966,3.646l14.728,1.516
								C560.175,416.754,560.29,416.759,560.404,416.759z"/>
						</g>
					</g>
				</g>
			</g>
		</g>
	</g>
	<g style="opacity:0.18;">
		<path style="fill:#29ABE2;" d="M647.082,81.723h132.226c0,0,18.439-9.061,4.441-11.332c-13.998-2.271-18.224,5.666-18.224,5.666
			s9.772-37.171-15.847-38.874c-25.619-1.703-18.224,35.195-18.224,35.195s-6.867-50.238-31.429-39.736
			c-24.562,10.502-1.321,38.601-1.321,38.601s-10.036-13.34-20.072-7.38s2.377,11.921,2.377,11.921S640.885,73.754,647.082,81.723z"
			/>
	</g>
	<g style="opacity:0.18;">
		<path style="fill:#29ABE2;" d="M803.954,173.99c0,0-19.607,0.247-17.431-4.447c2.176-4.695,17.431,1.726,17.431,1.726
			s-20.62-12.003-8.8-19.169c11.82-7.167,21.118,9.377,19.08,12.829c-2.038,3.453,1.392-20.022,13.819-19.367
			c12.427,0.655,0,20.892,0,20.892s5.483-7.92,17.876-5.406c12.392,2.515,0,8.494,0,8.494s25.882-3.739,25.882,1.726
			c0,5.465-8.514,4.29-8.514,4.29L803.954,173.99z"/>
	</g>
	<g>
		<path style="fill:#5C85B7;" d="M84.785,318.352c-0.987-2.01-3.672-3.265-6.578-2.83c2.272-1.452,3.557-3.95,3.234-6.3
			c-0.467-3.4-4.132-5.334-7.072-5.401c-1.535-0.035-3.039,0.439-4.342,1.304c1.388-2.447,2.299-5.023,2.269-7.694
			c-0.051-4.663-3.775-9.571-9.541-10.462c-6.578-1.016-12.85,3.597-14.531,8.745c-1.681,5.148-0.003,10.571,1.725,15.709
			c-2.683-3.45-6.467-7.006-11.568-7.212c-4.42-0.178-8.541,2.478-9.991,5.797c-1.942,4.445,0.842,8.909,1.61,10.146
			c2.749,4.43,7.171,5.819,8.355,6.15c13.662-0.009,27.324-0.018,40.986-0.026c0.545,0.012,2.41-0.014,3.965-1.369
			C85.255,323.213,85.736,320.289,84.785,318.352z"/>
	</g>
	<g>
		<path style="fill:#6E9ECE;" d="M7.014,318.4c0.18-2.323,1.791-5.253,4.788-5.843c2.246-0.443,4.639,0.553,6.131,2.546
			c0.661-2.634,2.938-4.253,4.87-4.033c2.356,0.268,4.544,3.311,3.53,6.668c0.11-2.198,2.239-3.718,4.276-4.55
			c1.634-0.668,3.593-1.094,5.094-0.164c2.118,1.312,2.044,4.448,1.181,6.785c1.114-1.405,3.495-0.741,4.657,0.625
			c0.643,0.757,1.316,1.813,1.169,3.126c-0.195,1.74-1.562,2.633-1.739,2.745c-9.227-0.074-18.454-0.147-27.681-0.221
			C9.312,325.097,6.757,321.715,7.014,318.4z"/>
	</g>
	<g>
		<path style="fill:#5C85B7;" d="M699.737,209.757c1.277-0.437,5.127-1.684,9.476,0.094c3.016,1.233,5.591,3.545,6.829,6.571
			c1.26-1.594,4.264-4.945,9.31-6.754c7.621-2.733,14.245,0.078,16.042,0.875c2.378,1.054,8.253,3.658,10.792,10.209
			c2.117,5.461,0.666,10.437,0.109,12.077c6.239-0.773,12.157,1.527,14.767,6.007c4.163,7.147-2.463,15.772-3.792,17.501
			c-4.599,5.986-11.033,7.686-13.417,8.167c-2.294,0.463-6.867,1.319-11.959-0.875c-6.264-2.699-8.947-8.132-9.625-9.626
			c-8.073,10.636-19.495,12.499-24.21,8.459c-4.613-3.953-2.501-13.298-2.333-14.001c-7.298,2.926-14.605-1.326-15.751-6.709
			c-0.904-4.246,1.966-9.479,7.293-11.749c-0.786-0.918-3.633-4.467-3.21-9.252C690.745,212.987,699.343,209.891,699.737,209.757z"
			/>
	</g>
	<g>
		<path style="fill:#5C85B7;" d="M745.64,267.953c0.581-0.247,2.334-0.953,4.315,0.053c1.373,0.697,2.546,2.005,3.109,3.717
			c0.574-0.902,1.941-2.797,4.239-3.821c3.47-1.546,6.486,0.044,7.304,0.495c1.082,0.596,3.757,2.069,4.914,5.775
			c0.964,3.089,0.303,5.905,0.05,6.832c2.841-0.437,5.535,0.864,6.724,3.399c1.896,4.043-1.122,8.922-1.727,9.901
			c-2.094,3.387-5.023,4.348-6.109,4.62c-1.044,0.262-3.126,0.746-5.445-0.495c-2.852-1.527-4.074-4.6-4.383-5.445
			c-3.676,6.017-8.876,7.071-11.023,4.785c-2.1-2.236-1.139-7.523-1.062-7.921c-3.323,1.655-6.65-0.751-7.172-3.795
			c-0.411-2.402,0.895-5.363,3.321-6.647c-0.358-0.519-1.654-2.527-1.461-5.234C741.546,269.781,745.461,268.03,745.64,267.953z"/>
	</g>
	<g>
		<path style="fill:#5C85B7;" d="M711.2,248.981c0,0,6.306,32.642,8.772,43.852c2.466,11.209-1.76,33.47-1.76,33.47l14.124-0.383
			c0,0-5.237-26.787-5.222-30.529c0.015-3.742,16.122-41.163,16.122-41.163l-1.464-0.976c0,0-13.829,36.282-15.619,35.631
			c-1.79-0.651-7.647-20.337-7.647-22.778s-1.302-11.389-1.302-11.389L711.2,248.981z"/>
	</g>
	<g>
		<path style="fill:#5C85B7;" d="M730.546,283.241c0,0,6.182-7.049,13.829-6.073c7.647,0.976,10.413,3.054,10.413,3.054
			s-3.107-0.723-6.597-1.242c-4.373-0.651-6.617-0.883-8.891-0.022c-1.878,0.711-2.987,1.796-5.141,3.901
			c-2.484,2.429-4.162,4.757-5.204,6.376C729.485,287.238,730.015,285.24,730.546,283.241z"/>
	</g>
	<g>
		<path style="fill:#5C85B7;" d="M828.765,321.01c-0.664-1.241-2.469-2.015-4.424-1.747c1.528-0.896,2.392-2.438,2.175-3.889
			c-0.314-2.099-2.779-3.293-4.756-3.334c-1.032-0.021-2.044,0.271-2.92,0.805c0.933-1.51,1.546-3.101,1.526-4.75
			c-0.034-2.878-2.539-5.908-6.417-6.458c-4.424-0.627-8.642,2.22-9.773,5.398c-1.13,3.178-0.002,6.525,1.16,9.697
			c-1.804-2.13-4.349-4.325-7.78-4.452c-2.973-0.11-5.744,1.53-6.719,3.579c-1.306,2.744,0.566,5.499,1.083,6.263
			c1.849,2.735,4.823,3.592,5.619,3.797c9.188-0.005,18.376-0.011,27.565-0.016c0.367,0.008,1.62-0.009,2.667-0.845
			C829.081,324.011,829.404,322.206,828.765,321.01z"/>
	</g>
	<g>
		<path style="fill:#5C85B7;" d="M882.797,319.019c-0.685-1.279-1.949-1.826-2.429-2.023c-5.007-2.055-12.09,3.498-13.032,4.253
			c6.312-0.98,10.209-6.159,9.551-10.675c-0.438-3.006-2.885-5.659-5.899-6.602c-3.881-1.214-8.342,0.521-10.675,4.354
			c0.146-0.253,3.123-5.615,0.421-10.253c-2.809-4.823-10.398-6.533-14.407-2.873c-2.493,2.276-3.226,6.285-2.019,10.097
			c-2.399-3.967-7.079-5.222-10.097-3.534c-3.468,1.939-3.428,7.027-2.27,10.074c1.732,4.56,6.477,5.896,7.023,6.04
			c-2.412-1.804-5.215-1.901-6.742-0.562c-0.97,0.85-1.331,2.198-1.213,3.268c0.281,2.55,3.434,4.86,7.898,5.336
			c12.915-0.008,25.83-0.015,38.744-0.023c0.516,0.01,2.278-0.012,3.749-1.188C883.242,323.237,883.697,320.7,882.797,319.019z"/>
	</g>
</g>
</svg>
