<?xml version="1.0" encoding="utf-8"?>
<!-- Generator: Adobe Illustrator 27.5.0, SVG Export Plug-In . SVG Version: 6.00 Build 0)  -->
<svg version="1.1" xmlns="http://www.w3.org/2000/svg" xmlns:xlink="http://www.w3.org/1999/xlink"
	x="0px" y="0px"
	viewBox="0 0 3710 3710" style="enable-background:new 0 0 3710 3710;" xml:space="preserve">
<g id="Background">
	<g>
		<g>
			<rect style="fill:#FFFFFF;" width="3710" height="3710"/>
		</g>
	</g>
</g>
<g id="Illustration">
	<g>
		<linearGradient id="SVGID_1_" gradientUnits="userSpaceOnUse" x1="3501.0022" y1="3656.4465" x2="1544.0465" y2="1573.236">
			<stop  offset="0" style="stop-color:#DAE3FE"/>
			<stop  offset="1" style="stop-color:#E9EFFD"/>
		</linearGradient>
		<path style="fill:url(#SVGID_1_);" d="M2913.428,2820.671c-72.243,74.466-136.883,118.239-186.374,151.284
			c-482.675,322.286-1034.425,229.396-1205.013,197.646c-275.222-51.225-507.547-87.361-707.156-267.7
			c-453.572-409.784-431.511-1264.625-84.927-1794.161c41.095-62.788,387.154-575.755,940.099-648.037
			c13.524-1.768,23.615-2.775,32.453-3.71c85.539-9.057,615.609-56.856,1047.828,305.257
			c61.87,51.835,161.437,145.331,253.768,287.929C3341.709,1570.579,3342.778,2378.114,2913.428,2820.671z"/>
		<g>
			<path style="fill:#BDD0FB;" d="M688.012,468.646c-4.461-13.767,11.593-25.081,23.193-16.428
				c117.804,87.858,407.578,358.116,403.304,888.461c-5.362,665.397,158.576,889.337,345.357,1016.07
				c0,0-241.517-42.129-416.178-268.418C614.853,1532.736,767.323,713.438,688.012,468.646z"/>
			<path style="fill:#FFFFFF;" d="M792.317,664.428c21.621,71.549,41.82,143.487,59.36,216.061
				c17.917,72.468,33.631,145.448,47.046,218.811c13.133,73.409,24.887,147.053,33.495,221.087
				c8.94,73.992,14.693,148.284,20.207,222.895c5.928,74.537,11.476,149.66,24.732,224.444c13.16,74.639,35.44,148.906,70.63,216.9
				c8.791,16.944,17.925,33.793,27.96,49.936c9.741,16.336,20.207,32.246,30.954,47.96c21.656,31.331,45.427,61.278,71.313,89.324
				c51.922,55.97,112.327,103.989,177.299,143.055c6.838,4.112,15.715,1.901,19.827-4.938c4.038-6.714,1.978-15.395-4.572-19.6
				l-0.046-0.03c-15.534-9.949-30.935-20.064-45.831-30.83c-7.536-5.265-14.823-10.853-22.211-16.302
				c-7.173-5.722-14.571-11.167-21.56-17.105c-28.348-23.271-55.029-48.504-79.71-75.585
				c-49.576-53.861-91.359-115.409-125.091-180.306c-16.505-32.649-30.575-66.457-41.994-101.231
				c-11.394-34.786-20.134-70.501-26.841-106.742c-13.427-72.522-19.533-146.832-25.996-221.322
				c-6.561-74.498-13.667-149.317-23.84-223.726c-4.985-37.213-10.639-74.333-16.955-111.333c-3.051-18.517-6.46-36.972-9.836-55.43
				c-3.552-18.426-7.206-36.829-11.009-55.199c-15.349-73.455-32.932-146.406-52.794-218.7
				c-20.209-72.198-42.328-143.836-67.168-214.501c-0.711-2.02-2.923-3.082-4.942-2.371
				C792.781,660.341,791.726,662.458,792.317,664.428z"/>
		</g>
		<g>
			<g>
				<path style="fill:#91B3FA;" d="M1098.768,2487.586c-6.182,25.939-36.846,37.136-58.492,21.563
					c-119.44-85.922-435.171-359.394-465.026-866.446c-25.211-428.183-79.572-657.965-111.478-760.568
					c-6.746-21.696,18.126-39.395,36.439-25.946C702.259,1004.569,1322.76,1547.66,1098.768,2487.586z"/>
				<path style="fill:#FFFFFF;" d="M1062.919,2491.887c-0.506,0.425-1.058,0.807-1.659,1.139c-5.027,2.79-11.365,0.975-14.154-4.052
					c-3.162-5.7-316.917-576.761-378.866-1170.537c-0.594-5.714,3.556-10.834,9.276-11.437c5.72-0.595,10.838,3.556,11.437,9.276
					c61.496,589.454,373.22,1156.934,376.36,1162.595C1067.771,2483.3,1066.656,2488.744,1062.919,2491.887z"/>
			</g>
		</g>
		<g>
			<g>
				
					<linearGradient id="SVGID_00000075862944458544346220000003739645388194437797_" gradientUnits="userSpaceOnUse" x1="3819.7793" y1="715.764" x2="3204.052" y2="1061.1725">
					<stop  offset="0" style="stop-color:#4F52FF"/>
					<stop  offset="1" style="stop-color:#4042E2"/>
				</linearGradient>
				<path style="fill:url(#SVGID_00000075862944458544346220000003739645388194437797_);" d="M916.547,884.318
					c16.288-15.252,38.308-22.836,60.539-20.837c237.784,21.384,681.421-93.152,971.368-389.82c20.133-20.6,56.83-8.957,79.91,8.288
					c322.459,241.003,856.974,290.913,1042.528,301.116c38.381,2.112,69.523,31.886,73.488,70.125
					c168.745,1629.788-892.398,2220.365-1112.48,2324.612c-24.057,11.398-52.381,9.742-74.98-4.331
					C860.037,2490.24,906.957,1601.718,891.786,943.366C891.273,921.055,900.259,899.574,916.547,884.318z"/>
				
					<linearGradient id="SVGID_00000086674085513521235000000009913253070089626001_" gradientUnits="userSpaceOnUse" x1="2472.6804" y1="1330.2662" x2="3563.9714" y2="574.3724">
					<stop  offset="0" style="stop-color:#4F52FF"/>
					<stop  offset="1" style="stop-color:#4042E2"/>
				</linearGradient>
				<path style="fill:url(#SVGID_00000086674085513521235000000009913253070089626001_);" d="M1990.41,464.448
					c-13.35-2.026-27.904,0.385-37.569,10.273c-289.947,296.668-733.813,411.205-971.596,389.82
					c-22.23-2-44.365,5.585-60.653,20.838c-16.288,15.256-25.331,36.736-24.818,59.047
					c15.171,658.352-31.321,1546.875,1065.561,2230.105c8.868,5.521,19.064,9.101,29.076,10.762V464.448z"/>
				<path style="fill:#FFFFFF;" d="M2002.222,3055.753c-4.217,0-8.428-1.183-12.092-3.526
					c-419.818-268.368-693.417-589.141-836.425-980.643c-127.771-349.803-134.032-706.239-139.557-1020.718l-0.746-41.966
					c-0.111-6.007,2.141-11.671,6.346-15.954c4.25-4.328,9.954-6.711,16.055-6.711c0.003,0,0.003,0,0.006,0
					c261.116,0,653.028-115.279,940.447-372.82c7.568-6.776,18.77-7.587,27.231-1.972
					c315.702,209.484,765.746,270.454,1005.911,288.155c10.954,0.808,19.601,9.354,20.563,20.318
					c55.661,634.998-76.367,1171.894-392.421,1595.773c-236.007,316.523-515.818,481.417-625.165,537.619
					C2009.193,3054.945,2005.706,3055.753,2002.222,3055.753z M1036.018,989.573c-5.417,0-10.27,2.027-13.888,5.713
					c-3.572,3.637-5.485,8.448-5.391,13.552l0.746,41.969c5.518,314.216,11.772,670.354,139.355,1019.63
					c142.748,390.791,415.907,711.02,835.089,978.98c5.697,3.637,12.952,3.996,18.92,0.926l0.763,1.483l-0.763-1.483
					c109.139-56.098,388.425-220.686,624.018-536.648c315.545-423.204,447.355-959.327,391.769-1593.485
					c-0.818-9.328-8.171-16.596-17.486-17.28c-240.492-17.727-691.175-78.802-1007.509-288.702
					c-7.206-4.781-16.729-4.087-23.157,1.672c-131.79,118.088-297.9,215.927-480.377,282.933
					c-159.347,58.516-323.449,90.74-462.083,90.74C1036.021,989.573,1036.021,989.573,1036.018,989.573z"/>
			</g>
		</g>
		<g>
			<g>
				
					<linearGradient id="SVGID_00000027596461754536084180000008953605000668065213_" gradientUnits="userSpaceOnUse" x1="2679.9944" y1="1798.2345" x2="2940.3152" y2="937.1727">
					<stop  offset="0" style="stop-color:#FF928E"/>
					<stop  offset="1" style="stop-color:#FE7062"/>
				</linearGradient>
				<path style="fill:url(#SVGID_00000027596461754536084180000008953605000668065213_);" d="M2965.658,1629.689
					c0,6.286-0.259,12.535-0.81,18.711c-5.623,67.784-41.758,128.694-95.427,168.651c-37.495,27.974-83.627,45.655-133.841,48.302
					c-132.517,6.984-242.941-92.891-242.941-223.24c0-67.343,29.481-128.106,76.275-171.114c7.095-6.543,14.63-12.682,22.497-18.343
					c40.545-29.261,90.538-46.538,144.169-46.538C2864.165,1406.119,2965.658,1506.215,2965.658,1629.689z"/>
			</g>
			<g>
				<g>
					<path style="fill:#FFFFFF;" d="M2737.799,1806.879c-97.667,0-177.123-79.456-177.123-177.122
						c0-97.665,79.456-177.122,177.123-177.122c97.664,0,177.12,79.456,177.12,177.122
						C2914.919,1727.422,2835.463,1806.879,2737.799,1806.879z M2737.799,1464.551c-91.095,0-165.207,74.111-165.207,165.206
						c0,91.095,74.112,165.206,165.207,165.206c91.093,0,165.204-74.111,165.204-165.206
						C2903.003,1538.662,2828.891,1464.551,2737.799,1464.551z"/>
				</g>
				<g>
					<g>
						
							<ellipse transform="matrix(0.1602 -0.9871 0.9871 0.1602 655.1403 3955.3228)" style="fill:#FFFFFF;" cx="2652.033" cy="1592.649" rx="22.839" ry="22.839"/>
					</g>
					<g>
						
							<ellipse transform="matrix(0.2298 -0.9732 0.9732 0.2298 623.4664 3973.0815)" style="fill:#FFFFFF;" cx="2821.836" cy="1592.649" rx="22.839" ry="22.839"/>
					</g>
				</g>
				<g>
					<path style="fill:#FFFFFF;" d="M2821.42,1712.804c-2.26,0-4.422-1.293-5.423-3.485c-11.253-24.644-42.378-41.202-77.454-41.202
						c-35.341,0-65.582,16.175-77.044,41.208c-1.37,2.994-4.911,4.302-7.898,2.937c-2.991-1.37-4.306-4.906-2.936-7.898
						c13.397-29.258,47.891-48.163,87.878-48.163c40.275,0,74.932,18.907,88.294,48.168c1.367,2.993,0.049,6.528-2.944,7.894
						C2823.09,1712.63,2822.25,1712.804,2821.42,1712.804z"/>
				</g>
			</g>
		</g>
		<g>
			<path style="fill:#91B3FA;" d="M2346.371,2020.172c7.66-2.629,6.559-13.823-1.472-14.864
				c-36.599-4.746-90.243-19.076-107.81-62.018c-27.564-67.378,29.532-327.16-232.761-373.643
				c-241.949-42.877-376.705,33.689-373.642,257.262C1633.654,2043.619,1981.923,2145.229,2346.371,2020.172z"/>
			<path style="fill:#FFFFFF;" d="M1927.436,2017.412c-0.411,0-0.824-0.153-1.147-0.459c-0.668-0.632-0.698-1.688-0.062-2.356
				c0.13-0.143,13.324-14.276,11.71-30.471c-0.427-4.276-1.845-8.34-4.24-12.167c-16.006,9.038-41.034,8.669-50.916,0.668
				c-7.05-5.707-8.741-13.972-4.113-20.096c6.437-8.52,23.232-10.739,44.886,4.514c4.56,3.214,8.259,6.688,11.081,10.4
				c0.997-0.684,1.939-1.415,2.816-2.193c8.969-7.949,9.272-19.223,0.88-32.602c-6.73-10.729-17.365-19.904-33.472-28.873
				c-5.831-3.246-12.398-6.339-19.35-9.611c-16.316-7.682-33.896-15.957-46.053-28.176c-0.665,0.391-1.323,0.792-1.982,1.196
				c-5.189,3.214-11.71,8.917-16.655,15.517c5.609,3.862,11.059,9.152,13.64,15.276c2.907,6.906,0.935,16.202-4.214,19.891
				c-3.807,2.731-8.614,1.959-13.184-2.096c-5.146-4.57-7.473-10.192-6.913-16.714c0.456-5.293,2.748-10.579,5.925-15.436
				c-1.6-0.958-3.197-1.796-4.732-2.493c-0.486-0.218-1.043-0.44-1.665-0.662c-1.659,3.09-3.761,6.039-6.29,8.761
				c-4.625,4.99-18.62,13.125-27.785,10.218c-2.917-0.922-6.58-3.406-7.47-9.983c-0.655-4.833,0.887-8.793,4.465-11.456
				c8.207-6.111,25.644-4.247,35.395-1.551c3.543-7.874,3.918-16.427,0.825-24.324c-4.429-11.313-15.266-18.688-28.988-19.731
				c-0.805-0.062-1.45-0.691-1.532-1.493c-0.085-0.802,0.42-1.551,1.193-1.776c7.275-2.112,14.839-4.693,21.882-8.389
				c-6.342-4.908-11.736-11.16-15.432-18.274c-7.356-14.165-6.642-28.86,2.014-41.382c5.453-7.891,14.39-13.598,22.762-14.536
				c4.912-0.564,9.504,0.535,13.412,3.168c0.029-0.437,0.062-0.867,0.101-1.297c-7.324-22.925-4.384-42.709,8.777-58.891
				c25.885-31.826,87.993-42.768,133.081-34.985c38.674,6.691,73.14,31.139,92.203,65.396c3.125,5.612,7.102,14.592,9.602,24.301
				c1.157,0.746,2.295,1.529,3.416,2.34c24.535,17.779,34.365,46.874,26.292,77.827c-7.125,27.338-28.424,47.001-53.536,51.844
				c-0.427,1.248-0.906,2.474-1.444,3.68c-2.953,6.636-7.385,12.052-12.959,15.983c2.757,4.765,4.703,9.908,5.651,15.455
				c1.486,8.709-0.424,16.195-5.684,22.26c-9.856,11.358-29.529,14.856-43.286,14.552c-27.586-0.769-49.025-16.772-57.353-42.807
				c-5.889-18.411-4.283-38.244,3.464-55.039c-8.122-1.232-15.514-1.907-21.569-2.079c-24.278-0.701-48.351,4.951-68.369,15.98
				c11.769,11.534,28.694,19.503,44.413,26.905c7.004,3.295,13.624,6.411,19.552,9.716c16.619,9.253,27.638,18.789,34.678,30.014
				c12.467,19.878,4.416,31.634-1.496,36.875c-0.978,0.867-2.024,1.678-3.129,2.438c2.669,4.26,4.25,8.813,4.726,13.627
				c1.753,17.727-12.03,32.459-12.616,33.078C1928.319,2017.24,1927.876,2017.412,1927.436,2017.412z M1894.462,1949.272
				c-6.427,0-10.925,2.35-13.131,5.27c-3.54,4.683-2.112,10.909,3.549,15.491c8.924,7.219,32.195,7.291,46.894-0.825
				c-2.591-3.347-5.978-6.499-10.143-9.432C1910.625,1952.019,1901.414,1949.272,1894.462,1949.272z M1935.877,1850.889
				c-7.754,16.224-9.442,35.548-3.709,53.474c7.878,24.627,28.163,39.759,54.266,40.486c13.056,0.362,31.585-2.927,40.672-13.402
				c4.573-5.274,6.228-11.838,4.915-19.513c-0.87-5.091-2.637-9.83-5.14-14.233c-3.546,2.057-7.477,3.569-11.73,4.478
				c-34.212,7.32-63.03-22.388-74.203-50.384C1939.234,1851.469,1937.546,1851.169,1935.877,1850.889z M1818.897,1885.44
				c-2.94,4.491-5.022,9.279-5.423,13.907c-0.463,5.414,1.49,10.1,5.805,13.93c2.376,2.109,5.863,4.139,9.021,1.881
				c3.859-2.764,5.358-10.485,3.083-15.882C1829.17,1894.018,1824.232,1889.123,1818.897,1885.44z M1944.873,1852.574
				c11.195,26.191,37.983,53.135,69.581,46.34c3.869-0.825,7.447-2.2,10.674-4.064
				C2010.034,1872.044,1974.897,1858.786,1944.873,1852.574z M1789.29,1877.279c-5.841,0-11.355,0.916-14.702,3.406
				c-2.617,1.949-3.647,4.674-3.152,8.331c0.538,3.947,2.229,6.32,5.172,7.252c7.385,2.334,20.142-4.794,24.333-9.305
				c2.187-2.356,4.028-4.866,5.508-7.47C1801.75,1878.263,1795.346,1877.279,1789.29,1877.279z M2005.556,1872.155
				c9.139,5.876,16.925,12.812,22.332,20.918c5.019-3.585,9.012-8.497,11.684-14.497c0.251-0.564,0.489-1.134,0.714-1.711
				c-5.964,0.789-12.115,0.733-18.307-0.238C2016.455,1875.757,2010.976,1874.264,2005.556,1872.155z M1811.137,1877.455
				c0.587,0.212,1.118,0.427,1.581,0.639c1.665,0.753,3.455,1.688,5.277,2.787c5.407-7.265,12.506-13.301,17.727-16.531
				c0.46-0.287,0.922-0.567,1.388-0.847c-7.49-8.379-12.45-18.558-12.985-31.481c-0.01-0.238-0.016-0.473-0.026-0.711
				c-6.887-1.359-13.65-4.276-19.715-8.383c-5.492,3.025-11.309,5.355-17.098,7.281c11.583,2.839,20.546,10.254,24.64,20.709
				C1815.253,1859.418,1814.862,1868.844,1811.137,1877.455z M1954.8,1826.989c21.426,27.071,44.156,42.64,67.701,46.34
				c6.44,1.014,12.828,0.968,18.995-0.013c1.917-6.58,2.259-13.692,1.072-20.621c-2.438,1.711-5.117,3.057-8.053,3.957
				c-0.893,0.271-1.815-0.231-2.086-1.108c-0.267-0.883,0.228-1.815,1.108-2.086c3.06-0.932,5.814-2.415,8.285-4.325
				c-1.056-4.217-2.689-8.321-4.889-12.144c-6.997-12.157-17.965-20.061-31.715-22.857c-16.469-3.364-34.932,1.147-49.354,12.04
				C1955.504,1826.438,1955.152,1826.712,1954.8,1826.989z M2045.518,1850.354c1.535,7.415,1.424,15.094-0.378,22.267
				c23.137-5.15,42.601-23.613,49.234-49.051c7.711-29.571-1.646-57.34-25.024-74.284c-0.121-0.088-0.241-0.176-0.365-0.261
				c1.871,9.422,2.053,19.115-1.473,26.791c-1.74,3.784-4.26,6.841-7.539,9.142c1.467,6.118,2.356,11.026,2.565,13.956
				C2063.671,1815.054,2058.828,1838.455,2045.518,1850.354z M1943.409,1848.914c14.031,2.806,29.313,7.147,43.351,13.294
				c-11.841-7.962-23.372-19.008-34.525-33.084c-4.244,3.722-7.959,7.972-11.111,12.613c0.016,0.062,0.033,0.124,0.049,0.186
				C1941.78,1844.217,1942.529,1846.557,1943.409,1848.914z M1827.459,1831.848c0,0.013,0,0.023,0.003,0.036
				c0.502,12.206,5.342,21.873,12.652,29.874c20.696-11.606,45.685-17.574,70.869-16.834c6.424,0.186,14.324,0.929,23,2.301
				c1.085-2.089,2.265-4.123,3.546-6.095c-1.405-5.756-2.184-11.583-2.382-17.407c-5.795,1.421-11.72,2.135-17.665,2.011
				c-13.91-0.222-27.146-4.322-39.117-10.977c-14.644,11.577-29.861,17.414-45.489,17.417c-0.163,0-0.323-0.003-0.486-0.003
				C1830.751,1832.158,1829.105,1832.05,1827.459,1831.848z M1937.445,1847.802c0.717,0.124,1.434,0.251,2.158,0.385
				c-0.306-0.893-0.6-1.786-0.87-2.669C1938.289,1846.27,1937.859,1847.033,1937.445,1847.802z M1994.24,1809.705
				c3.934,0,7.838,0.381,11.645,1.154c14.712,2.995,26.452,11.456,33.942,24.467c2.066,3.588,3.663,7.411,4.788,11.352
				c11.486-11.394,15.638-32.687,14.592-47.529c-0.173-2.454-0.965-6.812-2.288-12.372c-2.249,1.131-4.771,1.982-7.565,2.552
				c-18.535,3.777-37.83-7.878-50.137-23.796c-1.356,2.946-2.676,5.495-3.813,7.548c-11.968,21.628-28.378,37.501-46.669,45.89
				c1.333,1.841,2.672,3.637,4.015,5.384c0.362-0.287,0.73-0.57,1.098-0.851C1965.706,1814.552,1980.173,1809.705,1994.24,1809.705z
				 M1938.458,1822.833c0.121,4.866,0.665,9.742,1.656,14.572c2.946-3.973,6.313-7.64,10.064-10.915
				c-1.535-1.998-3.06-4.048-4.579-6.163C1943.246,1821.285,1940.864,1822.123,1938.458,1822.833z M1827.384,1828.478
				c1.678,0.222,3.36,0.342,5.032,0.355c14.79,0.068,29.121-5.097,42.944-15.817c-16.853-10.149-31.005-25.324-40.688-41.607
				c0.313,8.34-1.832,17.104-4.657,23.9c-0.287,4.002-0.714,7.946-1.137,11.841
				C1828.124,1814.063,1827.351,1821.181,1827.384,1828.478z M1807.584,1821.06c5.133,3.262,10.746,5.625,16.462,6.841
				c0.006-7.265,0.769-14.285,1.512-21.113c0.13-1.203,0.261-2.399,0.385-3.592C1821.09,1810.94,1814.689,1816.664,1807.584,1821.06
				z M1881.132,1812.495c11.202,6.016,23.509,9.696,36.402,9.901c5.902,0.108,11.805-0.626,17.564-2.102
				c0.026-4.677,0.43-9.341,1.186-13.94c-7.167-11.655-13.936-24.936-18.962-38.501c-3.751,7.18-8.65,13.734-12.721,19.181
				C1896.972,1797.239,1889.14,1805.732,1881.132,1812.495z M1939.032,1810.712c-0.342,2.862-0.538,5.746-0.587,8.637
				c1.734-0.538,3.458-1.144,5.166-1.819C1942.083,1815.344,1940.554,1813.069,1939.032,1810.712z M1813.229,1749.745
				c-0.701,0-1.414,0.039-2.141,0.121c-7.34,0.825-15.537,6.098-20.39,13.118c-7.92,11.456-8.555,24.933-1.796,37.947
				c3.699,7.118,9.194,13.314,15.641,18.05c8.474-4.996,15.957-11.834,20.911-21.716c0.433-0.867,0.864-1.796,1.278-2.777
				c0.495-7.154,0.492-14.295-0.834-21.853c-1.115-6.349-1.923-12.698-1.91-18.819
				C1820.892,1751.108,1817.281,1749.745,1813.229,1749.745z M1939.785,1805.67c2.19,3.517,4.413,6.877,6.629,10.042
				c0.117,0.166,0.231,0.326,0.345,0.492c17.883-8.021,33.981-23.515,45.724-44.739c1.313-2.373,2.891-5.44,4.468-9.025
				c-2.255-3.253-4.218-6.646-5.824-10.087c-1.545-3.305-2.741-6.577-3.595-9.794c-3.175,1.506-6.277,3.227-9.282,5.163
				C1957.613,1760.999,1943.957,1782.438,1939.785,1805.67z M1832.09,1759.389c9.237,19.953,25.666,39.508,46.027,51.414
				c8.047-6.694,15.964-15.269,23.812-25.771c4.514-6.036,10.1-13.51,13.822-21.602c-4.504-13.232-7.213-26.592-6.893-38.847
				c-15.269-13.109-42.145-14.497-60.429-5.515c-14.064,6.916-19.49,17.339-20.761,29.131c0.616,1.871,1.304,3.768,2.06,5.684
				c0.649,1.639,1.346,3.282,2.096,4.921C1831.914,1759.001,1832.002,1759.194,1832.09,1759.389z M1919.327,1763.682
				c4.609,13.164,11.006,26.191,17.903,37.794c5.049-22.727,18.861-43.468,39.215-56.564c3.338-2.145,6.789-4.038,10.322-5.681
				c-2.764-14.217,1.307-27.068,11.782-35.998c-0.574-1.03-1.186-2.053-1.851-3.067c-12.972-19.865-38.485-27.818-58.07-18.111
				c-13.027,6.453-21.345,16.433-24.721,29.656c-0.932,3.654-1.473,7.49-1.672,11.46c2.969,2.747,5.492,5.941,7.418,9.582
				C1925.213,1743.253,1923.593,1753.93,1919.327,1763.682z M2000.778,1761.984c11.521,15.573,30.389,27.654,47.911,24.073
				c2.78-0.567,5.251-1.444,7.408-2.63c-3.324-13.099-9.074-31.266-16.267-47.148c-10.482-2.21-21.407-2.311-32.071-0.303
				C2006.72,1745.704,2003.816,1754.742,2000.778,1761.984z M1827.453,1757.831c0.235,4.667,0.893,9.445,1.731,14.223
				c0.642,3.654,0.984,7.242,1.115,10.772C1832.009,1774.202,1831.879,1764.695,1827.453,1757.831z M2043.881,1737.24
				c6.649,15.005,11.971,31.575,15.211,44.182c2.298-1.864,4.1-4.201,5.387-7.001c3.624-7.891,2.94-18.239,0.557-28.039
				C2058.44,1742.262,2051.3,1739.211,2043.881,1737.24z M1990.642,1741.16c1.014,3.979,2.386,7.379,3.51,9.781
				c1.225,2.627,2.692,5.238,4.354,7.78c2.523-6.352,4.827-13.933,5.815-22.023
				C1999.673,1737.781,1995.097,1739.264,1990.642,1741.16z M1912.16,1727.811c0.147,9.833,2.207,20.347,5.511,30.881
				c2.767-7.943,3.305-16.306-0.968-24.376C1915.448,1731.94,1913.917,1729.773,1912.16,1727.811z M2042.118,1733.368
				c7.548,1.744,14.849,4.54,21.661,8.386c-2.412-8.063-5.736-15.396-8.402-20.188c-18.578-33.384-52.17-57.209-89.857-63.728
				c-44.162-7.64-104.807,2.924-129.926,33.798c-11.108,13.66-14.464,30.125-10.035,49.087c2.614-9.849,8.849-18.477,21.397-24.646
				c18.561-9.132,45.541-8.027,62.124,4.455c0.277-3.318,0.802-6.545,1.594-9.647c3.628-14.21,12.535-24.917,26.475-31.823
				c21.071-10.439,48.461-1.978,62.346,19.278c0.613,0.942,1.193,1.89,1.731,2.842c4.833-3.181,9.898-3.637,15.097-1.356
				C2025.77,1703.979,2034.684,1717.482,2042.118,1733.368z M2000.107,1706.296c-10.974,9.706-11.948,21.847-10.188,31.549
				c4.798-2.001,9.735-3.546,14.742-4.641C2005.286,1724.405,2004.22,1715.139,2000.107,1706.296z M2023.084,1731.21
				c5.042,0,10.065,0.443,15.005,1.333c-6.809-14.21-14.768-25.996-23.111-29.659c-4.224-1.861-8.226-1.441-12.19,1.271
				c4.527,9.341,5.801,19.106,5.257,28.378C2013.03,1731.65,2018.065,1731.21,2023.084,1731.21z"/>
		</g>
		<g>
			<g>
				
					<linearGradient id="SVGID_00000127004579439018164070000014768655205428726461_" gradientUnits="userSpaceOnUse" x1="1391.3146" y1="1408.6339" x2="1651.6351" y2="547.5731">
					<stop  offset="0" style="stop-color:#FF928E"/>
					<stop  offset="1" style="stop-color:#FE7062"/>
				</linearGradient>
				<path style="fill:url(#SVGID_00000127004579439018164070000014768655205428726461_);" d="M1568.962,1589.308
					c0,6.22-0.256,12.405-0.801,18.516c-5.565,67.079-41.324,127.357-94.435,166.898c-37.106,27.684-82.758,45.181-132.45,47.8
					c-131.14,6.911-240.417-91.926-240.417-220.92c0-66.643,29.175-126.775,75.483-169.336c7.021-6.475,14.478-12.55,22.263-18.152
					c40.123-28.957,89.597-46.054,142.671-46.054C1468.523,1368.061,1568.962,1467.117,1568.962,1589.308z"/>
			</g>
			<g>
				<g>
					<path style="fill:#FFFFFF;" d="M1343.47,1764.657c-96.652,0-175.282-78.631-175.282-175.281
						c0-96.65,78.63-175.281,175.282-175.281c96.649,0,175.279,78.631,175.279,175.281
						C1518.749,1686.026,1440.119,1764.657,1343.47,1764.657z M1343.47,1425.887c-90.149,0-163.49,73.341-163.49,163.489
						c0,90.148,73.341,163.489,163.49,163.489c90.146,0,163.487-73.341,163.487-163.489
						C1506.957,1499.227,1433.616,1425.887,1343.47,1425.887z"/>
				</g>
				<g>
					<g>
						
							<ellipse transform="matrix(0.1602 -0.9871 0.9871 0.1602 -475.6136 2546.2893)" style="fill:#FFFFFF;" cx="1258.595" cy="1552.653" rx="22.602" ry="22.602"/>
					</g>
					<g>
						
							<ellipse transform="matrix(0.1602 -0.9871 0.9871 0.1602 -334.4915 2712.1584)" style="fill:#FFFFFF;" cx="1426.634" cy="1552.653" rx="22.602" ry="22.602"/>
					</g>
				</g>
				<g>
					<path style="fill:#FFFFFF;" d="M1426.222,1628.673c-2.237,0-4.376,1.28-5.366,3.449
						c-11.136,24.388-41.938,40.774-76.649,40.774c-34.974,0-64.9-16.007-76.243-40.779c-1.356-2.963-4.86-4.258-7.816-2.906
						c-2.959,1.356-4.261,4.855-2.905,7.816c13.258,28.954,47.393,47.662,86.965,47.662c39.856,0,74.153-18.711,87.376-47.668
						c1.353-2.962,0.049-6.46-2.913-7.812C1427.875,1628.845,1427.043,1628.673,1426.222,1628.673z"/>
				</g>
			</g>
		</g>
		<g>
			
				<linearGradient id="SVGID_00000117635635688747932660000003998829025002924703_" gradientUnits="userSpaceOnUse" x1="-3799.3611" y1="1518.1599" x2="-3986.2583" y2="1861.9167" gradientTransform="matrix(-1 0 0 1 -2808.2808 0)">
				<stop  offset="0" style="stop-color:#09005D"/>
				<stop  offset="1" style="stop-color:#1A0F91"/>
			</linearGradient>
			<path style="fill:url(#SVGID_00000117635635688747932660000003998829025002924703_);" d="M1259.743,1894.063
				c0,0,12.951-48.76-55.986-56.886c-68.937-8.127-88.114,110.521-33.46,126.553
				C1224.951,1979.761,1259.743,1894.063,1259.743,1894.063z"/>
			
				<linearGradient id="SVGID_00000128455430099686900470000017296793311127640981_" gradientUnits="userSpaceOnUse" x1="1100.6305" y1="1176.3376" x2="1093.9557" y2="1513.42">
				<stop  offset="0" style="stop-color:#E1473D"/>
				<stop  offset="1" style="stop-color:#E9605A"/>
			</linearGradient>
			<path style="fill:url(#SVGID_00000128455430099686900470000017296793311127640981_);" d="M789.997,2151.957
				c21.356-23.103,51.32-36.334,82.779-36.559l412.449-2.922c33.555-0.238,65.505,14.344,87.314,39.844
				c21.808,25.501,31.255,59.478,25.814,92.589l-82.586,502.749h-519.23l-36.492-510.16
				C757.801,2206.119,768.642,2175.058,789.997,2151.957z"/>
			
				<linearGradient id="SVGID_00000107554742801940173040000002875990550518078598_" gradientUnits="userSpaceOnUse" x1="-4157.9004" y1="2419.6318" x2="-3982.1248" y2="2419.6318" gradientTransform="matrix(-1 0 0 1 -2808.2808 0)">
				<stop  offset="0" style="stop-color:#FEBBBA"/>
				<stop  offset="1" style="stop-color:#FF928E"/>
			</linearGradient>
			<polygon style="fill:url(#SVGID_00000107554742801940173040000002875990550518078598_);" points="1349.62,2396.434 
				1206.038,2390.376 1173.844,2448.888 1349.62,2435.59 			"/>
			<rect x="889.052" y="2941.23" style="fill:#7D97F4;" width="367.119" height="36.712"/>
			<g>
				<path style="fill:#7D97F4;" d="M1284.053,2767.683l-26.285,427.615c-0.175,2.839-2.262,6.254-4.779,6.254h-17.338
					c-2.645,0-6.179-3.011-6.179-6.005v-427.864H1284.053z"/>
				<path style="fill:#7D97F4;" d="M849.649,2767.683l26.286,427.615c0.175,2.839,2.261,6.254,4.778,6.254h17.337
					c2.646,0,4.351-3.011,4.351-6.005v-427.864H849.649z"/>
			</g>
			
				<linearGradient id="SVGID_00000114777549662467385670000003203225105345255076_" gradientUnits="userSpaceOnUse" x1="1083.0792" y1="2501.4583" x2="1163.178" y2="1413.45">
				<stop  offset="0" style="stop-color:#FF928E"/>
				<stop  offset="1" style="stop-color:#FE7062"/>
			</linearGradient>
			<path style="fill:url(#SVGID_00000114777549662467385670000003203225105345255076_);" d="M1382.994,2733.583
				c0-32.777-26.571-59.348-59.348-59.348H808.227c-32.777,0-59.348,26.571-59.348,59.348v1.451
				c0,32.777,26.571,59.348,59.348,59.348h515.419c32.777,0,59.348-26.571,59.348-59.348V2733.583z"/>
			<g>
				
					<linearGradient id="SVGID_00000111873072010211438360000002107232667515990195_" gradientUnits="userSpaceOnUse" x1="12406.2764" y1="531.177" x2="11995.6904" y2="765.5333" gradientTransform="matrix(0.9155 0.4023 -0.4023 0.9155 -9358.9414 -2678.031)">
					<stop  offset="0" style="stop-color:#FEBBBA"/>
					<stop  offset="1" style="stop-color:#FF928E"/>
				</linearGradient>
				<path style="fill:url(#SVGID_00000111873072010211438360000002107232667515990195_);" d="M1575.244,3131.41
					c-0.378-0.374-56.672-535.676-71.994-590.457c-2.578-9.214-9.66-16.441-18.815-19.228l-71.774-21.845l-154.788,90.947
					l166.135,28.1c-53.353,85.544,58.464,296.66,95.504,372.041c3.759,7.65,0.292,16.869-7.578,20.143l-34.28,14.26
					c21.375,56.01,54.829,100.646,99.93,134.311L1575.244,3131.41z"/>
				
					<linearGradient id="SVGID_00000060711472282499917120000005277192533371837318_" gradientUnits="userSpaceOnUse" x1="-2132.6582" y1="-2601.4553" x2="-2164.9604" y2="-2106.1543" gradientTransform="matrix(-0.6441 -0.765 -0.765 0.6441 -1719.3892 3040.5171)">
					<stop  offset="0" style="stop-color:#09005D"/>
					<stop  offset="1" style="stop-color:#1A0F91"/>
				</linearGradient>
				<path style="fill:url(#SVGID_00000060711472282499917120000005277192533371837318_);" d="M1497.066,3018.074
					c0,0-17.111-1.745-28.05,9.372c-5.234,5.318-5.795,13.701-1.991,20.119c16.905,28.521,73.213,121.36,105.858,149.043
					c2.676,2.27,6.83,0.771,7.515-2.67c1.907-9.572,3.33-29.735-5.546-64.068l0.2,4.437c0.253,5.615-6.88,8.21-10.25,3.711
					C1545.914,3112.797,1508.387,3059.272,1497.066,3018.074z"/>
			</g>
			
				<linearGradient id="SVGID_00000023275023168469853810000005994603097343092099_" gradientUnits="userSpaceOnUse" x1="12908.3848" y1="1179.6747" x2="14348.1387" y2="278.3661" gradientTransform="matrix(0.9615 0.2748 -0.2748 0.9615 -10372.1943 -1920.5399)">
				<stop  offset="0" style="stop-color:#FEBBBA"/>
				<stop  offset="1" style="stop-color:#FF928E"/>
			</linearGradient>
			<path style="fill:url(#SVGID_00000023275023168469853810000005994603097343092099_);" d="M1470.061,3155.166
				c-0.351-0.399-12.344-104.17-12.696-104.567c26.121-225.029-7.406-433.723-18.966-489.419
				c-1.946-9.368-8.518-17.061-17.462-20.463l-70.122-26.677l-165.334,127.172l168.556-7.628
				c-59.049,81.717,38.148,299.949,69.974,377.675c3.23,7.888-0.856,16.85-8.931,19.581l-35.17,11.895
				c17.516,57.334,47.855,104.142,90.562,140.797L1470.061,3155.166z"/>
			
				<linearGradient id="SVGID_00000004504410804561916590000008559731129847321520_" gradientUnits="userSpaceOnUse" x1="-1746.9318" y1="-3525.2961" x2="-1779.234" y2="-3029.9944" gradientTransform="matrix(-0.5905 -0.807 -0.807 0.5905 -2328.2727 3697.0984)">
				<stop  offset="0" style="stop-color:#09005D"/>
				<stop  offset="1" style="stop-color:#1A0F91"/>
			</linearGradient>
			<path style="fill:url(#SVGID_00000004504410804561916590000008559731129847321520_);" d="M1399.773,3036.774
				c0,0-16.953-2.904-28.622,7.442c-5.583,4.95-6.714,13.275-3.355,19.938c14.926,29.604,64.788,126.059,95.475,155.898
				c2.515,2.447,6.761,1.234,7.679-2.152c2.554-9.42,5.345-29.44-1.175-64.298l-0.102,4.44c-0.129,5.619-7.423,7.723-10.478,3.005
				C1442.065,3134.6,1408.266,3078.648,1399.773,3036.774z"/>
			
				<linearGradient id="SVGID_00000011744142517400459480000000569015862303265214_" gradientUnits="userSpaceOnUse" x1="908.9091" y1="2600" x2="1442.3263" y2="2600">
				<stop  offset="0" style="stop-color:#09005D"/>
				<stop  offset="1" style="stop-color:#1A0F91"/>
			</linearGradient>
			<path style="fill:url(#SVGID_00000011744142517400459480000000569015862303265214_);" d="M909.671,2639.395
				c5.549-45.881,73.173-146.463,73.173-146.463s262.293-8.532,292.925,3.355c23.775,9.227,120.788,4.012,163.027,1.216
				c1.607-0.106,3.057,0.959,3.437,2.521c0.38,1.565-0.42,3.177-1.896,3.819c-103.168,44.876-113.085,70.451-126.728,157.438
				c0,0-103.831,63.125-314.458,45.712C928.37,2701.143,904.122,2685.276,909.671,2639.395z"/>
			
				<linearGradient id="SVGID_00000012455840303957383600000009175235943585550770_" gradientUnits="userSpaceOnUse" x1="914.3503" y1="2295.7319" x2="1305.4612" y2="2295.7319">
				<stop  offset="0" style="stop-color:#DAE3FE"/>
				<stop  offset="1" style="stop-color:#E9EFFD"/>
			</linearGradient>
			<path style="fill:url(#SVGID_00000012455840303957383600000009175235943585550770_);" d="M1165.726,2478.032
				c0,0,78.749-74.985,117.512-124.65c20.953-26.847,27.534-62.19,17.843-94.838c-17.698-59.624-49.149-121.378-52.017-130.989
				c-4.396-14.732-92.694-14.119-92.694-14.119s-173.752,112.767-242.02,303.786l76.669,23.869c0,0,45.367-76.111,90.192-124.501
				c0,0-77.563,102.463-80.295,144.41L1165.726,2478.032z"/>
			
				<linearGradient id="SVGID_00000142166717591163235510000015193427589962358937_" gradientUnits="userSpaceOnUse" x1="-4883.6255" y1="2231.7324" x2="-4912.2153" y2="2048.2791" gradientTransform="matrix(-1 0 0 1 -3697.1548 0)">
				<stop  offset="0" style="stop-color:#FEBBBA"/>
				<stop  offset="1" style="stop-color:#FF928E"/>
			</linearGradient>
			<path style="fill:url(#SVGID_00000142166717591163235510000015193427589962358937_);" d="M1259.743,2045.22
				c-0.922,3.063-23.968,79.463-25.771,81.049c-1.803,1.586-50.542,4.207-73.482-11.472l46.824-103.582L1259.743,2045.22z"/>
			
				<linearGradient id="SVGID_00000128454623467721294350000011252454020034706063_" gradientUnits="userSpaceOnUse" x1="-2199.27" y1="-4229.5737" x2="-2014.522" y2="-4104.0845" gradientTransform="matrix(-0.723 -0.6909 -0.6909 0.723 -3176.3237 3572.7656)">
				<stop  offset="0" style="stop-color:#FEBBBA"/>
				<stop  offset="1" style="stop-color:#FF928E"/>
			</linearGradient>
			<path style="fill:url(#SVGID_00000128454623467721294350000011252454020034706063_);" d="M1323.126,1959.4
				c0,0,16.408,37.899-2.87,95.519c-19.278,57.62-50.782,62.626-70.733,48.382s-45.822-39.698-49.038-91.893
				C1197.268,1959.213,1300.524,1911.465,1323.126,1959.4z"/>
			
				<linearGradient id="SVGID_00000000919256719536707940000012902327118645924751_" gradientUnits="userSpaceOnUse" x1="-4129.0361" y1="2036.9362" x2="-4002.2129" y2="1893.4257" gradientTransform="matrix(-1 0 0 1 -2808.2808 0)">
				<stop  offset="0" style="stop-color:#09005D"/>
				<stop  offset="1" style="stop-color:#1A0F91"/>
			</linearGradient>
			<path style="fill:url(#SVGID_00000000919256719536707940000012902327118645924751_);" d="M1234.925,1895.406
				c18.781-10.337,38.386-13.203,56.553-10.543c13.767,1.944,26.716,7.063,37.924,14.484c11.411,7.471,20.51,17.296,27.265,28.607
				c2.206,4.573,3.764,9.415,4.763,14.493c3.754,19.081-1.324,38.836-13.792,53.761c-9.329,11.166-18.739,20.404-18.739,20.404
				l-1.626-11.733c0-14.688-11.558-30.561-25.887-35.115c-14.329-4.554-29.464-0.972-40.364,9.316
				c-14.125,13.354-21.846,31.267-21.846,31.267l-4.68-1.383c0,0,0.372-22.823-14.11-17.502
				c-14.432,5.374-20.335,35.516-20.335,35.516s-30.689,14.073-33.555-26.969
				C1163.629,1959.016,1181.702,1924.576,1234.925,1895.406z"/>
			
				<linearGradient id="SVGID_00000057132982899689899290000009581360938522470297_" gradientUnits="userSpaceOnUse" x1="-2188.1982" y1="-4245.875" x2="-2003.4482" y2="-4120.3848" gradientTransform="matrix(-0.723 -0.6909 -0.6909 0.723 -3176.3237 3572.7656)">
				<stop  offset="0" style="stop-color:#FEBBBA"/>
				<stop  offset="1" style="stop-color:#FF928E"/>
			</linearGradient>
			<path style="fill:url(#SVGID_00000057132982899689899290000009581360938522470297_);" d="M1227.446,2008.965
				c0,0,18.131-39.982-7.266-41.428c-25.397-1.445-15.064,38.542-10.003,53.133L1227.446,2008.965z"/>
			
				<linearGradient id="SVGID_00000018939121884233047050000001464046037766118302_" gradientUnits="userSpaceOnUse" x1="-4751.6592" y1="2465.6299" x2="-4332.4839" y2="2465.6299" gradientTransform="matrix(-1 0 0 1 -3697.1548 0)">
				<stop  offset="0" style="stop-color:#FEBBBA"/>
				<stop  offset="1" style="stop-color:#FF928E"/>
			</linearGradient>
			<path style="fill:url(#SVGID_00000018939121884233047050000001464046037766118302_);" d="M1315.767,2507.622l-59.172-64.38
				l-68.337,18.402c0,0-79.67,12.344-125.268,0c-45.598-12.344-45.598-12.344-45.598-12.344l-103.042-32.079l-16.184,45.737
				c-4.109,11.612,0.021,24.504,10.061,31.638c8.915,6.335,19.364,13.297,26.025,16.21c13.569,5.937,312.591,1.877,312.591,1.877
				L1315.767,2507.622z"/>
			<g>
				<path style="fill:#91B3FA;" d="M1239.667,2508.014l113.436-251.151c1.161-2.571,4.047-3.885,6.747-3.071l100.947,30.373
					c1.487,0.448,2.723,1.491,3.415,2.881c0.692,1.392,0.779,3.006,0.238,4.463l-85.99,232.02c-0.881,2.376-3.241,3.87-5.766,3.649
					l-128.391-11.244c-1.817-0.158-3.444-1.188-4.364-2.762C1239.017,2511.598,1238.916,2509.676,1239.667,2508.014z"/>
				<path style="fill:#BDD0FB;" d="M1383.198,2265.646l3.136-7.115c1.037-2.352,3.716-3.5,6.135-2.629l14.957,5.381
					c0.646,0.234,1.368,0.013,1.776-0.539l2.655-3.595c2.051-2.777,5.747-3.772,8.916-2.403l14.215,6.032
					c2.717,1.175,4.743,3.852,4.743,6.811v4.322c0,0.682,0.176,1.284,0.827,1.485l4.339,1.387c1.318,0.409,2.335,1.355,2.918,2.606
					c0.583,1.251,0.578,2.688,0.045,3.961l-3.312,7.859c-1.018,2.427-3.782,3.615-6.245,2.688l-52.346-19.698
					c-1.259-0.472-2.269-1.443-2.79-2.684C1382.645,2268.277,1382.655,2266.876,1383.198,2265.646z"/>
			</g>
			
				<linearGradient id="SVGID_00000011728057021240935970000008682446490895921037_" gradientUnits="userSpaceOnUse" x1="-4252.606" y1="2400.5461" x2="-4213.3716" y2="2400.5461" gradientTransform="matrix(-1 0 0 1 -2808.2808 0)">
				<stop  offset="0" style="stop-color:#FEBBBA"/>
				<stop  offset="1" style="stop-color:#FF928E"/>
			</linearGradient>
			<path style="fill:url(#SVGID_00000011728057021240935970000008682446490895921037_);" d="M1444.184,2381.381
				c0,0-21.609-29.366-22.44-20.501c-0.831,8.865,0,27.981,0,27.981s-4.156,3.602-10.251,16.9s-9.376,34.154-2.749,36.055
				C1415.372,2443.716,1446.677,2402.714,1444.184,2381.381z"/>
			
				<linearGradient id="SVGID_00000165944351533364416270000015370267393794827696_" gradientUnits="userSpaceOnUse" x1="1232.6185" y1="1743.0863" x2="1232.6185" y2="2066.8191">
				<stop  offset="0" style="stop-color:#09005D"/>
				<stop  offset="1" style="stop-color:#1A0F91"/>
			</linearGradient>
			<path style="fill:url(#SVGID_00000165944351533364416270000015370267393794827696_);" d="M1219.29,2380.771
				c0.644-0.838,1.641-1.329,2.697-1.329c2.31,0,4.349,1.509,5.027,3.716l19.639,64.066l-10.275,3.048l-17.678-66.553
				C1218.428,2382.698,1218.646,2381.607,1219.29,2380.771z"/>
			<path style="fill:#FFFFFF;" d="M1340.57,1992.786c-0.186,0-0.375-0.062-0.531-0.189c-0.355-0.293-0.404-0.821-0.114-1.177
				c0.336-0.404,33.039-40.972,0.081-71.253c-0.339-0.313-0.362-0.841-0.052-1.18c0.316-0.339,0.844-0.359,1.18-0.052
				c34.131,31.357,0.424,73.127,0.081,73.548C1341.049,1992.681,1340.811,1992.786,1340.57,1992.786z"/>
		</g>
		<g>
			<g>
				<rect x="2003.76" y="2864.469" style="fill:#7D97F4;" width="937.823" height="83.436"/>
				<g>
					<path style="fill:#7D97F4;" d="M2957.536,2854.457l-33.046,335.468c-1.397,14.157-7.18,24.976-13.872,24.976h-13.233
						c-7.491,0-13.691-13.299-14.158-29.472l-9.542-330.972H2957.536z"/>
					<path style="fill:#7D97F4;" d="M1960.55,2854.457l33.046,335.468c1.398,14.157,7.18,24.976,13.873,24.976h13.233
						c7.491,0,13.69-13.299,14.158-29.472l9.542-330.972H1960.55z"/>
				</g>
				
					<linearGradient id="SVGID_00000056409442468244594170000003943619926035543691_" gradientUnits="userSpaceOnUse" x1="-5706.5825" y1="2509.4709" x2="-4321.5415" y2="2509.4709" gradientTransform="matrix(-1 0 0 1 -2808.2808 0)">
					<stop  offset="0" style="stop-color:#E1473D"/>
					<stop  offset="1" style="stop-color:#E9605A"/>
				</linearGradient>
				<path style="fill:url(#SVGID_00000056409442468244594170000003943619926035543691_);" d="M1873.546,2743.433
					c10.584-11.036,24.978-17.189,39.905-17.105l833.514,4.801c23.509,0.136,45.177-13.357,56.298-35.068l281.452-549.458
					c18.322-35.768,58.552-52.52,95.297-39.682l7.516,2.625c21.082,7.367,38.267,23.636,47.397,44.873
					c9.13,21.239,9.374,45.509,0.672,66.943l-235.674,580.526c-22.193,54.668-72.851,90.666-129.515,92.033l-926.136,22.368
					c-22.93,0.556-45.205-8.606-61.609-25.408c-16.405-16.805-25.752-39.831-25.752-63.874v-41.892
					C1856.912,2769.468,1862.962,2754.466,1873.546,2743.433z"/>
			</g>
			<g>
				
					<linearGradient id="SVGID_00000175305723891723380790000003312498810753436846_" gradientUnits="userSpaceOnUse" x1="-5534.1802" y1="-1094.0979" x2="-5583.2495" y2="-949.7759" gradientTransform="matrix(-0.8649 -0.502 -0.502 0.8649 -2999.7231 325.8896)">
					<stop  offset="0" style="stop-color:#FEBBBA"/>
					<stop  offset="1" style="stop-color:#FF928E"/>
				</linearGradient>
				<path style="fill:url(#SVGID_00000175305723891723380790000003312498810753436846_);" d="M2265.344,2135.366l6.19-10.067
					c3.563-5.793,9.565-9.653,16.315-10.49l65.876-8.166c0,0,2.921-7.397-9.181-16.157c-12.102-8.759-4.953-23.018-4.953-23.018
					s16.188,13.278,39.612,33.741c13.397,11.703,18.483,27.445,20.386,38.786l10.544,23.115
					c-5.885,6.933-14.981,12.427-28.812,10.674l-2.397-17.695C2339.313,2157.389,2301.628,2149.659,2265.344,2135.366z"/>
				
					<linearGradient id="SVGID_00000054254796000720841040000002465721677929145515_" gradientUnits="userSpaceOnUse" x1="-5195.0361" y1="2115.1648" x2="-5355.7554" y2="2324.865" gradientTransform="matrix(-1 0 0 1 -2808.2808 0)">
					<stop  offset="0" style="stop-color:#FF928E"/>
					<stop  offset="1" style="stop-color:#FE7062"/>
				</linearGradient>
				<path style="fill:url(#SVGID_00000054254796000720841040000002465721677929145515_);" d="M2410.133,2161.416
					c7.093,15.549,14.143,31.119,21.231,46.67c9.116,19.999,16.727,45.55,31.386,62.25c17.283,19.689,45.589,16.238,63.291-0.966
					c19.406-18.862,40.136-36.219,60.205-54.387c5.293-4.793,10.729-9.423,16.066-14.166l1.515,122.129
					c-48.915,22.291-102.781,59.997-158.818,40.838c-15.433-5.277-30.896-15.095-39.662-29.176
					c-5.251-8.436-9.732-20.123-10.746-30.063c-0.002-0.02-13.488-132.29-13.488-132.29
					C2397.075,2174.278,2403.341,2169.417,2410.133,2161.416z"/>
			</g>
			<g>
				<g>
					
						<linearGradient id="SVGID_00000113340806070068930720000003395881739744527782_" gradientUnits="userSpaceOnUse" x1="-3619.1035" y1="1223.8966" x2="-3592.4041" y2="863.4529" gradientTransform="matrix(-1 0 0 1 -1433.1194 0)">
						<stop  offset="0" style="stop-color:#4F52FF"/>
						<stop  offset="1" style="stop-color:#4042E2"/>
					</linearGradient>
					<path style="fill:url(#SVGID_00000113340806070068930720000003395881739744527782_);" d="M2349.428,3174.102
						c48.447,0,69.883-4.156,79.467-7.947c-1.862,7.956-8.949,14.237-17.903,14.237h-171.391c-5.772,0-9.415-5.525-8.036-10.527
						C2251.102,3171.436,2292.597,3174.102,2349.428,3174.102z"/>
					
						<linearGradient id="SVGID_00000144321205473683700260000008718939821777929630_" gradientUnits="userSpaceOnUse" x1="-3709.7549" y1="2793.2703" x2="-3763.7505" y2="3166.3311" gradientTransform="matrix(-1 0 0 1 -1433.1194 0)">
						<stop  offset="0" style="stop-color:#09005D"/>
						<stop  offset="1" style="stop-color:#1A0F91"/>
					</linearGradient>
					<path style="fill:url(#SVGID_00000144321205473683700260000008718939821777929630_);" d="M2231.565,3169.865
						c0.278-1.009,0.687-2.001,1.404-2.917c13.055-16.668,39.281-42.845,74.957-42.343c52.263,0.735,70.485,6.405,111.098,0.319
						l9.581,31.758c0.976,3.237,0.994,6.47,0.29,9.473c-9.584,3.791-31.02,7.947-79.467,7.947
						C2292.597,3174.102,2251.102,3171.436,2231.565,3169.865z"/>
				</g>
				
					<linearGradient id="SVGID_00000168097254818994008950000002495052111119170964_" gradientUnits="userSpaceOnUse" x1="-3852.1423" y1="3113.7197" x2="-3798.6726" y2="3113.7197" gradientTransform="matrix(-1 0 0 1 -1433.1194 0)">
					<stop  offset="0" style="stop-color:#FEBBBA"/>
					<stop  offset="1" style="stop-color:#FF928E"/>
				</linearGradient>
				<path style="fill:url(#SVGID_00000168097254818994008950000002495052111119170964_);" d="M2407.263,3090.701l11.76,39.999
					c0,0-26.054,11.861-48.97,2.34l-4.5-34.655L2407.263,3090.701z"/>
				<g>
					
						<linearGradient id="SVGID_00000018937987467628788770000017812270471036282773_" gradientUnits="userSpaceOnUse" x1="-3332.2361" y1="1245.1434" x2="-3305.5366" y2="884.6994" gradientTransform="matrix(-1 0 0 1 -1433.1194 0)">
						<stop  offset="0" style="stop-color:#4F52FF"/>
						<stop  offset="1" style="stop-color:#4042E2"/>
					</linearGradient>
					<path style="fill:url(#SVGID_00000018937987467628788770000017812270471036282773_);" d="M2052.035,3148.912
						c37.766,30.345,57.067,40.547,66.901,43.609c-6.412,5.006-15.851,5.44-22.832-0.168l-133.606-107.351
						c-4.5-3.615-3.896-10.183,0.298-13.2C1977.047,3085.257,2007.733,3113.316,2052.035,3148.912z"/>
					
						<linearGradient id="SVGID_00000156562117873418252380000012543224847936090294_" gradientUnits="userSpaceOnUse" x1="-3442.3049" y1="2831.979" x2="-3496.3005" y2="3205.0405" gradientTransform="matrix(-1 0 0 1 -1433.1194 0)">
						<stop  offset="0" style="stop-color:#09005D"/>
						<stop  offset="1" style="stop-color:#1A0F91"/>
					</linearGradient>
					<path style="fill:url(#SVGID_00000156562117873418252380000012543224847936090294_);" d="M1962.797,3071.802
						c0.846-0.608,1.783-1.122,2.913-1.384c20.568-4.754,57.331-8.637,84.828,14.098c40.282,33.306,50.952,49.118,86.406,69.834
						l-12.329,30.64c-1.257,3.122-3.258,5.642-5.679,7.532c-9.834-3.062-29.135-13.264-66.901-43.609
						C2007.733,3113.316,1977.047,3085.257,1962.797,3071.802z"/>
				</g>
				
					<linearGradient id="SVGID_00000068651617863064496150000006782521446043299995_" gradientUnits="userSpaceOnUse" x1="2599.6672" y1="2959.5618" x2="3075.2305" y2="3420.1072">
					<stop  offset="0" style="stop-color:#09005D"/>
					<stop  offset="1" style="stop-color:#1A0F91"/>
				</linearGradient>
				<path style="fill:url(#SVGID_00000068651617863064496150000006782521446043299995_);" d="M2658.848,2634.982
					c0,0-290.053,23.683-349.556,51.695c-59.502,28.011,48.558,420.595,48.558,420.595s16.198,7.796,52.243-3.409
					c0,0-36.962-289.712-9.458-352.534l314.053-51.368L2658.848,2634.982z"/>
				
					<linearGradient id="SVGID_00000161591545857206971720000016508434516448995735_" gradientUnits="userSpaceOnUse" x1="4069.8533" y1="7144.2153" x2="4022.6509" y2="7119.3267" gradientTransform="matrix(-1 0 0 1 -1433.1194 0)">
					<stop  offset="0" style="stop-color:#FEBBBA"/>
					<stop  offset="1" style="stop-color:#FF928E"/>
				</linearGradient>
				<path style="fill:url(#SVGID_00000161591545857206971720000016508434516448995735_);" d="M2165.763,3099.202
					c-2.693,2.454-28.819,55.147-28.819,55.147s-29.086-6.293-35.018-24.699l26.171-47.558L2165.763,3099.202z"/>
				
					<linearGradient id="SVGID_00000118373819448628153370000016408293001985270148_" gradientUnits="userSpaceOnUse" x1="3285.395" y1="4036.0073" x2="2975.0291" y2="3585.4756">
					<stop  offset="0" style="stop-color:#09005D"/>
					<stop  offset="1" style="stop-color:#1A0F91"/>
				</linearGradient>
				<path style="fill:url(#SVGID_00000118373819448628153370000016408293001985270148_);" d="M2833.544,2632.558
					c0,0,9.452,22.744,9.066,52.968c-0.533,41.799-34.137,75.718-75.888,77.802l-342.891,15.636
					c-7.242,0.331-13.368,5.342-15.182,12.361c-8.057,31.167-47.442,126.875-239.964,317.854
					c-5.122,5.081-13.101,5.946-19.201,2.093l-27.406-17.311c-2.877-1.818-3.795-5.589-2.076-8.525l199.649-340.931
					c10.486-17.305,27.343-29.806,46.947-34.817l292.249-74.705L2833.544,2632.558z"/>
				
					<linearGradient id="SVGID_00000110465904143587502900000006375289976816373161_" gradientUnits="userSpaceOnUse" x1="3724.0249" y1="1534.1818" x2="3063.2102" y2="2108.2227">
					<stop  offset="0" style="stop-color:#FF928E"/>
					<stop  offset="1" style="stop-color:#FE7062"/>
				</linearGradient>
				<path style="fill:url(#SVGID_00000110465904143587502900000006375289976816373161_);" d="M2834.47,2631.552
					c0,0,3.399-169.95-30.574-329.892c-12.546-59.062-45.197-111.94-92.625-149.307l-15.866-12.501l-79.467,32.283l-40.838,70.563
					c-22.482,44.963-16.961,142.613,0,189.936c28.359,79.127,51.038,161.124,60.705,201.401
					C2635.804,2634.036,2767.42,2651.419,2834.47,2631.552z"/>
				
					<linearGradient id="SVGID_00000030449046994407867690000018184040084959801507_" gradientUnits="userSpaceOnUse" x1="-4135.9731" y1="2100.8853" x2="-4021.74" y2="2100.8853" gradientTransform="matrix(-1 0 0 1 -1433.1194 0)">
					<stop  offset="0" style="stop-color:#FEBBBA"/>
					<stop  offset="1" style="stop-color:#FF928E"/>
				</linearGradient>
				<path style="fill:url(#SVGID_00000030449046994407867690000018184040084959801507_);" d="M2640.771,2013.203l62.083,144.033
					c0,0-19.866,44.701-89.399,27.317l-24.833-99.333L2640.771,2013.203z"/>
				<g>
					
						<linearGradient id="SVGID_00000054245462604552951580000013710636133766630077_" gradientUnits="userSpaceOnUse" x1="-4516.5669" y1="1789.5743" x2="-4679.376" y2="2004.9575" gradientTransform="matrix(-0.9372 -0.3487 -0.3487 0.9372 -1061.55 -1292.5793)">
						<stop  offset="0" style="stop-color:#FEBBBA"/>
						<stop  offset="1" style="stop-color:#FF928E"/>
					</linearGradient>
					<path style="fill:url(#SVGID_00000054245462604552951580000013710636133766630077_);" d="M2517.737,1947.513
						c-0.748,2.012-2.394,143.915-2.394,143.915l81.045-0.783l21.54-134.263C2617.928,1956.382,2530.267,1913.836,2517.737,1947.513
						z"/>
					
						<linearGradient id="SVGID_00000171714624182644108800000016850566299797092241_" gradientUnits="userSpaceOnUse" x1="-5498.8018" y1="2342.4758" x2="-5248.5059" y2="1621.6226" gradientTransform="matrix(-1 0 0 1 -2808.2808 0)">
						<stop  offset="0" style="stop-color:#09005D"/>
						<stop  offset="1" style="stop-color:#1A0F91"/>
					</linearGradient>
					<path style="fill:url(#SVGID_00000171714624182644108800000016850566299797092241_);" d="M2594.158,1982.2l-5.805,71.567
						c-0.074,0.918-0.266,1.799-0.586,2.662c-1.958,5.285-10.028,22.973-27.621,13.613c-15.964-8.494-30.66-16.007-42.141-15.041
						c-5.156,0.434-9.132,4.701-9.191,9.874c-0.146,12.893,0.062,41.952,4.095,67.17c0.818,5.118,5.451,8.714,10.621,8.348
						c15.577-1.105,48.365-4.353,74.131-13.145c3.491-1.191,6.058-4.153,6.685-7.789c3.055-17.723,12.542-71.555,17.506-86.147
						c4.66-13.696,23.718-18.385,31.86-19.783c2.67-0.458,5.013-1.977,6.525-4.224c5.347-7.941,14.477-27.021-9.088-40.742
						c-4.932-2.872-6.491-9.195-3.471-14.037c6.013-9.64,11.044-25.248-6.665-38.274c-17.999-13.24-35.18-5.833-45.084,1.064
						c-4.004,2.789-9.334,2.193-12.815-1.226c-1.982-1.947-4.836-3.062-8.891-1.608c-5.463,1.959-11.396-1.464-12.778-7.1
						c-2.656-10.828-10.114-23.424-30.348-24.301c-35.904-1.555-48.12,35.964-43.846,60.422
						c4.273,24.457,43.297,23.93,64.395,16.627c16.041-5.553,32.48,7.455,39.439,14.01
						C2593.287,1976.216,2594.402,1979.181,2594.158,1982.2z"/>
					
						<linearGradient id="SVGID_00000005229068489766241410000016233789964067025031_" gradientUnits="userSpaceOnUse" x1="-4755.0176" y1="1960.1398" x2="-4624.4326" y2="1826.1628" gradientTransform="matrix(-0.9372 -0.3487 -0.3487 0.9372 -1061.55 -1292.5793)">
						<stop  offset="0" style="stop-color:#FEBBBA"/>
						<stop  offset="1" style="stop-color:#FF928E"/>
					</linearGradient>
					<path style="fill:url(#SVGID_00000005229068489766241410000016233789964067025031_);" d="M2619.477,2059.349
						c0,0-5.617-42.935,11.117-49.535c16.733-6.6,37.297,3.149,26.286,30.993
						C2643.185,2075.441,2619.477,2059.349,2619.477,2059.349z"/>
				</g>
				
					<linearGradient id="SVGID_00000014596337683506500160000002773874232496237711_" gradientUnits="userSpaceOnUse" x1="2712.8401" y1="2170.3494" x2="2893.062" y2="1746.4933">
					<stop  offset="0" style="stop-color:#FF928E"/>
					<stop  offset="1" style="stop-color:#FE7062"/>
				</linearGradient>
				<path style="fill:url(#SVGID_00000014596337683506500160000002773874232496237711_);" d="M2449.49,2495.052
					c204.665,64.25,193.777-223.813,195.103-225.839c81.134-123.982,126.693,41.24,118.83,64.531
					c-71.963,260.534-253.375,247.635-324.063,196.457C2448.162,2516.507,2450.169,2504.456,2449.49,2495.052z"/>
				
					<linearGradient id="SVGID_00000039823398864174778110000010321486781024882342_" gradientUnits="userSpaceOnUse" x1="2686.3984" y1="2271.4924" x2="2915.5696" y2="1919.9486">
					<stop  offset="0" style="stop-color:#E1473D"/>
					<stop  offset="1" style="stop-color:#E9605A"/>
				</linearGradient>
				<path style="fill:url(#SVGID_00000039823398864174778110000010321486781024882342_);" d="M2606.381,2450.616
					c1.13-0.351,2.146-1.087,2.836-2.16c31.01-48.323,39.76-115.472,41.642-163.294c0.113-2.873-2.125-5.294-4.998-5.407
					c-2.874-0.114-5.294,2.123-5.407,4.998c-1.499,38.093-8.686,109.283-40.002,158.079c-1.552,2.419-0.849,5.64,1.571,7.194
					C2603.369,2450.891,2604.963,2451.056,2606.381,2450.616z"/>
				
					<linearGradient id="SVGID_00000135665906377613878280000013603997261064999040_" gradientUnits="userSpaceOnUse" x1="2778.2151" y1="2331.3467" x2="3007.3862" y2="1979.803">
					<stop  offset="0" style="stop-color:#E1473D"/>
					<stop  offset="1" style="stop-color:#E9605A"/>
				</linearGradient>
				<path style="fill:url(#SVGID_00000135665906377613878280000013603997261064999040_);" d="M2663.534,2516.077
					c0.641-0.198,1.253-0.525,1.799-0.982c46.774-39.197,82.017-100.791,104.744-183.072c0.765-2.772-0.861-5.64-3.633-6.406
					c-2.773-0.763-5.64,0.863-6.405,3.633c-22.154,80.207-56.269,140.048-101.396,177.863c-2.204,1.848-2.493,5.132-0.646,7.336
					C2659.387,2516.106,2661.59,2516.68,2663.534,2516.077z"/>
				
					<linearGradient id="SVGID_00000026134314765496621100000001802345963850805640_" gradientUnits="userSpaceOnUse" x1="-4163.2588" y1="4054.6091" x2="-4332.3018" y2="4328.9048" gradientTransform="matrix(-0.9551 0.2964 0.2964 0.9551 -2812.4656 -175.8474)">
					<stop  offset="0" style="stop-color:#FEBBBA"/>
					<stop  offset="1" style="stop-color:#FF928E"/>
				</linearGradient>
				<path style="fill:url(#SVGID_00000026134314765496621100000001802345963850805640_);" d="M2329.012,2434.905
					c0,0,3.323,5.308,27.285,23.874c23.962,18.566,48.089,29.281,29.77,3.763c-18.319-25.517-9.404-38.684,11.501-11.198
					c20.905,27.488,35.851,38.106,35.851,38.106c5.502,2.106,10.854,3.964,16.071,5.602c0.679,9.404-1.328,21.456-10.13,35.149
					c-8.291-2.742-12.975-4.766-12.975-4.766s-63.383-11.533-76.958-38.522S2329.012,2434.905,2329.012,2434.905z"/>
			</g>
		</g>
	</g>
</g>
</svg>